<svg xmlns="http://www.w3.org/2000/svg" viewBox="0 0 3000 3000" width="3000" height="3000"><defs><clipPath id="a"><path d="M0 0h1454.145v2121.17H0z"/></clipPath></defs><g clip-path="url(#a)" transform="translate(116.0 296.0) rotate(0.0 764.0 1114.0) scale(1.0507892954278975 1.0503637143651852) translate(-0.0 -0.0)"><path d="M1005.509 9.448s55.818 60.765 65.458 76.314 2.738 11.2 48.171 11.358 115.028-3.092 154.957 6.219 79.83 22.64 79.83 22.64 26.763-44.357 31.114-68.974 5.98-35.5 5.98-35.5 16.722 46.1 23.854 79.8 26.593 163.059 32.908 244.715c6.254 80.863-1.688 180.168-12.9 247.7s-19.156 186.171-26.2 256.564c-5.628 56.218-20.737 161.765-23.445 249.417s-18.258 230.368-15.813 296.479-.892 143.379-8.333 201.9-8.653 127.375-25.4 157.751-21.733 41.7-29.559 34.8-15.652-28.2-9.391-76.726 9.391-170.609 9.391-225.392-10.956-158.087-23.478-198.782-27.329-91.957-27.329-91.957-29.46 130.249-41.539 194.183-48.733 171.485-78.986 225.11-47.428 72.838-41.547 77.727 40.137-.252 56.034 5.729 29.81 12.287 26.758 28.765-2.114 26.149-47.506 26.149-69.517-14.417-68.765 0-.719 37.31-9.6 34.8-31.448-26.4-35.87-34.8-27.614 0-66.255 0-27.685-7.491-68.38 8.161-230.086 8.254-230.086 8.254-76.206 4.215-109.643-16.415-40.539-48.736-83.739-45.863-146.023 29.881-203.03 58.273-128.053 71.01-135.8 117.279-7.123 98.709 43.761 116.593 114.131 29.856 204.59 17.011 233.726-38.076 288.558-42.262 159.138-4.865 192.265 30.437 42.3 71.36 23.038 81.572-26.3 15.766-50.575 11.908-141.124-27.632-225.708-11.6-270.806 28.426-291.193 28.36-133.819-.168-199.953-35.2S-3.282 1979.319 6.3 1932.644s28.138-98.609 68.834-131.478 93.913-73.566 139.3-89.218 115.826-42.261 139.305-46.956 79.826-9.392 90.782-32.87 19.523-38.732 14.883-98.441-22.457-170.85 1.231-261.774 63.028-205.969 93.722-268.877S635.486 851.079 657.4 816.644s106.434-159.652 106.434-159.652 59.478-72 86.087-118.957 68.664-100.193 88.332-157.314 49.407-144.773 57.233-208.947 10.023-162.326 10.023-162.326Z" style="fill:#fff"/><path d="M1317.446 330.742c24.852 6.609 52.853 2.664 73.479-12.695a57.291 57.291 0 0 0 16.081-17.705 48.34 48.34 0 0 0-6.244-56.57c-14.229-15.7-29.844-23.873-51.829-22.826-9.4.447-19.5-.661-34.561 1.142a94.742 94.742 0 0 0-31.912 10.186c-9.223 4.77-17.991 11.51-25.171 16.876-40.542 30.296 34.478 74.763 60.157 81.592Zm-29.521-221.552c2.131 21.292-1.028 43.955-13.549 61.307a64.625 64.625 0 0 1-110.085-66.96c8.34-5.187 18.666-9.691 28.389-8.294" style="fill:#4e4e4e"/><path d="m1197.064 336.207-1.529-6.23a28.2 28.2 0 0 0-37.628 30.158 11.023 11.023 0 0 0 2.678 6.5 13.594 13.594 0 0 0 4.767 2.683c10.488 4.156 23.785 7.84 31.924.027 6.337-6.084 6.058-16.123 5.324-24.878m22.836-13.614c17.076-3.893 35.73 11.286 35.39 28.8a18.291 18.291 0 0 1-1.809 8.079 18.594 18.594 0 0 1-4.506 5.406c-11.7 10.057-31.24 9.147-41.958-1.955-6.581-6.817-9.7-17.148-6.9-26.2s11.933-16.058 21.385-15.373M996.25 499.919c.638-8.2-1.03-17.057-6.772-22.942-5.225-5.356-13.036-7.443-20.516-7.614-13.744-.315-27.133 5.082-38.52 12.786-22.1 14.955-62.048 55.918-18.808 71.866 35.237 12.997 81.718-16.862 84.616-54.096ZM789.837 624.592c35.44 35.627 67.5 76.493 82.321 124.511 22.272 72.177.132 156.144-54.834 207.954s-140.093 68.955-210.829 42.46c-9.3-3.483-19.017-8.271-23.484-17.138-4.881-9.69-2.093-21.34 1.215-31.673A393.4 393.4 0 0 1 652.4 824.117m231.7-210.829a15.066 15.066 0 0 0 27.442 10.124c2.414-3.558 3.2-8.01 3.093-12.309a21.119 21.119 0 0 0-2.068-9.153 15.326 15.326 0 0 0-28.477 10.808m-188.729 429.614c-3.848 5.188-7.868 10.867-7.867 17.327 0 8.317 7.255 15.477 15.407 17.134s16.7-1.314 23.457-6.157 12.051-11.423 17.251-17.915c2.074-2.591 4.248-5.439 4.339-8.757.108-3.907-2.837-7.38-6.349-9.1s-7.52-2.029-11.419-2.314c-7.014-.513-14.195-1.011-20.967.885s-13.171 6.693-14.979 13.489" style="fill:#b1b1b1"/><path d="M850.356 1292.06c-13.824-12.168-36.208-10.332-51.161.419s-23.529 28.369-28.437 46.119a162.533 162.533 0 0 0 14.643 121.23c7.462 13.336 17.183 25.906 30.406 33.567s30.43 9.646 43.762 2.177c6.452-3.614 11.647-9.173 15.768-15.313 14.7-21.909 15.92-50.365 11.5-76.377s-13.886-50.928-18.915-76.83m134.343 196.734c3.689-.5 7.521-.948 11.067.18 4.454 1.417 7.8 5.13 10.327 9.061 8.169 12.7 9.841 28.366 11.3 43.393l8.448 87.1c1.241 12.8 2.551 25.858 7.839 37.576 2.817 6.243 6.735 12.027 8.659 18.6 3.842 13.122-.762 27.415 2.018 40.8.777 3.742 2.132 7.424 2.061 11.245-.242 13.081-17.754 20.025-29.731 14.763s-18.884-17.783-24.029-29.812c-8.933-20.889-15.179-42.815-21.062-64.76q-14.751-55.014-26.656-110.725c-2.5-11.592-8.962-25.973-3.709-37.274 6.932-14.913 29.39-18.261 43.468-20.147ZM558.3 2036.073c-.363 14.932.106 31.9 11.246 41.848 5.745 5.131 13.45 7.435 21 8.938 51.39 10.225 105.014-10.018 156.612-.9 24.163 4.272 47.172 14.9 71.677 16.185s52.761-11.049 57.638-35.1c1.675-8.258.35-16.9-2.387-24.865-12.754-37.13-53.021-57.488-91.456-65.492-47.968-9.989-97.391-6.551-145.5.541-16.762 2.471-47.345 1.846-61.913 9.842-15.724 8.639-16.538 33.35-16.917 49.003Zm-94.97-760.582c19.963-1.539 35.834 16.473 45.086 34.229a181.943 181.943 0 0 1 20.389 77.105c.783 21.377-2.048 43.788 6.6 63.353 4.569 10.335 12.083 19.134 16.853 29.378 9.805 21.057 6.683 46.924-5.677 66.59s-33.067 33.3-55.411 39.645c-7.845 2.229-17.565 3.111-22.938-3.024-3.039-3.469-3.81-8.316-4.436-12.885A1466.2 1466.2 0 0 1 451.45 1311.2" style="fill:#626262"/><path d="M1198.557 368.21c-3.679 3.531-10.391 3.793-12.339 8.5a11.279 11.279 0 0 0-.484 5.011 136.168 136.168 0 0 0 3.347 22.832c.657 2.8 2.036 6.145 4.9 6.371 1.787.141 3.377-1.068 4.681-2.3a39.78 39.78 0 0 0 11.1-18.6 19.411 19.411 0 0 0 .618-8.776 23.726 23.726 0 0 0-3.363-7.478c-1.717-2.817-3.863-5.821-7.1-6.464-3.437-.684-6.706 1.557-9.5 3.676" style="fill:#ff7900"/><path d="M998.737 9.448c6.511 53.914-.953 109.389-10.885 162.443-9.825 52.483-21.779 104.708-37.907 155.638-14.038 44.334-31.988 86.03-55.978 125.8-23.585 39.094-49.155 77-74.838 114.732-56.967 83.7-116.364 165.8-171.64 250.64-55.484 85.155-100.573 177.146-137.933 271.58-20.982 53.033-39.535 107.377-51.942 163.105-12.6 56.575-14.757 113.592-12.457 171.4 2.084 52.381 10.83 105.18 9.216 157.631-.7 22.826-6.029 43.912-27.595 54.825-9.739 4.928-20.656 7.606-31.154 10.376-16.766 4.424-33.619 8.5-50.352 13.057-49.6 13.505-100.194 28.544-147 49.992a479.82 479.82 0 0 0-108.87 69.081c-34.067 28.718-65.213 63.934-80.754 106.3-30.745 83.819 24.647 170.591 100.09 206.874 101.565 48.847 219.857 28.971 326.977 16.379 66.063-7.765 132.46-13.43 198.959-15.521 43.621-1.373 88.387-2.466 131.727 3.729 19.5 2.788 38.163 9.118 57.994 10 18.649.831 42.761-1.814 53.832-19.142 14.634-22.9-1.83-57.391-17.228-76.138-20.269-24.678-51.753-36.773-82.385-42.244-59.415-10.61-120.418-1.422-179.492 6.967-67.944 9.649-135.522 21.722-203.5 31.124-53.4 7.385-109.777 15.555-163.65 8.386-40.014-5.325-97.543-22.757-112.022-65.63-12.487-36.972 6.242-82.449 31-110.148 32.887-36.787 81.419-57.648 126.315-75.512 31.154-12.4 62.807-23.8 94.709-34.126 19.715-6.38 40.108-13.007 60.824-15.129 28.106-2.879 48.17 9.726 70.592 24.955 25.282 17.172 49.577 29.722 80.248 34.067 58.439 8.277 119.038 2.756 177.777 1.2 36.1-.96 72.688-.692 108.667-4.258 9.275-.92 15.8-2.575 22.734-9.51 11.841-11.843 18.263-31.141 4.761-44.333-9.562-9.342-24.549-12.759-37.134-15.665-13.707-3.164-27.643-4.86-41.517-7.064-3.565-.566-9.067-2.86-12.539-2.553-.216.019-1.452-.661-1.551-.6.582-.371.14 5.221 1.088 5.274.312.018 1.289-2.1 1.56-2.35 4.325-3.947 7.511-11.686 10.533-16.639a741.8 741.8 0 0 0 35.569-65.738c14.316-29.877 28.557-61.068 35.692-93.545 14.629-66.592 3.568-139.143-18.3-202.971-13.374-39.029-37.444-75.978-64.793-106.767-5.8-6.53-15.352 3.078-9.578 9.578 30.258 34.063 54.119 74.718 66.764 118.483 19.218 66.511 28.406 139.769 4.762 206.412-17.4 49.047-41.517 96.666-69.755 140.385-2.285 3.539-5.834 7.394-5.537 11.853.5 7.47 8.919 9.633 14.939 10.917 11.9 2.537 24.122 3.592 36.1 5.748 13.408 2.415 32.7 4.737 43.311 14.031 10.641 9.319-.136 27.407-11.489 30.775-6.484 1.924-17.6 1.665-25.712 2.07-48.229 2.409-96.562 3.146-144.831 4.368-31.71.8-63.5 1.946-95.193-.031-18.035-1.126-36.213-3.248-53.414-9.037-26.156-8.8-46.608-27.911-70.334-41.258-25.474-14.33-51.618-13.366-79.449-6.784-26.282 6.215-51.9 15.338-77.314 24.378-29.506 10.5-58.9 21.407-87.546 34.105-40.366 17.9-81.783 40.059-108.954 75.973-22.1 29.217-37 71.9-27.451 108.423 11.33 43.349 57.037 63.463 96.426 74.183 47.125 12.825 97.468 8.719 145.435 3.6 64.477-6.876 128.433-18.1 192.469-28.124 65.576-10.266 132.848-23.225 199.491-20.185 35.388 1.614 75.581 8.026 102.831 32.775a86.447 86.447 0 0 1 20.2 27.457c5.425 11.578 11.817 28.467 5.151 40.418-11.144 19.977-46.751 14.851-64.763 11.367-15.869-3.07-31.07-6.968-47.212-8.652-45.721-4.77-92.193-3.677-138.042-1.792-66.862 2.75-133.6 8.862-199.994 17.1-61.288 7.6-122.261 15.373-184.155 11.124-86.787-5.959-177.055-39.227-211.161-126.237-36.391-92.837 44.929-175.271 115.687-222.653 75.674-50.674 164.871-74.861 252.22-97.155 19.868-5.071 42.54-9.551 57.944-24.159 21.111-20.02 20.707-51.182 19.707-78.175-2.092-56.442-9.357-112.476-9.864-169.032-.5-56.261 5.684-110 20.043-164.4C506.586 1118.694 552.65 1013.7 605.9 915.051c43.538-80.668 97.184-155.373 149.344-230.582 54.2-78.144 110.76-155.613 158.509-237.961 49.142-84.751 71.312-184.092 88.754-279.618 9.379-51.364 16.071-105.337 9.779-157.442-1.036-8.548-14.594-8.648-13.549 0Z"/><path d="M1004.32 17.488a430.65 430.65 0 0 1 32.244 33.412q3.529 4.107 6.937 8.318 1.716 2.122 3.4 4.27.374.476.744.952l.371.477c.454.582-.476-.619-.444-.574.553.755 1.142 1.488 1.708 2.234q6.428 8.476 12.353 17.318 6.867 10.227 13.129 20.84c1.809 3.046 6.177 4.421 9.266 2.429a6.892 6.892 0 0 0 2.43-9.266 410.052 410.052 0 0 0-24.034-36.234 384.368 384.368 0 0 0-29.147-34.564c-6.263-6.592-12.745-12.971-19.379-19.187-2.586-2.423-7.048-2.755-9.578 0-2.415 2.631-2.761 6.99 0 9.578Z"/><path d="M1083.907 107.949c18.7-1.233 37.406-2.4 56.132-3.159 17.954-.732 35.926-1.084 53.894-.8q27.575.444 55.058 2.986c4.581.43 9.164.874 13.73 1.439l1.246.158c1.221.155-1.474-.2.083.01q1.484.206 2.965.429 2.917.439 5.826.946c8.245 1.431 16.428 3.217 24.548 5.24a469.192 469.192 0 0 1 49.108 15.186q2.821 1.042 5.627 2.121c3.314 1.274 7.574-1.4 8.331-4.73.882-3.872-1.181-6.967-4.73-8.331a473.969 473.969 0 0 0-48.748-15.769 331.521 331.521 0 0 0-50.06-9.455q-27.931-2.942-56.036-3.631c-17.956-.453-35.922-.243-53.872.387-18.65.655-37.282 1.75-55.9 2.954q-3.6.233-7.2.47c-3.528.233-6.944 2.949-6.773 6.773.155 3.469 2.987 7.022 6.773 6.772Z"/><path d="M1384.488 19.71c-2.291 15.52-4.588 31.079-8.481 46.295a200.51 200.51 0 0 1-6.361 20.415q-.878 2.35-1.826 4.674c-.157.383-.344.765-.479 1.156.639-1.853.206-.49.03-.084q-.579 1.337-1.184 2.661-2.071 4.523-4.495 8.873a104.067 104.067 0 0 1-5.965 9.451c-.562.791-1.143 1.568-1.722 2.346-.893 1.2.976-1.221.041-.05-.348.435-.693.872-1.045 1.3q-1.86 2.281-3.865 4.439c-2.408 2.6-2.767 7.038 0 9.578 2.617 2.4 7.007 2.776 9.577 0 20.377-22.012 29.332-51.988 34.6-80.87 1.611-8.83 2.923-17.71 4.233-26.588a7.428 7.428 0 0 0-.682-5.218 6.774 6.774 0 0 0-9.266-2.43c-1.378.888-2.862 2.349-3.113 4.048Z"/><path d="M1384.488 23.31c14.073 34.816 22.686 71.837 30.017 108.576 6.834 34.247 12.4 68.841 16.049 103.579 6.98 66.377 11.623 133.426 10.188 200.181-1.107 51.5-6.8 102.531-12.179 153.714q-8 76.183-15.75 152.393-13.652 134.228-26.494 268.536c-8.281 86.936-14.384 173.958-16.539 261.275-1.733 70.273-.617 140.6-2.7 210.865a1520.83 1520.83 0 0 1-10.492 138.786c-4.675 38.338-10.561 76.872-20.536 114.232-3.215 12.039-6.728 24.3-12.1 35.581-2.391 5.021-7 13.664-10.748 14.7-6.2 1.72-8.7-8.109-9.409-14.334-1.789-15.744.259-32.116 1.655-47.81 7.624-85.677 11.9-172.145 7.46-258.149-4.471-86.57-19.438-173.39-46.391-255.877-1.487-4.549-2.99-9.1-4.668-13.585-2.105-5.623-11.717-7.205-13.061 0-16.444 88.139-34.424 176.786-59.77 262.832-17.374 58.98-39.031 117.45-68.825 171.348-7.52 13.6-15.632 26.855-23.361 40.338-4.128 7.2-12.866 19.2-9.814 28.236 2.754 8.158 12.271 8.042 19.37 7.687 11.83-.591 23.638-1.64 35.466-.25 13.2 1.551 26.065 5.87 27.264 20.769 1 12.453-1.691 18.787-14.571 20.779-19.493 3.014-40.382.951-60.053.951h-34.726c-8.716 0-8.73 13.545 0 13.545 29.039 0 58.446 1.438 87.425-.278 10.106-.6 21.9-1.788 29.246-9.625 7.252-7.734 7.03-19.588 5.823-29.4-3.345-27.218-34.08-31.19-56.391-30.98-8.276.078-20.123 2.27-27 1.131 4.529.75-1.249 2.623 1.474.581.937-.7 2.532-5.967 3.066-7.01 4.088-7.992 8.824-15.657 13.394-23.377 62.92-106.285 94.734-225.1 120.848-344.867 8.609-39.482 16.787-79.08 24.2-118.806h-13.061c7.257 19.386 12.821 39.51 18.1 59.5a1002.748 1002.748 0 0 1 28.009 149.418c5.039 47.258 6.532 94.8 5.961 142.3-.523 43.569-1.593 87.382-5.158 130.815-1.674 20.394-4.018 40.743-5.311 61.167-.838 13.241-2.132 28.31 2.233 41.125 6.369 18.7 26.335 19.349 37.011 4.444 14.908-20.813 20.238-50.061 25.5-74.508 8.854-41.119 14.393-83 18.558-124.826 8.025-80.614 7.694-161.379 8.437-242.282.749-81.573 3.524-163.055 9.677-244.411 14.815-195.863 40.072-390.806 57.948-586.374 7.432-81.308 4.637-162.213-2.4-243.4-5.906-68.089-15.3-136-33.168-202.1a445.154 445.154 0 0 0-16.627-50.748c-3.225-7.979-16.332-4.492-13.061 3.6ZM1187.3 322.878c-.782 9.951 7.572 19.554 17.263 21.032 10.784 1.644 20.871-3.706 26.664-12.768 3.136-4.906 4.588-10.457 5.334-16.159a6.73 6.73 0 0 0-1.984-4.789 6.771 6.771 0 0 0-9.577 0 7.975 7.975 0 0 0-1.984 4.789c-.009.07.242-1.55.1-.8-.037.2-.063.4-.1.6q-.122.7-.271 1.4-.3 1.394-.717 2.757c-.257.838-.645 1.651-.88 2.49-.013.044.607-1.348.286-.685-.088.182-.166.37-.252.553q-.3.641-.636 1.264a25.923 25.923 0 0 1-1.349 2.246c-.15.221-1.119 1.535-.417.618.666-.871-.306.339-.5.555a21.21 21.21 0 0 1-1.836 1.824c-.2.173-1.25 1.027-.371.333s-.458.291-.754.479a25.294 25.294 0 0 1-2.222 1.228c-1.076.543 1.318-.474.183-.07-.428.152-.853.308-1.288.44s-2.009.773-2.45.568c-.085-.039 1.6-.159.844-.116-.191.011-.383.038-.575.052a16.77 16.77 0 0 1-1.537.039c-.385-.008-.768-.038-1.152-.065-1.193-.081 1.567.292.086-.014q-.562-.115-1.114-.275c-.3-.088-1.848-.681-.712-.2 1.094.46-.08-.066-.329-.2q-.477-.255-.934-.544c-.2-.128-.394-.276-.6-.4-.623-.375.761.535.648.52-.266-.036-.757-.643-.953-.828q-.524-.494-1-1.036c-.944-1.078.639.981.062.1-.261-.4-.526-.792-.76-1.209-.149-.268-.746-1.578-.284-.466.48 1.152-.124-.42-.2-.686-.116-.4-.2-.8-.288-1.2-.053-.238-.14-.923.018.2.178 1.269.039.074.032-.157a12.556 12.556 0 0 1 .044-1.425c.278-3.54-3.314-6.927-6.773-6.772a6.942 6.942 0 0 0-6.772 6.772Z"/><path d="M1197.7 336.988a63.631 63.631 0 0 1-.421 7.633q-.054.476-.113.95-.147 1.138.051-.376a10.191 10.191 0 0 1-.288 1.9c-.191 1.186-.4 2.369-.623 3.551-.932 4.966-2.064 9.893-2.915 14.875a7.333 7.333 0 0 0 .683 5.219 6.9 6.9 0 0 0 4.047 3.112c3.283.748 7.693-1 8.331-4.73 1.822-10.664 4.872-21.23 4.793-32.131-.026-3.542-3.1-6.937-6.773-6.773a6.887 6.887 0 0 0-6.772 6.773Z"/><path d="M1152.879 355.575c-2.66 9 2.17 18.446 9.9 23.169 7.376 4.507 16.865 4.92 25.081 2.859a37.035 37.035 0 0 0 12.809-5.973 7.364 7.364 0 0 0 3.112-4.047 6.923 6.923 0 0 0-.683-5.219c-1.817-2.818-6.213-4.674-9.266-2.429a32.268 32.268 0 0 1-5.428 3.243q-.383.179-.77.347 1.457-.606.446-.2c-.53.19-1.054.394-1.59.571q-1.4.462-2.847.794c-.548.126-1.1.238-1.655.334q-.312.056-.626.1-.793.12.755-.1a25.379 25.379 0 0 0-3.369.219c-.953.01-1.907-.025-2.856-.109q-.4-.036-.8-.084 1.7.24.6.071c-.463-.09-.927-.167-1.387-.271-.988-.222-1.932-.538-2.893-.848-1.264-.408 1.466.7-.041-.014q-.63-.3-1.239-.641c-.463-.263-.9-.565-1.35-.846q-.862-.624.411.343a15.095 15.095 0 0 1-1.926-1.84q-.673-.808.353.5c-.395-.768-.985-1.446-1.379-2.228a13.888 13.888 0 0 1-.319-.676q.645 1.573.271.578c-.139-.476-.3-.94-.416-1.424q-.084-.36-.147-.724l.136 1.072a5.4 5.4 0 0 1-.082-1.466q0-.366.027-.732.1-1.086-.112.707c.175-.431.211-.983.345-1.436a6.774 6.774 0 0 0-13.061-3.6Z"/><path d="M1196.444 367.4c3.977 10.381 12.913 17.729 23.362 21.131a34.886 34.886 0 0 0 42.044-18.167 7.362 7.362 0 0 0 .682-5.219 6.906 6.906 0 0 0-3.112-4.047c-2.954-1.561-7.72-1.022-9.266 2.43a27.248 27.248 0 0 1-1.429 2.777q-.375.632-.785 1.241-.2.306-.417.6c-.63.885-.021-.018.29-.341a59.577 59.577 0 0 1-4.516 4.559c-.643.542 1.182-.871.5-.383-.2.143-.4.291-.6.432q-.6.426-1.223.819a29.284 29.284 0 0 1-2.893 1.611c-.219.1-1.877.837-.7.335s-.606.208-.909.312a27.833 27.833 0 0 1-3.183.882c-.479.1-.961.186-1.443.268-.542.092-.978-.1.709-.093-.235 0-.5.054-.731.074a25.66 25.66 0 0 1-3.281.075c-.459-.018-.917-.05-1.374-.092a3.179 3.179 0 0 0-.69-.074c.039-.013 1.842.282.762.1a34.886 34.886 0 0 1-3.115-.656q-1.387-.368-2.74-.859c-.452-.164-.894-.371-1.35-.522 2.066.686.2.066-.369-.212a36.9 36.9 0 0 1-5.269-3.205c-.9-.646.489.394.512.4-.181-.032-.692-.568-.832-.688q-.679-.584-1.324-1.205c-.767-.742-1.463-1.536-2.162-2.34-.841-.968.816 1.121.3.4-.169-.237-.344-.469-.509-.708-.328-.475-.641-.962-.934-1.46s-.564-1-.816-1.514a5.139 5.139 0 0 0-.292-.621c.222.058.7 1.747.162.353a7.333 7.333 0 0 0-3.113-4.047 6.91 6.91 0 0 0-5.218-.683c-3.214 1.04-6.087 4.789-4.73 8.331Zm-139.57-115.346c.234-.209.479-.407.723-.6.129-.1.26-.2.388-.307.655-.532-1.635 1.24-1.055.815.092-.067.182-.139.273-.207.438-.325.878-.648 1.325-.961a66.766 66.766 0 0 1 8.515-5.033q1.46-.729 2.948-1.4c.271-.121.544-.239.816-.359 1.072-.471-1.076.442-.659.275.583-.233 1.16-.476 1.745-.7a80.5 80.5 0 0 1 7.655-2.55 83.225 83.225 0 0 1 8.731-1.933q.521-.087 1.042-.167c.321-.049 1.76-.248.513-.082s.069-.007.355-.041q.729-.088 1.46-.165 2.547-.264 5.108-.38a92.383 92.383 0 0 1 11.05.173q1.413.106 2.823.255.755.079 1.507.17c.2.024.4.052.605.075.893.1-1.482-.214-.6-.082 1.753.263 3.5.541 5.239.888a88.522 88.522 0 0 1 9.844 2.554q2.236.72 4.431 1.561c.684.263 1.361.541 2.04.813s-.977-.409-.849-.36c.155.057.306.129.457.195.4.176.8.351 1.2.531a84.559 84.559 0 0 1 14.17 8.107q.66.468 1.312.949.372.274.742.554l.313.238c.8.6-1.254-.981-.651-.5.883.7 1.761 1.4 2.621 2.13q2.337 1.978 4.524 4.126a74.525 74.525 0 0 1 6.25 6.934c.094.119.185.239.279.357.242.3-1.308-1.714-.721-.933.159.211.319.42.476.632.254.343.5.688.751 1.038.292.415.56.846.85 1.261.038.055.071.112.105.169l1.059-8.207c-1.456 1.375-3.012 2.653-4.572 3.907q-.552.444-1.11.881c-.258.2-1.032.8.048-.034 1.148-.886.113-.089-.152.112q-1.426 1.085-2.885 2.129-3.463 2.481-7.09 4.728a114.907 114.907 0 0 1-8.368 4.717q-2.281 1.161-4.62 2.209-.537.241-1.078.475c-.207.09-.416.176-.622.267 1.827-.809 1.089-.455.677-.289-.847.342-1.693.683-2.548 1.006a79.205 79.205 0 0 1-10.548 3.186q-1.3.293-2.611.535-.615.114-1.23.215a5.917 5.917 0 0 0-1.59.243c.034-.023 1.839-.229.734-.1l-.534.062q-.714.083-1.43.146-1.437.129-2.879.188a54.9 54.9 0 0 1-5.636-.057q-1.377-.086-2.747-.244c-1.619-.187 1.316.208.148.024a72.645 72.645 0 0 1-1.67-.278 89.745 89.745 0 0 1-11.527-2.855q-2.51-.808-4.962-1.787c-.354-.142-.705-.292-1.059-.434 2.147.859.621.258.144.045q-1.143-.51-2.266-1.062a61.09 61.09 0 0 1-7.753-4.531q-.831-.575-1.642-1.178c-.142-.1-.282-.213-.423-.318-.613-.454 1.338 1.054.747.578-.3-.244-.61-.482-.911-.728q-1.5-1.226-2.908-2.558a50.948 50.948 0 0 1-4.831-5.259c-.833-1.047.5.453.459.6.024-.088-.45-.6-.513-.682q-.495-.672-.969-1.361-.876-1.276-1.673-2.607a48.974 48.974 0 0 1-2.645-5.07c-.394-.876-.677-1.68.125.328-.157-.392-.318-.782-.47-1.177q-.411-1.068-.77-2.157c-.4-1.226-.758-2.47-1.054-3.727a39.01 39.01 0 0 1-.549-2.78c-.025-.161-.046-.324-.072-.485-.074-.476.3 2.449.18 1.317l-.06-.561c-.007-.064-.011-.129-.015-.194-.215-3.529-2.961-6.943-6.773-6.772-3.485.156-7 2.985-6.772 6.772a41.689 41.689 0 0 0 2.937 12.479 56.9 56.9 0 0 0 17.1 23.714 77.7 77.7 0 0 0 42.832 16.467c15.75 1.09 31.483-4.409 45.051-12.012a124.1 124.1 0 0 0 14.41-9.471 97.646 97.646 0 0 0 8.21-6.692c.105-.1.213-.194.317-.292a6.868 6.868 0 0 0 1.059-8.208 62.35 62.35 0 0 0-8.267-10.328 89.2 89.2 0 0 0-24.139-17.928 97.729 97.729 0 0 0-42.674-10.363 92.182 92.182 0 0 0-38.759 7.934 61.39 61.39 0 0 0-15.894 9.743c-.064.057-.131.111-.195.169a6.815 6.815 0 0 0 0 9.577 6.927 6.927 0 0 0 9.577-.007Z"/><path d="M1274.724 271.654s16.389-19.863 54.712-20.054c38.148-.189 62.3 28.074 62.3 28.074s-23.422 31.855-60.39 33.107c-38.029 1.288-56.622-41.127-56.622-41.127Z" style="fill:#fff"/><path d="M1279.513 276.442a23.347 23.347 0 0 1 2.066-2.119c.858-.8 1.75-1.567 2.665-2.3l.373-.3c.768-.618-.793.613-.851.655.329-.235.646-.49.972-.73q.995-.731 2.02-1.418a73.487 73.487 0 0 1 11.069-5.985c.391-.175-1.7.7-.578.246.31-.126.621-.253.932-.377q.892-.353 1.792-.683 1.887-.693 3.81-1.289a84.731 84.731 0 0 1 8.724-2.2c1.579-.312 3.167-.572 4.759-.808 1.219-.182-1.509.186-.272.036.454-.056.908-.112 1.362-.163q1.295-.145 2.592-.256a97.267 97.267 0 0 1 11.076-.347q2.526.072 5.043.312a9.149 9.149 0 0 1 2.452.272c.09.039-1.61-.227-.869-.117.185.028.37.053.555.08q.645.094 1.286.2a78.83 78.83 0 0 1 9.282 2.113 83.218 83.218 0 0 1 8.294 2.908c.2.083.408.159.6.251.134.063-1.528-.663-.871-.365.293.133.591.257.886.387q1.017.452 2.022.929 1.813.861 3.586 1.8a94.2 94.2 0 0 1 12.13 7.691c.381.284.756.574 1.136.86-2.109-1.586-.456-.35.06.063q1.071.857 2.118 1.745 1.793 1.521 3.5 3.137c1.232 1.165 2.39 2.389 3.554 3.619.052.055.1.114.15.171l-1.059-8.207a2.885 2.885 0 0 0-.2.259c1.065-1.864 1.111-1.418.429-.571a71.395 71.395 0 0 1-2.227 2.629 97.042 97.042 0 0 1-8.691 8.613q-1.484 1.3-3.016 2.538c-.484.392-.976.775-1.465 1.162 2.054-1.628-.066.04-.606.438q-3.606 2.656-7.456 4.957a82.712 82.712 0 0 1-8.573 4.458c-.394.176-.8.381-1.2.525.018-.006 1.683-.692.7-.3l-.461.188q-1.241.5-2.5.958-2.49.9-5.041 1.624t-5.12 1.236q-1.318.265-2.647.478c-.417.067-.839.114-1.254.189 2.3-.419.348-.051-.195.009a56.091 56.091 0 0 1-10.549.241q-.552-.043-1.1-.1c-.28-.029-1.914-.235-.5-.043 1.318.178 0-.005-.327-.057q-.608-.1-1.211-.208-2.3-.424-4.542-1.072-2.185-.63-4.3-1.461c-.314-.123-.625-.253-.939-.379-.731-.294 1.537.676.823.345-.13-.06-.263-.115-.394-.173q-1.044-.465-2.066-.974a56.672 56.672 0 0 1-7.407-4.445q-.78-.55-1.542-1.125c-1.187-.894.954.759.3.234-.28-.224-.562-.446-.84-.672q-1.593-1.3-3.106-2.688a76.628 76.628 0 0 1-5.425-5.524q-1.2-1.345-2.336-2.743a97.73 97.73 0 0 1-1.085-1.358c-.786-.992 1 1.309.434.563-.2-.267-.4-.532-.605-.8a97.651 97.651 0 0 1-8.964-14.734c-.039-.078-.073-.158-.108-.238a6.778 6.778 0 0 0-4.047-3.112 6.923 6.923 0 0 0-5.219.683 6.832 6.832 0 0 0-3.112 4.047 7.861 7.861 0 0 0 .683 5.219 75.479 75.479 0 0 0 7.553 12.879c6.629 9.411 14.77 17.911 24.769 23.765a55.663 55.663 0 0 0 18.484 6.932 65.94 65.94 0 0 0 24.207-.582c13.959-2.773 26.663-9.751 37.669-18.6a99.426 99.426 0 0 0 10.291-9.538q1.533-1.638 2.98-3.353a27.086 27.086 0 0 0 2.557-3.226 3.231 3.231 0 0 1 .195-.258 6.211 6.211 0 0 0 .8-4.319 7.122 7.122 0 0 0-1.863-3.889 69.108 69.108 0 0 0-9.763-9.019 100.843 100.843 0 0 0-29.294-16.351c-14.014-4.9-28.811-5.54-43.421-3.5a83.58 83.58 0 0 0-31.719 10.99 52.457 52.457 0 0 0-12.248 9.7c-.045.052-.09.1-.134.157a7.278 7.278 0 0 0-1.984 4.789 6.888 6.888 0 0 0 1.984 4.788c2.494 2.298 7.165 2.923 9.578.008Zm-192.388-29.061c-1.833 6.767-4.227 14.026-2.994 21.088a6.806 6.806 0 0 0 3.113 4.048 6.774 6.774 0 0 0 9.266-2.43 7.678 7.678 0 0 0 .682-5.219 8.72 8.72 0 0 1-.059-.366l.242 1.8a17.753 17.753 0 0 1 .131-4.523l-.241 1.8a101.863 101.863 0 0 1 2.921-12.6c.925-3.416-1.154-7.516-4.73-8.331a6.9 6.9 0 0 0-8.331 4.73Z"/><path d="M1341.164 273.454c.3 1.29.563 2.587.749 3.9l-.242-1.8c.513 3.825 0 7.593-.313 11.411a6.813 6.813 0 0 0 1.984 4.789 6.774 6.774 0 0 0 9.578 0 7.57 7.57 0 0 0 1.983-4.789c.206-2.519.545-5.04.566-7.569a40.823 40.823 0 0 0-1.244-9.541 6.774 6.774 0 0 0-13.061 3.6Zm-268.338 62.028a100.351 100.351 0 0 1-10.58 2.359c-1.817.312-3.64.591-5.464.852q-1.383.2-2.767.385c-1.506.208 1.34-.177-.055.008l-1.629.216c-8.139 1.079-16.3 2.129-24.256 4.207a6.774 6.774 0 0 0 3.6 13.061c3.757-.981 7.563-1.747 11.394-2.378 1.886-.311 3.777-.592 5.67-.858q.705-.1 1.411-.195l.939-.128-.863.116c1.008-.155 2.025-.269 3.036-.4 7.778-1.033 15.6-2.02 23.164-4.181 3.4-.972 5.864-4.827 4.73-8.331a6.889 6.889 0 0 0-8.331-4.73Zm0 28.155c-19.012 4.395-36.928 12.3-55.291 18.723-3.336 1.167-5.91 4.687-4.73 8.331 1.067 3.3 4.75 5.982 8.331 4.73 18.363-6.422 36.278-14.328 55.291-18.723a6.829 6.829 0 0 0 4.73-8.331 6.921 6.921 0 0 0-8.331-4.73Zm3.816 25.13c-4.154 4.644-8.364 9.258-12.921 13.513q-2.755 2.574-5.673 4.966-1.5 1.236-3.035 2.438c-.521.411-1.034.839-1.572 1.228-.119.086 1.31-1.009.742-.573l-.384.3q-.525.4-1.051.806c-3.256 2.487-6.536 4.943-9.8 7.414a7.424 7.424 0 0 0-3.113 4.047 6.927 6.927 0 0 0 .683 5.219c1.8 2.785 6.243 4.714 9.266 2.429 9.819-7.421 19.792-14.62 28.384-23.483 2.755-2.841 5.417-5.772 8.056-8.721 2.361-2.64 2.8-7.01 0-9.578-2.58-2.368-7.055-2.82-9.578 0Zm232.303 28.285L1321 439.187a6.836 6.836 0 0 0 9.266 2.43 6.915 6.915 0 0 0 2.43-9.266l-12.05-22.135a6.836 6.836 0 0 0-9.266-2.43 6.915 6.915 0 0 0-2.43 9.266Zm21.389-20.1a78.966 78.966 0 0 0 27.3 10.4 7.313 7.313 0 0 0 5.219-.683 6.9 6.9 0 0 0 3.112-4.047c.751-3.3-1-7.673-4.73-8.331a73.741 73.741 0 0 1-13.1-3.558q-.731-.273-1.454-.562-.414-.165-.826-.336 1.4.6.387.161a103.969 103.969 0 0 1-3.032-1.4 74.765 74.765 0 0 1-6.046-3.333 6.773 6.773 0 1 0-6.836 11.695Zm20.908-18.838a152.187 152.187 0 0 0 29.974-1.416 6.75 6.75 0 0 0 4.047-3.112 6.772 6.772 0 0 0-2.429-9.266 7.962 7.962 0 0 0-5.219-.683q-1.14.159.353-.043c-.322.043-.644.084-.966.125q-.724.09-1.45.173-1.693.195-3.392.348-3.516.317-7.045.457-6.936.278-13.873-.128a6.815 6.815 0 0 0-6.773 6.773 6.926 6.926 0 0 0 6.773 6.772Zm-290.391 820.208a878.668 878.668 0 0 0-34.2 172.94 1007.073 1007.073 0 0 0-2.717 153.516c2.389 42.624 7.269 85.053 13.528 127.271 2.471 16.671 5.164 33.306 7.861 49.942a3263.852 3263.852 0 0 1 3.442 21.555q.741 4.772 1.445 9.548.333 2.265.653 4.53.155 1.1.307 2.2l.119.869c.231 1.678-.026-.208.018.131 1.252 9.576 2.464 19.244 2.438 28.919a72.305 72.305 0 0 1-.189 5.267c-.059.783-.187 1.568-.23 2.352-.046.842.373-2.172.058-.481-.077.417-.137.836-.219 1.251a35.375 35.375 0 0 1-.994 3.667c-.52 1.683.957-1.618-.044.064-.256.431-.548.877-.777 1.321-.552 1.067 1.426-1.6.071-.151-.152.163-.356.3-.5.474-.815 1 1.542-.824.626-.482a4.63 4.63 0 0 0-1.107.622c.239-.271 2-.588.925-.407a5.187 5.187 0 0 0-.8.227c-1.682.6 1.895.042.211-.02a48.1 48.1 0 0 0-1.937-.042c-1.5 0 1.51.364.674.1-.325-.1-.7-.125-1.032-.2-.784-.178-1.532-.44-2.3-.684-1.438-.458-.227.337.351.172-.182.052-.79-.359-.956-.446-.762-.4-1.517-.8-2.25-1.251s-1.449-.963-2.166-1.459c-1.358-.939.537.5.061.059-.381-.352-.812-.661-1.206-1a73 73 0 0 1-9.024-9.674c1.417 1.747.024.026-.294-.4q-.572-.766-1.13-1.542-1.218-1.694-2.377-3.43-2.436-3.64-4.651-7.424c-3.329-5.648-6.349-11.476-9.168-17.393q-2.391-5.018-4.593-10.12-.561-1.3-1.112-2.6c.586 1.385-.489-1.18-.647-1.564q-1.122-2.723-2.2-5.461c-3.172-8.033-6.092-16.164-8.819-24.359-13.388-40.234-22.486-81.907-29.06-123.76a1019.93 1019.93 0 0 1-12.125-153.813c-.238-56.241 4.013-112.594 13.847-167.991q3.692-20.793 8.433-41.378c1.953-8.484-11.1-12.105-13.062-3.6-13.115 56.963-20.168 115.3-22.175 173.7a1036.188 1036.188 0 0 0 7.168 161.916c5.586 45.429 13.9 90.656 26.542 134.678 8.9 31.016 19.583 62.752 36.413 90.482 5.283 8.7 11.392 17.548 19.337 24.047 6.181 5.056 14.172 9.375 22.429 7.606 15.193-3.253 13.993-24.509 13.193-36.149-1.832-26.649-7.147-53.134-11.373-79.472-2.926-18.233-5.728-36.486-8.211-54.785.031.225-.287-2.129-.17-1.254s-.2-1.494-.168-1.264q-.242-1.817-.479-3.634-.53-4.052-1.038-8.106-.947-7.555-1.814-15.122-1.882-16.428-3.36-32.9a1072.907 1072.907 0 0 1-3.327-149.023 882.062 882.062 0 0 1 24.8-169.47q5.47-21.916 12.11-43.514c2.562-8.353-10.508-11.924-13.062-3.6Z"/><path d="M890.91 1762.211H999.1c4.991 0 10 .108 14.984 0h.215c3.543 0 6.937-3.115 6.773-6.772a6.891 6.891 0 0 0-6.773-6.773h-108.19c-4.991 0-10-.108-14.984 0h-.215c-3.543 0-6.937 3.115-6.773 6.773a6.891 6.891 0 0 0 6.773 6.772Zm362.678-1076.847a99.268 99.268 0 0 1 2.648 9.643q.525 2.386.931 4.8c.142.841.264 1.685.392 2.529.132.871-.181-1.475-.027-.186.055.462.112.924.163 1.386a98.692 98.692 0 0 1 .154 19.974c-.329 3.538 3.35 6.926 6.773 6.772 3.95-.177 6.42-2.982 6.772-6.772a103.817 103.817 0 0 0-4.745-41.743c-1.1-3.36-4.732-5.894-8.331-4.73-3.353 1.085-5.913 4.727-4.73 8.331Zm-34.571 24.752-7.9 42.1a7.276 7.276 0 0 0 .682 5.219 6.9 6.9 0 0 0 4.048 3.112c3.331.759 7.632-1.007 8.331-4.73l7.9-42.1a7.271 7.271 0 0 0-.683-5.219 6.9 6.9 0 0 0-4.047-3.112c-3.331-.759-7.632 1.007-8.331 4.73Zm-61.994 71.584q.171.966.305 1.937l-.242-1.8a43.181 43.181 0 0 1 .006 10.948l.242-1.8a43.283 43.283 0 0 1-2 8.376c-1.162 3.35 1.324 7.555 4.73 8.331a6.939 6.939 0 0 0 8.331-4.731 49.346 49.346 0 0 0 1.686-24.861 6.808 6.808 0 0 0-3.113-4.047 6.772 6.772 0 0 0-9.266 2.429 7.656 7.656 0 0 0-.682 5.219Zm32.767 59.212a39.46 39.46 0 0 1-.043 9.863l.242-1.8a39.56 39.56 0 0 1-2.3 8.894 6.814 6.814 0 0 0 .683 5.218 6.771 6.771 0 0 0 9.266 2.43 7.782 7.782 0 0 0 3.113-4.048 43.21 43.21 0 0 0 2.585-20.556 7.409 7.409 0 0 0-1.983-4.789 6.772 6.772 0 0 0-9.578 0c-1.13 1.23-2.2 3.05-1.984 4.789Zm31.632 11.01q.277 1.335.459 2.683l-.242-1.8a35.3 35.3 0 0 1-.015 8.823l.242-1.8a35.183 35.183 0 0 1-1.791 7.254 6.773 6.773 0 0 0 9.949 7.648 7.608 7.608 0 0 0 3.112-4.048 41.07 41.07 0 0 0 1.347-22.36c-.724-3.474-5-5.807-8.331-4.731a6.936 6.936 0 0 0-4.73 8.331Zm-70.734 109.909a114.666 114.666 0 0 0-12.818 41.036 6.75 6.75 0 0 0 1.983 4.789 6.772 6.772 0 0 0 9.578 0 7.871 7.871 0 0 0 1.984-4.789c.053-.446.126-.9.166-1.343l-.122.907q.046-.336.1-.67.178-1.227.387-2.45.4-2.334.9-4.649 1.029-4.738 2.493-9.368.712-2.258 1.529-4.482a25.618 25.618 0 0 1 1.729-4.408c-.9 1.479-.166.4.028-.04q.226-.518.459-1.03.51-1.131 1.048-2.248a107.95 107.95 0 0 1 2.256-4.419c1.679-3.118.881-7.516-2.43-9.266-3.151-1.665-7.472-.9-9.266 2.43Zm-8.818 141.934-2.922 30.69c-.337 3.537 3.356 6.926 6.773 6.773 3.957-.178 6.411-2.984 6.772-6.773l2.922-30.69c.337-3.538-3.355-6.926-6.772-6.773-3.958.177-6.412 2.983-6.773 6.773Zm-27.157 89.314v4.695a6.961 6.961 0 0 0 6.773 6.773l1.8-.242a6.761 6.761 0 0 0 2.989-1.742l1.059-1.37a6.742 6.742 0 0 0 .924-3.419v-4.695a6.963 6.963 0 0 0-6.772-6.773l-1.8.242a6.772 6.772 0 0 0-2.988 1.742l-1.059 1.371a6.737 6.737 0 0 0-.925 3.418Zm82.625-213.604-2.755 25.782a6.763 6.763 0 0 0 1.984 4.789 6.771 6.771 0 0 0 9.577 0 7.761 7.761 0 0 0 1.984-4.789l2.755-25.782a6.768 6.768 0 0 0-1.983-4.789 6.772 6.772 0 0 0-9.578 0 7.772 7.772 0 0 0-1.984 4.789ZM1140.542 630.1l-6.656 30.606c-.751 3.453 1.031 7.488 4.731 8.331 3.416.778 7.525-1.028 8.33-4.73l6.653-30.607c.751-3.454-1.031-7.489-4.73-8.331-3.417-.779-7.526 1.028-8.331 4.73Zm-25.829 203.761v28.174c0 3.543 3.115 6.937 6.773 6.773a6.891 6.891 0 0 0 6.772-6.773v-28.174c0-3.542-3.115-6.936-6.772-6.772a6.89 6.89 0 0 0-6.773 6.772Zm-9.136 444.292-16.8 49.18c-1.146 3.355 1.312 7.552 4.73 8.331a6.936 6.936 0 0 0 8.331-4.731l16.8-49.18a6.819 6.819 0 0 0-4.731-8.331 6.937 6.937 0 0 0-8.331 4.731Zm-3.787-229.072a64.879 64.879 0 0 1 1.286 6.628l-.241-1.8a62.971 62.971 0 0 1 .015 16.611l.242-1.8-.063.446a7.466 7.466 0 0 0 .683 5.218 6.771 6.771 0 0 0 9.266 2.43c1.371-.884 2.875-2.353 3.112-4.048a71.162 71.162 0 0 0-1.239-27.285 6.841 6.841 0 0 0-8.331-4.73 6.91 6.91 0 0 0-4.73 8.331Zm85.71 10.172v18.782c0 3.543 3.115 6.937 6.772 6.773a6.891 6.891 0 0 0 6.773-6.773v-18.782c0-3.543-3.115-6.937-6.773-6.773a6.891 6.891 0 0 0-6.772 6.773Z"/></g><defs><clipPath id="b"><path d="M0 0h1247.23v2024.441H0z"/></clipPath></defs><g clip-path="url(#b)" transform="translate(1520.0 502.0) rotate(0.0 657.0 1066.0) scale(1.0535346327461654 1.0531302221205754) translate(-0.0 -0.0)"><path d="M368.5 55.044s33.19 40.77 48.284 54.663 6.247 15.508 56.414 3.5 93.679-22.746 149.3-23.881l55.174-1.126 27.389-81.493s20.549 33.816 33.291 57.278 49.181 95.022 71.185 165.505S872.58 410.571 904 469.471s132.506 234.307 144.838 259.47 106.242 178.323 139.655 319.95 46.055 269.281 48.084 347.5 1.7 158.413-22.889 197.37-32.3 39.458-70.616 44.71-52.475 1.532-45.751 24.716 35.431 79.753 9.513 133.877-52.944 105.174-93.883 130.339-98.312 51.94-158.54 60.4-166.665 14.1-253 8.721-217.36-15.4-272.222-8.807-170.821 33.043-216.4 29.895-87.335 3.279-102.989-35.851 18.782-70.435 59.478-82.957 100.174-48.521 253.565-28.174 288 45.392 333.392 45.392 151.826 21.913 225.391-14.087 125.217-59.479 144-95.479 37.565-70.434 12.522-98.608-17.413-65.179-114.265-63.139-399.141 4.293-419.354 3.368-83.077-7.251-78.381-24.751 26.608-34.435 36-53.217 21.929-18.767-9.613-75.774-81.864-127.853-87.154-192.739-19.06-89.922 4.419-169.748 41.082-232.493 39.13-241.044-69.463-52.494-113.861-92.555-119.959-98.321-168.961-178.97S8.8 450.446 37.976 433.526c20.125-11.669 31.3 22.148 98.608 91.017s131.479 137.74 180 170.609 90.4 61.279 90.4 61.279 6.766-63.878-6.794-134.844S372 433.725 368.5 347.674s-3.374-190.957-3.374-190.957Z" style="fill:#fff"/><path d="M473.009 117.022a14.767 14.767 0 0 0-2.732 3.357c-6.374 10.409-1.97 24.741 6.916 33.108s21.1 12.067 32.961 14.941c30.826 7.471 63.66 11.075 93.983 1.77s57.516-33.864 62.4-65.2c.5-3.187.741-6.569-.543-9.528-3.4-7.839-14.328-7.908-22.788-6.7l-102.592 14.693m94.524 254.547c60.177-17.813 130.6-8.616 176.8 33.856 12.633 11.612 23.551 26.081 26.751 42.939s-2.964 36.244-17.794 44.874c-6.724 3.913-14.591 5.382-22.341 6.051-47.408 4.091-94.7-19.289-141.644-11.5-51.456 8.544-91.91 52.872-143.625 59.679-17.1 2.251-37.04-1.191-46.454-15.646-24.321-37.345 26.12-66.458 48.005-86.676 35.022-32.346 74.089-59.897 120.302-73.577Zm124.695 212.183c66.66-8.476 139.818 11.371 182.366 63.381 10.515 12.852 19.315 29.687 14.377 45.541-7.532 24.179-39.523 28.727-64.781 26.9-31.2-2.259-62.312-7.421-93.575-6.254-61.511 2.295-119.255 28.771-174.488 55.94-24.5 12.053-51.085 24.689-77.963 19.876-4.749-.85-9.633-2.38-12.951-5.882-3.743-3.949-4.835-9.674-5.387-15.088-11.247-110.227 143.34-173.09 232.402-184.414Zm247.607 273.418c19.168 6.4 39.122 15.339 49.509 32.675 18.743 31.285-4.957 73.715-37.881 89.4s-71.133 13.077-107.6 13.4a612.273 612.273 0 0 0-218.646 42.556c-15.706 6.195-31.553 13.136-48.412 14.059s-35.35-5.634-43.395-20.478c-4.255-7.85-5.159-17.1-4.8-26.023 3.131-77.834 93-121.948 156.349-143.5 81.779-27.833 172.754-29.526 254.876-2.089Zm-110.655 237.995c66.991-8.459 139.3 2.817 191.854 45.216 11.2 9.039 21.7 19.88 26.266 33.531s1.773 30.579-9.731 39.233c-8.017 6.031-18.616 7.163-28.642 7.514-79.062 2.77-158-29.452-235.923-15.793-50.729 8.892-96.305 36.586-146.3 48.947-25.318 6.259-69.1 4.986-72.207-30.2-2.642-29.934 36.28-59.471 58.158-69.62 67.279-31.209 142.561-49.488 216.525-58.828ZM389.609 1147.5c9.022-10.324 32.117-21.779 51.65-21.167 31.108.974 51.144 32.746 51.145 63.869 0 9.14-2.424 18.844-9.2 24.983-6.417 5.816-16.185 5.492-23.866 9.491-29.34 15.28-43.178 35.924-52.922 62.79-5.378 14.825-8.414 34.961-23.962 37.605-1.9.324-3.666-.61-5.584-.808-14.093-1.454-16.889-77.2-14.128-101.529 3.558-31.278 6.323-51.721 26.867-75.234Zm31.821 197.09c17.108-14.7 46.441-16 60.633 1.525 13.983 17.273 8.258 42.769.379 63.549-8.259 21.78-24.722 53.356-36.108 73.679-11.576 1.057-36.691-57.686-41.361-73.669-6.78-23.202-1.673-49.507 16.457-65.084Zm-288.067 538.325c-6.423 3.21-12.681 7.087-17.27 12.609-10.094 12.149-10.219 29.674-7.706 45.268a175.158 175.158 0 0 0 25.307 66.325c1.9 2.975 4.006 5.994 7.073 7.746 4.18 2.387 9.345 1.988 14.1 1.25 36.441-5.659 63.89-16.3 105.369-18.7 3.242-.188 8.758-6.9 10.747-9.47 1.3-1.676 1.368-3.967 1.348-6.087a207.088 207.088 0 0 0-22.188-91.19c-3.287-6.5-7.041-12.973-12.645-17.626-23.374-19.409-80.321-2.025-104.135 9.875Zm255.972 100.59c30.072 8.075 51.935 3.631 83.03 5.254 2.709.142 14.566 2.834 16.434.867 7.369-7.753 3.152 1.344 3.242-1.823q.749-26.126 1.076-52.26c.578-46.122-56.612-64.668-96.828-51.911-35.825 11.368-44.458 89.802-6.954 99.873Zm309.87-14.522c-.018 8.067.337 17.074 6.1 22.719 4.41 4.321 10.926 5.536 17.051 6.305a233.754 233.754 0 0 0 74.144-2.586c10.406-2.051 21.262-5.151 28.491-12.912 11.727-12.589 9.8-32.483 5.084-49.03-1.463-5.135-3.435-10.634-7.964-13.461-3.444-2.15-7.723-2.326-11.782-2.415-26.7-.587-64.81-6.109-90.521 2.1-25.295 8.078-20.548 24.447-20.603 49.28Zm240.843-23.168c5.01 6.838 14.321 9.473 22.734 8.437s16.114-5.172 23.281-9.7c27.686-17.484 54.127-36.156 69.9-64.852 2.226-4.05 15.489-7.64 13.835-11.955-.9-2.35-17.222-11.262-19.062-12.979q-9.548-8.918-19.1-17.833c-3.068-2.865-6.234-5.794-10.136-7.343-5.731-2.277-12.686-2.306-18.12.61-24.076 12.921-49.753 34.951-70.348 47.882-21.4 13.438-9.37 45.363 7.016 67.733Z" style="fill:#ff7900"/><path d="M360.4 53.447c-2.545 39.5-1.33 79.067-2.327 118.606q-.63 25.019-.449 50.008c.488 55.054 2.184 110.143 5.463 165.1 6.735 112.89 26.421 224.564 34.954 337.338 4.929 65.129 6.677 130.243 2.02 195.434-3.36 47.04-8.023 94.1-18.791 140.1-8.135 34.747-17.132 68.895-21.216 104.468-7.064 61.541-3.707 125.268 13.731 184.887C390.932 1408.03 424.91 1460 452.07 1514.3c5.539 11.072 12.473 23.268 14.179 35.752 1.67 12.227-10.142 21.411-19.94 29.994-13.809 12.1-31.074 27.349-26.222 47.844a25.075 25.075 0 0 0 11.176 15.708c7.732 4.9 17.352 6.546 26.251 7.812 16.927 2.41 34.1 3.037 51.165 3.583 67.51 2.158 135.234 2.419 202.763 1.4 64.452-.971 128.861-4.018 193.313-4.812 18.81-.232 38-.766 56.724 1.487 13.26 1.6 21.437 7.964 31.748 17.2 17.82 15.962 34.143 35.7 42.723 58.268 9.188 24.17 5.388 46.119-9.256 67.015-30.291 43.225-79.86 73.913-128.128 93.075-62.331 24.744-127.352 27.934-193.6 24.61-128.917-6.467-255.056-35.515-383.114-49.443-50.8-5.524-100.7-7.344-151.155 1.695-30.913 5.538-61.877 12.287-91.5 22.869-21.061 7.524-42.618 16.958-59.262 32.285-25.832 23.789-28.524 66.711 3.624 86.53 18.787 11.583 42.386 14.793 63.97 16.377 30.837 2.263 61.984-.011 92.582-4.02 31.936-4.184 62.788-12.043 94.289-18.345 26.836-5.369 54.343-7.144 81.654-7.894 66.056-1.813 132.2 2.889 198.08 7.067 62.9 3.989 126.147 9.235 189.2 6.435 61.46-2.729 123.852-10.873 182.714-29.253 25.875-8.08 51.743-18.274 74.579-33.065 24.473-15.853 45.935-36.361 64.15-59.051 33.894-42.22 63.409-97.988 56.31-153.825-2.86-22.5-10.209-43.237-15.99-65-1.074-4.044-3.382-10.485-.755-14.4 3.337-4.967 14.193-5.316 19.3-5.822 20.9-2.073 45.046 1.2 65.11-6.207 14-5.169 19.7-18.941 25.429-31.62 12.793-28.3 19.03-59.146 23.869-89.669 4.3-27.138 7.818-54.618 8.808-82.1 1.766-49.057-2.983-98.333-9.026-146.959-8.537-68.7-19.346-137.683-33.874-205.38-14.237-66.345-37.174-130.269-65.413-191.881-27.971-61.028-60.614-119.75-91.984-179.057-34.635-65.48-68.489-131.115-105.1-195.54-32.777-57.674-66.51-115.449-89.225-178-23.947-65.945-38.749-135.6-67.46-199.752-21.145-47.238-46.79-92.848-73.867-136.922-4.555-7.415-16.276-.619-11.7 6.836 27.748 45.165 54.156 91.959 75.464 140.532 28.372 64.679 42.656 134.945 67.483 201 22.8 60.66 55.676 116.972 87.6 173.15C965.808 588.231 999.2 652.81 1033.254 717.3c62.81 118.93 128.475 236.249 157.262 369 14.847 68.462 25.842 138.363 34.308 207.894 5.784 47.509 10.28 95.646 8.453 143.556-1.1 28.842-4.846 57.728-9.708 86.151-4.972 29.071-11.574 57.916-24.257 84.672-6.481 13.671-11.852 19.623-27.284 21.336-21.915 2.433-47.015-1.35-67.88 6.769-13.225 5.145-15.878 16.49-13.135 29.384 4.33 20.36 12.428 39.523 15.744 60.224 9.246 57.712-21.718 115.162-58.309 157.688-19.105 22.2-41.352 42.044-67.1 56.22-24.676 13.588-51.633 22.777-78.775 30.025-59.738 15.951-122.137 22.841-183.874 23.766-128.2 1.92-255.944-20.522-384.239-13.351-59.575 3.329-116.239 22.021-175.519 27.779-29.287 2.845-59.5 4.158-88.7-.278-17.4-2.642-40.761-7.347-51.3-23.17-9.148-13.734-7.136-32.76 2.255-45.657 12.415-17.051 33.889-27.182 52.958-34.661 27.9-10.941 57.34-17.884 86.7-23.59 25.781-5.011 51.208-8.653 77.5-8.809 55.2-.327 110.374 7.758 164.83 15.921 63.881 9.574 127.574 20.417 191.676 28.466 63.371 7.958 127.982 14.175 191.9 10.535a371.471 371.471 0 0 0 175.59-55.8c21.1-13.27 41.107-28.835 58.159-47.07 14.308-15.3 29.1-33.7 33.086-54.784 8.595-45.492-26.311-90.286-60.081-116.591-10.3-8.021-19.124-11.941-32.032-13.4-18.368-2.081-37.079-1.715-55.529-1.5-63.6.734-127.158 3.756-190.755 4.769-67.682 1.078-135.531.763-203.2-1.241-16.939-.5-34.065-.925-50.882-3.2-8.213-1.111-17.542-2.437-23.763-6.943a9.282 9.282 0 0 1-3.4-4.291c.183.419-.434-1.1-.746-2.563a14.4 14.4 0 0 1-.054-7.492c2.388-11.082 13.777-19.6 21.821-26.642 7.8-6.834 16.792-13.768 21.686-23.151 10.94-20.972-7.108-48.568-16.361-66.64-28.851-56.348-63.217-110.542-78.219-172.681-14.305-59.252-15.372-122.126-5.934-182.245 5.035-32.073 14.288-63.118 21.035-94.818 10.576-49.693 14.711-100.742 17.782-151.362 7.51-123.8-9.088-248.547-24.327-371.17-12.857-103.457-18.795-207.009-19.512-311.272-.113-16.325.228-32.594.579-48.912.822-38.245-.225-76.515 2.236-114.716.56-8.7-12.987-8.67-13.545 0Z"/><path d="M362.65 58.462a204.841 204.841 0 0 0 23.663 31.085c7.941 8.626 16.543 16.6 25.193 24.505 5.211 4.76 10.436 9.5 15.58 14.336 2.583 2.427 7.051 2.753 9.578 0 2.418-2.634 2.758-6.987 0-9.578-17.4-16.342-35.871-31.692-50.744-50.493q-.321-.4-.64-.813c-1.041-1.331.729.964-.087-.108-.507-.668-1.015-1.335-1.517-2.008q-1.656-2.222-3.246-4.494-3.179-4.543-6.085-9.268c-1.859-3.014-6.141-4.445-9.266-2.43-3.023 1.949-4.42 6.04-2.429 9.266Z"/><path d="M423.374 134.458a357.322 357.322 0 0 1 45.926-13.493c17.493-4.039 35.184-7.2 52.936-9.859q6.966-1.044 13.949-1.985c.414-.057 1.314-.171-.563.075l.825-.11 1.652-.218q1.86-.244 3.722-.483 3.52-.45 7.044-.878 13.884-1.686 27.8-3.058c18.156-1.8 36.346-3.261 54.55-4.475q24.558-1.637 49.145-2.744 2.8-.129 5.6-.255c3.534-.158 6.942-3 6.773-6.772-.159-3.534-2.982-6.942-6.773-6.773q-24.192 1.081-48.363 2.584-27.187 1.728-54.318 4.248C564.068 92.081 544.9 94.286 525.792 97c-18.008 2.557-35.958 5.6-53.731 9.475a390.8 390.8 0 0 0-47.033 13q-2.639.931-5.255 1.921a7.315 7.315 0 0 0-4.047 3.112 6.913 6.913 0 0 0-.683 5.219c1.045 3.228 4.782 6.069 8.331 4.73Z"/><path d="M683.519 91.614a382.759 382.759 0 0 0 23.741-64.961q2.414-9.012 4.332-18.145c.721-3.459-1.01-7.484-4.73-8.331-3.391-.777-7.562 1.023-8.331 4.73a373.122 373.122 0 0 1-19.8 64.206q-.414 1.019-.834 2.034l-.42 1.011-.253.6q-.424 1.011.175-.413a9.973 9.973 0 0 0-.853 1.995q-.428.989-.86 1.976-1.869 4.257-3.862 8.457a7.274 7.274 0 0 0-.683 5.227 6.907 6.907 0 0 0 3.112 4.047c3.014 1.593 7.645.988 9.266-2.429ZM410.4 876.406q-33.272-21.66-64.807-45.834-6.939-5.313-14.585-11.393-7.577-6.027-15.046-12.185-14.743-12.155-29.07-24.8-27.753-24.5-53.91-50.728-24.753-24.807-48-51.055-21.6-24.387-41.778-49.98-2.4-3.042-4.768-6.1c-.268-.345-1.293-1.672-.508-.655l-1.038-1.347-2.4-3.135q-4.547-5.958-9-11.98-8.544-11.544-16.745-23.337c-9.882-14.228-19.369-28.735-28.3-43.582-7.541-12.542-14.7-25.328-21.184-38.45-2.719-5.5-5.317-11.065-7.737-16.7l-.374-.875c-.551-1.285.534 1.285.133.315-.276-.667-.556-1.332-.829-2q-.768-1.877-1.506-3.766-1.389-3.559-2.649-7.166c-1.461-4.2-2.778-8.462-3.822-12.788a85.616 85.616 0 0 1-1.164-5.579q-.108-.628-.2-1.258c-.029-.19-.055-.38-.085-.57-.2-1.248.214 1.8.115.868-.087-.807-.19-1.61-.257-2.419a38.952 38.952 0 0 1-.13-4.388c.021-.657.08-1.309.128-1.964.108-1.466-.23 1.3-.115.777.066-.3.1-.609.155-.911.107-.55.236-1.1.4-1.634.073-.245.164-.485.238-.73.367-1.219-.136.43-.349.773.254-.408.417-.88.669-1.294.115-.189.269-.368.369-.563.437-.849-1.448 1.556-.562.732.312-.291.658-.625.943-.942.689-.767-1.59.926-.792.613.186-.072.354-.238.535-.328 1.169-.577-2.174.669-.413.214 1.692-.437-1.993-.048-.465.053.207.014.435.011.641 0 .1 0 .2.025.3.021 1.01-.041-1.214-.16-1.281-.182.464.158 1 .186 1.481.32.543.153 1.058.372 1.592.549.906.3-2-.942-.686-.281.3.149.6.285.9.436a36.878 36.878 0 0 1 3.756 2.228q1.037.692 2.043 1.43c.344.25.682.508 1.023.761 1.148.852-1.532-1.22-.076-.057 3.376 2.7 6.6 5.577 9.736 8.55 8.58 8.13 16.642 16.8 24.632 25.508 10.552 11.493 20.93 23.145 31.353 34.755q18.806 20.944 37.884 41.643 21.739 23.44 44.225 46.174 24.6 24.773 50.376 48.349 27.4 24.965 56.339 48.164c20.335 16.23 41.265 31.748 62.865 46.271q15.858 10.661 32.195 20.579a6.773 6.773 0 1 0 6.837-11.7c-22.466-13.634-44.249-28.373-65.37-44.006-20.024-14.821-39.585-30.587-58.988-47.329Q255.8 638.8 229.765 613.5q-24.286-23.5-47.534-48.049-20.76-21.832-40.924-44.222c-11.492-12.694-22.883-25.478-34.351-38.194-9.09-10.078-18.206-20.149-27.7-29.856-6.855-7.014-13.907-13.906-21.8-19.756-5.219-3.867-11.737-7.7-18.487-6.356-6.019 1.2-9.979 6.964-11.112 12.682-1.442 7.278-.3 14.813 1.366 21.954 2.336 10.017 6.085 19.657 10.095 29.105 5.106 12.032 10.994 23.725 17.267 35.188 7.752 14.165 16.127 27.986 24.9 41.542 10.156 15.7 20.857 31.038 31.97 46.07q19.085 25.813 39.675 50.473 21.879 26.24 45.289 51.151 24.933 26.553 51.47 51.538 27.945 26.3 57.6 50.712 30.931 25.432 63.636 48.611 16.008 11.316 32.441 22.011c3.066 2 7.483.619 9.266-2.429a6.891 6.891 0 0 0-2.43-9.266Zm82.951-762.452a48.882 48.882 0 0 1 2.033 3.729c.31.635.566 1.3.888 1.929-.917-1.785.064.2.269.747a48.968 48.968 0 0 1 2.29 8.393c.062.348.121.7.176 1.047.041.256.23 1.528.059.362-.177-1.2.013.213.029.366q.055.528.1 1.058.174 2.118.163 4.244t-.21 4.242c-.033.352-.075.7-.111 1.056-.125 1.249.19-1.187.045-.327-.129.769-.252 1.537-.4 2.3-.681 3.466.981 7.477 4.73 8.331 3.356.765 7.6-1.013 8.331-4.73a56.019 56.019 0 0 0-6.693-39.585c-1.823-3.038-6.168-4.428-9.266-2.43a6.889 6.889 0 0 0-2.43 9.266Zm38.781-3.474a120.208 120.208 0 0 1 2.105 4.5c.651 1.451-.575-1.428.023.045l.425 1.046q.461 1.154.891 2.318a94.952 94.952 0 0 1 2.944 9.483c.818 3.215 1.43 6.464 1.938 9.74.2 1.27-.132-1.108-.028-.235.044.374.093.747.137 1.121q.143 1.233.252 2.47c.154 1.725.256 3.453.318 5.183.126 3.536 3.024 6.94 6.772 6.772 3.561-.159 6.908-2.98 6.773-6.772a103.537 103.537 0 0 0-10.854-42.506c-1.582-3.179-6.334-4.32-9.266-2.43a6.941 6.941 0 0 0-2.43 9.266Zm43.886-4.613a79.225 79.225 0 0 1 3.028 11.843q.138.8.26 1.6c.07.461.162 1.937.015.029.077 1 .235 1.988.324 2.984a80.33 80.33 0 0 1 .307 6.224c.041 3.541 3.084 6.938 6.772 6.773a6.885 6.885 0 0 0 6.773-6.773 85.522 85.522 0 0 0-4.418-26.276c-1.132-3.349-4.711-5.9-8.331-4.73-3.327 1.077-5.945 4.738-4.73 8.331ZM607.479 102a126.277 126.277 0 0 1 6.143 20.026q.543 2.5.984 5.03.221 1.263.414 2.53.107.69.205 1.383c.142 1 .019.532-.023-.184.21 3.563.753 7.1.909 10.676.154 3.535 3 6.942 6.772 6.773 3.537-.159 6.938-2.982 6.773-6.773A131.689 131.689 0 0 0 620.54 98.4a7.4 7.4 0 0 0-3.112-4.047 6.913 6.913 0 0 0-5.219-.683c-3.173 1.027-6.137 4.809-4.73 8.331ZM483.657 487.42a109.983 109.983 0 0 1 9.637 17.853l-.683-1.618q.759 1.8 1.459 3.625a7.334 7.334 0 0 0 3.112 4.047 6.913 6.913 0 0 0 5.219.683c3.213-1.04 6.088-4.789 4.73-8.331a117.406 117.406 0 0 0-11.778-23.1c-1.961-2.944-6.068-4.491-9.266-2.429-2.936 1.892-4.53 6.112-2.43 9.266Zm29.879-27.352 12.16 33.146a7.282 7.282 0 0 0 3.112 4.048 6.918 6.918 0 0 0 5.219.682c3.255-1.053 6.037-4.77 4.73-8.331L526.6 456.468a7.279 7.279 0 0 0-3.113-4.048 6.914 6.914 0 0 0-5.218-.682c-3.255 1.053-6.037 4.77-4.73 8.33ZM564.5 435.92c.342.8.017.065-.13-.317.141.366.3.726.453 1.088q.359.872.708 1.747.788 1.969 1.524 3.958 1.435 3.865 2.684 7.8 2.5 7.863 4.234 15.935a6.824 6.824 0 0 0 8.331 4.731 6.931 6.931 0 0 0 4.73-8.331 183.713 183.713 0 0 0-10.834-33.448 6.763 6.763 0 0 0-4.048-3.112 6.92 6.92 0 0 0-5.218.683 6.837 6.837 0 0 0-3.113 4.047 7.943 7.943 0 0 0 .683 5.219Zm27.536-18.015 7.575 38.864c.68 3.485 5.035 5.8 8.331 4.731a6.947 6.947 0 0 0 4.731-8.331L605.1 414.3c-.679-3.484-5.034-5.8-8.331-4.73a6.945 6.945 0 0 0-4.73 8.331Zm44.282-23.405a189.966 189.966 0 0 1 5.147 24.167c.069.476.134.951.2 1.427q.108.78-.082-.611c.042.317.082.635.122.952q.18 1.43.338 2.861.342 3.1.581 6.215.477 6.225.541 12.47c.04 3.541 3.086 6.937 6.773 6.772a6.885 6.885 0 0 0 6.772-6.772 197.28 197.28 0 0 0-7.33-51.081c-.96-3.408-4.837-5.861-8.331-4.73a6.892 6.892 0 0 0-4.731 8.331Zm46.005 3.445a101.805 101.805 0 0 1 3.23 10.628q.66 2.7 1.169 5.432.255 1.365.473 2.738c.072.457.137.916.208 1.374.218 1.409-.188-1.531.034.265a101.6 101.6 0 0 1 .26 22.411c-.348 3.536 3.364 6.925 6.773 6.772 3.967-.177 6.4-2.984 6.772-6.772a106.435 106.435 0 0 0-5.857-46.449c-1.207-3.321-4.658-5.919-8.331-4.73-3.264 1.056-6.026 4.766-4.731 8.331Zm45.77 15.279 6.953 27.024a6.774 6.774 0 0 0 13.061-3.6l-6.953-27.023a6.774 6.774 0 0 0-13.061 3.6Zm48.5 10.434a140.526 140.526 0 0 1 4.275 16.078c.535 2.643.98 5.3 1.374 7.967.191 1.294-.126-1.025-.017-.151.039.315.081.629.12.944q.13 1.062.246 2.126.228 2.128.393 4.263c.275 3.523 2.917 6.945 6.772 6.772 3.432-.153 7.069-2.99 6.773-6.772a148.239 148.239 0 0 0-6.875-34.828c-1.106-3.359-4.73-5.9-8.33-4.73-3.351 1.084-5.918 4.728-4.731 8.331ZM556.048 722.574c.153.19.3.382.454.574l-1.059-1.37a54.887 54.887 0 0 1 7.021 11.968l-.683-1.618a55.4 55.4 0 0 1 2.835 8.692 6.833 6.833 0 0 0 8.331 4.73 6.917 6.917 0 0 0 4.73-8.331A61.831 61.831 0 0 0 565.626 713a6.772 6.772 0 0 0-4.789-1.984 6.893 6.893 0 0 0-4.789 1.984 6.811 6.811 0 0 0-1.983 4.789 7.857 7.857 0 0 0 1.983 4.789Zm24.178-30.288a116.477 116.477 0 0 1 10.133 17q1.057 2.18 2.022 4.4c.088.2.175.4.261.606l-.254-.6a5 5 0 0 1 .417 1.019q.456 1.122.886 2.254 1.8 4.735 3.182 9.614c.969 3.405 4.83 5.863 8.331 4.73a6.889 6.889 0 0 0 4.73-8.331 121.852 121.852 0 0 0-18.013-37.533 7.308 7.308 0 0 0-4.047-3.112 6.923 6.923 0 0 0-5.219.683c-2.849 1.836-4.637 6.186-2.429 9.266Zm30.816-29.569a100.379 100.379 0 0 1 6.179 10.459q1.382 2.706 2.6 5.493l.173.4q.431 1.008-.175-.418c-.052.308.45 1.1.572 1.408q.563 1.412 1.081 2.84a99.865 99.865 0 0 1 3.4 11.436q.692 2.96 1.2 5.957c.166.982.2 2.048.462 3l-.127-.94q.056.43.107.861.1.862.192 1.726a7.332 7.332 0 0 0 1.983 4.789 6.884 6.884 0 0 0 4.789 1.984c3.355-.15 7.166-3 6.773-6.773a107.594 107.594 0 0 0-17.511-49.061c-1.977-2.932-6.055-4.5-9.266-2.43-2.921 1.884-4.548 6.125-2.43 9.267Zm41.594-25.579q9.757 28.248 18.513 56.828c1.037 3.383 4.782 5.879 8.331 4.73 3.411-1.1 5.842-4.7 4.731-8.331q-8.754-28.575-18.514-56.828c-1.154-3.341-4.7-5.906-8.331-4.73-3.309 1.071-5.969 4.746-4.73 8.331Zm44.375 14.831a81.53 81.53 0 0 1 5.912 11.31l-.683-1.618a81.785 81.785 0 0 1 3.726 10.952 6.774 6.774 0 1 0 13.061-3.6 86.626 86.626 0 0 0-10.32-23.879c-1.881-3-6.126-4.455-9.266-2.43-3 1.937-4.443 6.055-2.43 9.266Zm26.18-41.909a253.884 253.884 0 0 1 13.114 49.059q.284 1.75.543 3.507.121.819.237 1.639l.13.937c.134.945-.173-1.34-.053-.393.306 2.426.6 4.852.849 7.285a7.325 7.325 0 0 0 1.983 4.788 6.88 6.88 0 0 0 4.789 1.984c3.359-.15 7.16-3 6.773-6.772a262.746 262.746 0 0 0-10.512-51.773q-2.194-7-4.792-13.862a7.32 7.32 0 0 0-3.113-4.047 6.915 6.915 0 0 0-5.218-.683c-3.228 1.045-6.07 4.783-4.73 8.331Zm51.972 16.796 5.747 25.853a6.825 6.825 0 0 0 8.331 4.73 6.926 6.926 0 0 0 4.73-8.331l-5.747-25.853a6.826 6.826 0 0 0-8.331-4.73 6.926 6.926 0 0 0-4.73 8.331Zm46.504-11.365c.182.414.337.856.547 1.256 0 0-.527-1.269-.238-.567.086.211.175.422.262.633q.564 1.372 1.093 2.759 1.059 2.772 1.983 5.593 1.776 5.424 3.043 11 .633 2.783 1.137 5.592.262 1.461.488 2.928.105.677.2 1.354c.033.226.057.454.1.679-.062-.353-.175-1.363-.063-.443.46 3.779.78 7.569.906 11.374a123.747 123.747 0 0 1-.283 13.231c-.263 3.541 3.3 6.928 6.773 6.772a6.938 6.938 0 0 0 6.772-6.772 128.882 128.882 0 0 0-5.729-48.444 140.008 140.008 0 0 0-5.293-13.779 6.777 6.777 0 0 0-4.047-3.112 6.918 6.918 0 0 0-5.219.683 6.832 6.832 0 0 0-3.112 4.047 7.861 7.861 0 0 0 .682 5.219Zm35.281 5.6a127.429 127.429 0 0 1 3.7 12.988q.723 3.18 1.282 6.394.279 1.607.517 3.22c.045.308.09.615.133.923l-.116-.877a16.074 16.074 0 0 1 .231 1.849 127.267 127.267 0 0 1 .321 26.5c-.325 3.538 3.347 6.926 6.772 6.773 3.948-.177 6.424-2.983 6.773-6.773a132.357 132.357 0 0 0-6.548-54.6c-1.144-3.345-4.7-5.9-8.331-4.73-3.319 1.074-5.958 4.742-4.73 8.331Zm33.085 29.435c.535.988.933 2.081 1.5 3.046-.155-.264-.52-1.293-.19-.443.128.329.257.658.38.99q.294.8.554 1.605.519 1.615.9 3.273.19.827.346 1.662c.1.542.3 2.612.121.506a53.1 53.1 0 0 1 .291 6.779q-.034.848-.106 1.694-.045.528-.1 1.056c-.025.228-.148 1.248-.012.152s0-.079-.038.149q-.069.418-.149.836a43.943 43.943 0 0 1-.4 1.867c-.811 3.442 1.073 7.5 4.73 8.331 3.468.79 7.462-1.041 8.331-4.73a47.682 47.682 0 0 0-4.456-33.61 6.833 6.833 0 0 0-9.266-2.429 6.916 6.916 0 0 0-2.43 9.266ZM630.445 965.027l6.768 18.882a7.248 7.248 0 0 0 3.112 4.047 6.913 6.913 0 0 0 5.219.683c3.276-1.06 6.01-4.761 4.73-8.331l-6.768-18.882a7.248 7.248 0 0 0-3.112-4.047 6.922 6.922 0 0 0-5.219-.683c-3.276 1.06-6.01 4.761-4.73 8.331Zm36.655-45.306a222.127 222.127 0 0 0 13.009 56.911 7.313 7.313 0 0 0 3.112 4.048 6.917 6.917 0 0 0 5.219.682c3.232-1.046 6.064-4.78 4.73-8.331a215.341 215.341 0 0 1-8.161-26.9q-1.581-6.792-2.718-13.678-.269-1.632-.513-3.269-.139-.936-.271-1.872-.066-.468-.129-.937.2 1.53.056.395c-.29-2.347-.563-4.694-.789-7.048a7.3 7.3 0 0 0-1.984-4.789 6.88 6.88 0 0 0-4.788-1.984c-3.379.152-7.136 3-6.773 6.773Zm37.459-16.963a404.332 404.332 0 0 1 12.63 57.573 6.759 6.759 0 0 0 3.113 4.047 6.772 6.772 0 0 0 9.266-2.429 7.937 7.937 0 0 0 .683-5.219 404.4 404.4 0 0 0-12.631-57.573c-1.009-3.393-4.8-5.873-8.331-4.73a6.883 6.883 0 0 0-4.73 8.331Zm58.224-25.65a304.714 304.714 0 0 1 16.6 61.431q.336 2.1.643 4.2.17 1.168.332 2.338c.054.386.249 1.291-.052-.4.069.386.1.782.153 1.171q.59 4.566 1.04 9.149a7.311 7.311 0 0 0 1.984 4.789 6.883 6.883 0 0 0 4.789 1.983c3.37-.151 7.146-3 6.772-6.772a313.04 313.04 0 0 0-13.151-64.35q-2.765-8.661-6.044-17.144a7.345 7.345 0 0 0-3.113-4.047 6.91 6.91 0 0 0-5.218-.683c-3.207 1.038-6.1 4.792-4.73 8.331Zm64.649-6.322a198.859 198.859 0 0 1 7.614 28.852q.687 3.729 1.233 7.484c.06.411.446 2.579.084.547.083.465.124.942.183 1.411q.235 1.881.436 3.767.8 7.545 1.02 15.133c.106 3.538 3.039 6.94 6.773 6.773 3.578-.161 6.886-2.979 6.772-6.773a205.379 205.379 0 0 0-11.053-60.8c-1.155-3.341-4.7-5.907-8.331-4.73-3.31 1.071-5.969 4.746-4.731 8.331Zm29.22 10.108q1.35 2.625 2.557 5.317c.184.415.363.832.546 1.247.554 1.266-.557-1.36.105.267q.555 1.366 1.073 2.748a104.4 104.4 0 0 1 3.442 11.044q.693 2.751 1.235 5.536.282 1.449.523 2.9.129.783.247 1.569c.068.455.23 1.938.011 0 .441 3.919.8 7.816.871 11.762.065 3.54 3.068 6.939 6.772 6.773a6.881 6.881 0 0 0 6.773-6.773 112.3 112.3 0 0 0-12.459-49.227 6.822 6.822 0 0 0-9.266-2.43 6.932 6.932 0 0 0-2.43 9.266Zm54.964-15.788a88.758 88.758 0 0 1 2.706 5.406q.27.59.53 1.183c.087.2.171.4.258.594.364.824-.514-1.261-.18-.424.375.935.753 1.869 1.105 2.813a88.647 88.647 0 0 1 3.393 11.373q.645 2.844 1.105 5.725c.08.5.153 1 .226 1.5.189 1.278-.164-1.371-.015-.088.125 1.074.244 2.146.337 3.223a89 89 0 0 1 .233 11.866c-.1 2.158-.3 4.307-.544 6.453-.047.41-.21 1.3.075-.516-.045.285-.08.571-.122.855q-.126.855-.269 1.707a93.214 93.214 0 0 1-.641 3.4c-.718 3.46 1.007 7.483 4.73 8.331 3.388.772 7.561-1.02 8.331-4.73a96.05 96.05 0 0 0-3.334-51.473 99.481 99.481 0 0 0-6.228-14.024 6.836 6.836 0 0 0-9.267-2.43 6.916 6.916 0 0 0-2.429 9.266Zm55.721 13.917c.65 2.523 1.2 5.07 1.627 7.641a8.672 8.672 0 0 1 .324 2.107c.041-.353-.166-1.328-.054-.392.038.314.077.627.112.941q.228 2 .363 4.009a88.353 88.353 0 0 1-.371 15.842 6.761 6.761 0 0 0 1.984 4.789 6.771 6.771 0 0 0 9.577 0 7.812 7.812 0 0 0 1.984-4.789 93.725 93.725 0 0 0-2.485-33.749 6.774 6.774 0 0 0-13.061 3.6Zm39.713 5.323c.268.525.531 1.052.783 1.586.094.2.823 1.448.727 1.612q-.589-1.412-.173-.393c.109.273.216.548.321.823q.315.826.6 1.663a52.7 52.7 0 0 1 1.834 6.828q.171.868.313 1.741c.048.291.092.582.135.874q-.209-1.606-.067-.485c.124 1.173.241 2.345.3 3.524a53.1 53.1 0 0 1-.119 7.068c-.289 3.54 3.322 6.927 6.773 6.772a6.944 6.944 0 0 0 6.772-6.772 59.428 59.428 0 0 0-6.508-31.678 6.819 6.819 0 0 0-9.266-2.429 6.934 6.934 0 0 0-2.429 9.266ZM423.472 1391.28a99.244 99.244 0 0 0 17.425 31.032c2.262 2.746 7.267 2.519 9.578 0 2.679-2.918 2.413-6.648 0-9.577q-.624-.759-1.236-1.528c-.258-.326-.861-1.273.122.165-.164-.24-.353-.465-.527-.7q-1.176-1.573-2.283-3.2-2.211-3.248-4.132-6.681-1.865-3.334-3.44-6.82c-.27-.6-.515-1.205-.789-1.8l.344.813q-.124-.3-.248-.607a93.467 93.467 0 0 1-1.753-4.703c-1.148-3.344-4.7-5.906-8.331-4.731-3.315 1.073-5.963 4.744-4.73 8.331Zm21.096-19.67 12.612 16.663a7.427 7.427 0 0 0 4.047 3.112 6.923 6.923 0 0 0 5.219-.683 6.832 6.832 0 0 0 3.112-4.047c.377-1.654.391-3.8-.683-5.219l-12.611-16.663a7.425 7.425 0 0 0-4.048-3.112 6.92 6.92 0 0 0-5.218.682 6.842 6.842 0 0 0-3.113 4.048c-.376 1.654-.39 3.8.683 5.219Zm212.205-185.91 3.3 16.384a6.774 6.774 0 0 0 12.379 1.617 7.48 7.48 0 0 0 .682-5.218l-3.3-16.384a6.773 6.773 0 0 0-12.378-1.617 7.485 7.485 0 0 0-.683 5.218Zm32.161-19.373 6.248 25.213a6.839 6.839 0 0 0 8.331 4.73 6.909 6.909 0 0 0 4.73-8.331L702 1162.726a6.84 6.84 0 0 0-8.331-4.73 6.91 6.91 0 0 0-4.73 8.331Zm46.712-18.827a142.091 142.091 0 0 0 3.172 15.3c1.377 5.577 2.834 11.135 4.234 16.707.517 2.059 1.05 4.118 1.47 6.2.7 3.479 5.019 5.8 8.331 4.73a6.94 6.94 0 0 0 4.73-8.331c-.864-4.287-2.056-8.519-3.139-12.755-1.417-5.543-2.85-11.085-4.121-16.664-.29-1.271-.57-2.545-.826-3.823q-.16-.8-.3-1.6c-.129-.729-.412-2.826 0 .238a7.469 7.469 0 0 0-1.984-4.789 6.774 6.774 0 0 0-9.578 0c-1.121 1.222-2.214 3.061-1.983 4.789Zm41.597-5.263a88.1 88.1 0 0 1 2.962 12.147c1.057 5.091 2.035 10.2 3.2 15.268a50.737 50.737 0 0 0 1.6 5.881c1.205 3.322 4.658 5.919 8.331 4.731 3.265-1.057 6.024-4.766 4.73-8.331a87.985 87.985 0 0 1-2.961-12.147c-1.058-5.091-2.035-10.2-3.206-15.268a50.6 50.6 0 0 0-1.6-5.882c-1.206-3.321-4.659-5.918-8.331-4.73-3.265 1.057-6.024 4.766-4.731 8.331Zm44.62-11.712c1.36 3.333 1.927 7.109 2.635 10.618q.743 3.679 1.382 7.379.314 1.815.6 3.635.123.786.239 1.574c.062.419.323 2.314.122.816-.194-1.446-.029-.214.013.125l.09.747c.052.448.1.9.141 1.346a18.423 18.423 0 0 1 .1 2.1 6.773 6.773 0 0 0 13.545 0 29.41 29.41 0 0 0-.349-4.3q-.519-4.119-1.2-8.215c-.812-4.856-1.726-9.706-2.86-14.5a33.154 33.154 0 0 0-1.4-4.924 7.43 7.43 0 0 0-3.112-4.048 6.773 6.773 0 0 0-9.266 2.43c-.793 1.5-1.355 3.571-.683 5.219Zm47.877-9.063q.861 1.756 1.674 3.535.381.837.751 1.681c.123.281.242.563.366.844.375.845-.5-1.2-.144-.347a149.538 149.538 0 0 1 2.8 7.306 132.242 132.242 0 0 1 4.2 14.823 6.826 6.826 0 0 0 8.331 4.73 6.926 6.926 0 0 0 4.73-8.331 139.7 139.7 0 0 0-11.011-31.078c-1.563-3.189-6.348-4.311-9.266-2.429a6.945 6.945 0 0 0-2.43 9.266Zm38.702-3.703c-1.165-1.494-.3-.388-.037-.03q.376.507.741 1.024.731 1.031 1.415 2.093 1.371 2.124 2.559 4.358.594 1.116 1.141 2.255a14.462 14.462 0 0 0 1.047 2.3q-.611-1.458-.2-.451l.158.391q.232.586.455 1.179.48 1.283.9 2.586a61.382 61.382 0 0 1 2.318 9.831c.237 1.576-.088-.82-.015-.131.045.419.1.837.14 1.256q.126 1.257.2 2.519c.1 1.753.12 3.509.071 5.264a6.832 6.832 0 0 0 6.772 6.773 6.909 6.909 0 0 0 6.773-6.773 66.816 66.816 0 0 0-3.329-22.741 70.444 70.444 0 0 0-11.537-21.282 6.759 6.759 0 0 0-4.789-1.983 6.9 6.9 0 0 0-4.789 1.983 6.819 6.819 0 0 0-1.984 4.789 7.941 7.941 0 0 0 1.984 4.789Zm50.228.782a118.765 118.765 0 0 1 4.622 14.923q.891 3.745 1.535 7.544c.208 1.227.36 2.463.565 3.69-.12-.716-.154-1.177-.032-.181.038.309.074.618.11.927.079.7.151 1.392.22 2.089a7.3 7.3 0 0 0 1.983 4.788 6.88 6.88 0 0 0 4.789 1.984c3.373-.151 7.143-3 6.773-6.772a125.174 125.174 0 0 0-7.5-32.592 7.333 7.333 0 0 0-3.112-4.048 6.922 6.922 0 0 0-5.219-.683c-3.215 1.041-6.085 4.789-4.73 8.331Zm27.66 9.595a73.169 73.169 0 0 1 1.872 6.774q.409 1.83.722 3.679c.078.462.145.926.221 1.389q.16 1.131-.049-.408.06.465.114.931a72.2 72.2 0 0 1 .227 14.037c-.284 3.54 3.317 6.927 6.772 6.772a6.943 6.943 0 0 0 6.773-6.772 77.313 77.313 0 0 0-3.591-30c-1.1-3.361-4.736-5.893-8.331-4.73-3.356 1.086-5.91 4.726-4.73 8.331Zm46.85 3.653a67.632 67.632 0 0 1 5.377 9q.617 1.248 1.184 2.52l.172.392q.434 1-.179-.435a4.814 4.814 0 0 0 .481 1.192q.941 2.393 1.7 4.852a74.941 74.941 0 0 1 2.275 10.017c.234 1.437-.162-1.443-.012-.1.047.425.1.85.144 1.277q.132 1.278.214 2.561c.12 1.853.155 3.709.123 5.566a6.773 6.773 0 0 0 13.545 0 74.235 74.235 0 0 0-13.326-43.677 7.285 7.285 0 0 0-4.047-3.113 6.922 6.922 0 0 0-5.219.683c-2.866 1.848-4.615 6.171-2.43 9.266Zm-887.314 784.284q27.189-7.379 54.737-13.321 7.818-1.685 15.658-3.251c3.481-.7 5.8-5.023 4.731-8.331a6.943 6.943 0 0 0-8.331-4.73q-27.624 5.524-54.932 12.5-7.746 1.98-15.463 4.076c-3.419.927-5.854 4.859-4.73 8.331a6.9 6.9 0 0 0 8.33 4.73Zm14.144 22.519q24.924-6.626 50.342-11.136a6.814 6.814 0 0 0 4.048-3.113 6.914 6.914 0 0 0 .682-5.218c-1.216-3.759-4.584-5.395-8.331-4.731q-25.393 4.506-50.342 11.137a6.774 6.774 0 0 0 3.6 13.061Zm12.75 28.616 30.615-5.334a6.8 6.8 0 0 0 4.047-3.113 6.915 6.915 0 0 0 .683-5.218c-1.219-3.768-4.582-5.384-8.331-4.73l-30.615 5.334a6.808 6.808 0 0 0-4.048 3.112 6.918 6.918 0 0 0-.682 5.219c1.219 3.767 4.581 5.383 8.331 4.73Zm4.146 25.432a346.666 346.666 0 0 0 36.978-5.247c3.482-.688 5.8-5.028 4.73-8.331a6.945 6.945 0 0 0-8.331-4.73q-8.6 1.7-17.28 2.949-.963.138-1.929.27c-1.616.224 1.061-.136.111-.015l-.965.125q-2.174.28-4.351.53-4.476.514-8.963.9c-3.52.309-6.947 2.894-6.773 6.773.153 3.4 2.993 7.1 6.773 6.772Zm230.673-31.333a428.266 428.266 0 0 0 44 4.3 6.822 6.822 0 0 0 6.773-6.772 6.919 6.919 0 0 0-6.773-6.773q-10.47-.464-20.906-1.454-5.156-.494-10.3-1.116-1.346-.163-2.691-.336l-.978-.127c-.327-.042-2.058-.238-.156-.018-1.794-.208-3.583-.5-5.37-.764a7.425 7.425 0 0 0-5.219.683 6.772 6.772 0 0 0-2.429 9.266 6.524 6.524 0 0 0 4.047 3.112Zm3.646-21.481 32.612 8.082c3.433.851 7.5-1.1 8.331-4.73.8-3.5-1.052-7.419-4.73-8.331l-32.612-8.082c-3.433-.851-7.5 1.1-8.331 4.73-.8 3.5 1.051 7.419 4.73 8.331Zm9.215-25.11a129.411 129.411 0 0 0 27.615 6.188 6.753 6.753 0 0 0 4.789-1.984 6.774 6.774 0 0 0 0-9.578 7.862 7.862 0 0 0-4.789-1.983c-.621-.073-1.27-.107-1.882-.233 1.889.39.3.035-.077-.021q-1.641-.243-3.275-.531-3.151-.557-6.269-1.282a121.565 121.565 0 0 1-12.511-3.637c-3.349-1.169-7.557 1.328-8.331 4.73a6.94 6.94 0 0 0 4.73 8.331Zm323.449 37.817h35.217c3.543 0 6.936-3.115 6.773-6.772a6.891 6.891 0 0 0-6.773-6.773h-35.217c-3.543 0-6.937 3.115-6.773 6.773a6.891 6.891 0 0 0 6.773 6.772Zm3.526 23.418a122.783 122.783 0 0 0 26.471-1.2 6.759 6.759 0 0 0 4.048-3.112 6.771 6.771 0 0 0-2.43-9.266 7.9 7.9 0 0 0-5.218-.683q-.48.072-.96.14l.839-.111c-.555.1-1.125.144-1.685.21q-1.446.168-2.895.3-3.02.273-6.051.385a115.02 115.02 0 0 1-12.119-.209c-3.542-.245-6.929 3.29-6.773 6.772a6.936 6.936 0 0 0 6.773 6.773Zm249.879-111.342a164.269 164.269 0 0 1-17.377 17.161q-2.329 1.978-4.73 3.869l-.516.4q-.6.467.508-.39a7.3 7.3 0 0 1-1.389 1.058q-1.219.918-2.458 1.815-4.952 3.583-10.16 6.789c-3.013 1.859-4.444 6.141-2.429 9.266 1.949 3.023 6.04 4.42 9.266 2.43a170.471 170.471 0 0 0 38.862-32.823c2.329-2.667 2.82-6.989 0-9.578-2.553-2.343-7.089-2.85-9.577 0Zm16.706 14.4q-1.552 2.319-3.2 4.574a13.43 13.43 0 0 0-1.8 2.4q.867-1.121.4-.523c-.132.169-.264.338-.4.506q-.4.505-.8 1.006-3.574 4.424-7.536 8.518-3.88 4.01-8.1 7.671-2.109 1.829-4.3 3.562-.252.2-.5.4-.853.664.353-.269c-.315.067-.779.594-1.026.779q-1.2.9-2.423 1.777a7.316 7.316 0 0 0-3.112 4.047 6.918 6.918 0 0 0 .683 5.219c1.835 2.847 6.188 4.639 9.266 2.43a137.234 137.234 0 0 0 34.2-35.263c1.974-2.951.67-7.628-2.43-9.266a6.934 6.934 0 0 0-9.266 2.43Zm-631.036-697.436A191.938 191.938 0 0 0 387.38 1239a6.83 6.83 0 0 0 8.331 4.731 6.921 6.921 0 0 0 4.73-8.331q-1.567-6.823-2.628-13.748-.127-.835-.246-1.672c-.063-.439-.463-2.246-.053-.352-.234-1.084-.283-2.252-.406-3.355q-.39-3.478-.647-6.97a185.5 185.5 0 0 1 .048-27.733c.269-3.541-3.308-6.928-6.773-6.772a6.938 6.938 0 0 0-6.772 6.772Zm34.789-17.993q1.543 17.785 4.5 35.416a6.793 6.793 0 0 0 3.112 4.047 6.913 6.913 0 0 0 5.219.683c3.788-1.226 5.357-4.576 4.73-8.331q-.687-4.119-1.3-8.249-.3-2.065-.587-4.133c-.027-.194-.179-1.318-.044-.317s-.016-.123-.041-.317q-.144-1.1-.283-2.192-1.044-8.286-1.761-16.607c-.305-3.52-2.9-6.946-6.772-6.772-3.407.153-7.1 2.993-6.773 6.772Zm29.508.988a86.806 86.806 0 0 0 2.941 13.352 7.089 7.089 0 0 0 3.112 4.048 6.774 6.774 0 0 0 9.949-7.648 86.711 86.711 0 0 1-2.94-13.352 6.753 6.753 0 0 0-3.113-4.048 6.771 6.771 0 0 0-9.266 2.43l-.683 1.618a6.829 6.829 0 0 0 0 3.6Z"/></g><defs><clipPath id="c"><path d="M0 0h157.041v433.189H0z"/></clipPath></defs><g clip-path="url(#c)" transform="translate(1728.0 744.0) rotate(0.0 84.0 233.0) scale(1.0697843238389975 1.075742920526606) translate(-0.0 -0.0)"><path d="m121.915 207.692-56.7-133.2-14.087-33.113c-3.793-8.91-7.147-18.361-12.7-26.374A41.9 41.9 0 0 0 28 4.22a28.668 28.668 0 0 0-6.1-3.126A19.745 19.745 0 0 0 19.128.2c-3.037-.689-5.413.5-7.479 2.611C4.454 10.162 1.636 20.14.561 30.107c-1.1 10.2-.374 20.671.4 30.864.883 11.478 2.363 22.919 4.322 34.261a454.417 454.417 0 0 0 16.382 64.328c14.2 43.248 33.256 84.768 52.53 125.941 20.235 43.225 41.359 86.026 62.576 128.775q3.864 7.785 7.73 15.567c1.579 3.18 6.336 4.319 9.266 2.43a6.941 6.941 0 0 0 2.43-9.266c-13.744-27.674-27.489-55.347-41.019-83.126s-26.845-55.659-39.728-83.742c-12.193-26.576-23.523-52.26-33.568-79.625-9.95-27.106-18.234-54.905-23.273-83.366a317.74 317.74 0 0 1-4.688-41.81 152.257 152.257 0 0 1 .005-19.32q.09-1.116.216-2.228c.035-.317.072-.635.112-.951-.037.286-.2 1.253.027-.089.244-1.451.512-2.894.862-4.324a41.8 41.8 0 0 1 1.242-4.158c.132-.37.67-1.709.219-.661.321-.745.677-1.476 1.056-2.193a30.215 30.215 0 0 1 2.251-3.6c-.65.9.223-.243.476-.529.548-.619 1.132-1.2 1.73-1.771l-6.589 1.741c.66.175 1.314.365 1.959.594l.81.3c-1.235-.493-.3-.115-.054.02a40.744 40.744 0 0 1 3.383 2.071c-1.154-.789.343.313.618.559Q23 17.475 23.7 18.2c.475.485.933.987 1.377 1.5.192.222.378.449.569.671.816.949-.228-.373.215.261a85.1 85.1 0 0 1 8.156 14.888C40.218 49.7 46.151 64 52.213 78.244l37.032 87.007 20.974 49.278c1.393 3.272 6.46 4.238 9.266 2.429 3.4-2.193 3.92-5.764 2.43-9.266Z"/><path d="M69.78 123.972a444.4 444.4 0 0 0-29.419 46.585A458.741 458.741 0 0 0 16.5 221.423q-5.731 14.417-10.442 29.209a6.831 6.831 0 0 0 4.73 8.331 6.922 6.922 0 0 0 8.331-4.731q4.171-13.078 9.138-25.884 1.212-3.122 2.472-6.223.629-1.551 1.271-3.1l.6-1.442c.1-.234.476-1.16.091-.22-.416 1.014.089-.209.181-.424q2.664-6.266 5.521-12.446a444.323 444.323 0 0 1 25.929-48.11q8.128-13.083 17.154-25.575a6.826 6.826 0 0 0 .682-5.218 6.905 6.905 0 0 0-3.112-4.048c-3.507-1.853-7.046-.647-9.266 2.43Zm53.561-15.105a497.79 497.79 0 0 0-24.087 43.8 520.99 520.99 0 0 0-20.118 47.195q-8.666 23.457-14.985 47.694-6.307 24.2-10.2 48.939c-2.655 16.92-4.524 33.967-5.48 51.068q-.172 3.093-.306 6.189a6.821 6.821 0 0 0 6.772 6.772 6.917 6.917 0 0 0 6.773-6.772q.54-12.381 1.693-24.724.579-6.168 1.311-12.321.366-3.076.771-6.148c.037-.287.094-.587.116-.877 0-.037-.2 1.475-.094.7.07-.512.139-1.024.21-1.535q.213-1.535.436-3.067 3.576-24.636 9.583-48.837 5.969-24.057 14.273-47.451 4.184-11.782 8.947-23.348.547-1.329 1.1-2.656l.257-.613-.167.4c.236-.541.461-1.087.693-1.629q1.217-2.849 2.47-5.682 2.5-5.667 5.149-11.271 10.579-22.412 23.349-43.7 1.595-2.656 3.223-5.292a6.839 6.839 0 0 0-2.429-9.266 6.909 6.909 0 0 0-9.266 2.43Z"/></g><defs><clipPath id="d"><path d="M0 0h315.13v204.233H0z"/></clipPath></defs><g clip-path="url(#d)" transform="translate(1590.0 1340.0) rotate(0.0 169.0 110.0) scale(1.072573223748929 1.0772010399886405) translate(-0.0 -0.0)"><path d="M265.909 123.561q-15.9-.687-31.747-2.237-8.061-.792-16.1-1.809c-1.2-.152-2.4-.311-3.6-.467-1.023-.133 1.16.16.139.019l-.831-.114q-1.107-.151-2.214-.308-3.873-.546-7.739-1.145a585.5 585.5 0 0 1-62.626-13.246 585.7 585.7 0 0 1-60.655-19.937c-10.048-3.922-19.88-8.447-30.069-12s-21.235-6.076-32.06-4.811c-6.229.729-12.826 2.114-16.347 7.909-2.755 4.535-2.52 10.294-.631 15.1 1.924 4.9 4.871 8.856 8.206 12.889q4.159 5.031 8.763 9.671a182.459 182.459 0 0 0 42.446 31.293c15.825 8.624 32.647 15.4 49.693 21.19 16.689 5.668 33.684 10.371 50.7 14.946 21.4 5.755 42.836 11.487 64.571 15.872 21.854 4.409 44.1 7.525 66.417 7.828q8.067.109 16.127-.3c3.533-.178 6.942-2.987 6.773-6.772-.158-3.517-2.983-6.964-6.773-6.773a265.288 265.288 0 0 1-32.211-.393q-8.037-.573-16.038-1.557c-1.239-.151-2.477-.312-3.716-.473-1.039-.134 1.124.159.086.011l-.857-.118q-1.143-.159-2.284-.326-4-.583-7.988-1.248c-21.383-3.556-42.456-8.731-63.406-14.25-17.789-4.686-35.6-9.387-53.182-14.794-8.3-2.551-16.547-5.277-24.694-8.279q-6.084-2.241-12.084-4.7-.747-.308-1.493-.619l-.639-.267c-.7-.293.558.235.555.234-1.044-.482-2.119-.907-3.174-1.369q-2.948-1.291-5.865-2.65a229.874 229.874 0 0 1-22.541-12q-5.412-3.3-10.6-6.945-2.584-1.823-5.1-3.738c-1.253-.953.692.55-.239-.181q-.534-.418-1.065-.838-1.328-1.053-2.633-2.134A150.8 150.8 0 0 1 21 95.946c-1.345-1.563-2.543-3.325-3.961-4.815 1.215 1.277.17.213-.118-.194s-.581-.844-.855-1.277a28.087 28.087 0 0 1-1.531-2.73 7.74 7.74 0 0 1-.378-.81c.03-.035.5 1.311.258.595-.159-.483-.351-.954-.5-1.442s-.264-.954-.363-1.439c-.307-1.506-.016 1.064-.006-.024a13.752 13.752 0 0 0 .006-1.377c-.064-.643-.083.792-.124.847a4.19 4.19 0 0 0 .17-.739c.18-1.132-.547 1.546-.035.045.034-.1.318-.406.3-.494.043.2-1.049 1.125-.32.441.054-.051.522-.61.648-.615.1 0-1.151.655-.395.367a4.915 4.915 0 0 0 .626-.35c-.012.227-1.278.436-.288.122a26.886 26.886 0 0 1 3.356-.835c.362-.067.726-.123 1.089-.185.142-.024 1.062-.178.188-.031s.039 0 .189-.012c.363-.033.725-.073 1.088-.1q1.9-.156 3.809-.159t3.8.131q.816.057 1.629.138c.362.035.723.079 1.085.117.836.09.332-.066-.174-.028a15.728 15.728 0 0 1 3.787.659q1.9.384 3.777.862c10.2 2.579 19.84 6.919 29.543 10.907a585.143 585.143 0 0 0 59.238 20.7 586.144 586.144 0 0 0 61 14.23 598 598 0 0 0 63.045 7.792q7.659.532 15.33.861a6.823 6.823 0 0 0 6.773-6.773 6.917 6.917 0 0 0-6.773-6.772Z"/><path d="M135.843 6.778a517.841 517.841 0 0 0 .694 75.137 532.654 532.654 0 0 0 11.675 75.593q4.709 20.5 11.08 40.57c1.07 3.372 4.757 5.887 8.331 4.73 3.382-1.094 5.877-4.715 4.73-8.331a517.337 517.337 0 0 1-17.377-72.584q-.767-4.668-1.448-9.349-.324-2.224-.629-4.45c-.06-.443-.265-1.6.02.159-.05-.31-.083-.627-.124-.938q-.186-1.407-.363-2.815-1.155-9.153-1.985-18.343-1.68-18.61-2.019-37.311-.381-21.043.96-42.068c.224-3.543-3.276-6.929-6.773-6.773a6.931 6.931 0 0 0-6.772 6.773Zm39.146 20.027a459.325 459.325 0 0 0 2.587 60.924 473.425 473.425 0 0 0 10.7 61.145q4.092 16.706 9.435 33.07c1.1 3.362 4.738 5.893 8.331 4.73 3.359-1.087 5.907-4.724 4.73-8.331a458.562 458.562 0 0 1-14.921-58.594q-1.385-7.47-2.521-14.984-.267-1.761-.52-3.524-.135-.941-.266-1.881-.066-.469-.13-.941c-.032-.233-.21-1.62-.07-.511s-.093-.715-.128-.983q-.121-.942-.24-1.885-.252-2-.486-4.007-1.747-14.978-2.511-30.049-.864-17.073-.449-34.179a6.833 6.833 0 0 0-6.772-6.772 6.9 6.9 0 0 0-6.773 6.772Z"/></g></svg>