<svg xmlns="http://www.w3.org/2000/svg" viewBox="0 0 1500 1500" width="1500" height="1500"><g transform="translate(103.0 112.0) rotate(0.0 666.0 623.5) scale(0.6291967113607323 0.6295401227073154)"><svg width="2116.985" height="1980.811" viewBox="0 0 2116.985 1980.811"><path d="M50.408 245.123c18.2-8.02 419.758-104.971 540.915-132.708s441.3-109.432 469.363-106.126 50.716 10.044 113.5 97.04 51.969 66.652 51.969 66.652l16.735-6.337s88.82 117.439 90.78 120.079 31.256 40.755 31.256 40.755l-13.564 16.065s217.563 305.513 269.967 377.169 427.441 587.036 427.441 587.036 89.09 109.406 61.263 118.447-796.979 265.923-796.979 265.923l-736.21 188.913s-199.21 29.812-219.976 14.692-43.227-40.195-43.227-40.195-95.244-451.4-108.439-520.5S89.156 754.016 89.156 754.016l-16.982-6.072-21.408-91.674 19.016-12.153-14.732-76.089-22.091-6.765-21.145-74L30.97 473S6.905 331.063 6.592 319.549s-3.301-53.664 43.816-74.426z" fill="#626262"/><path d="M103.233 318.205S525.9 206.585 611.312 188.842s449.095-103.977 449.095-103.977 352.635 532.646 426.917 637.891 426.828 627.724 426.828 627.724-725.335 193.647-830.615 223.638-667.132 173.9-667.132 173.9l-115.341-526.89-128.791-573.406zm1070.948 1263.686s31.093-5.1 43.448 0 29.476 24.121 16.16 40.607-55.164 36.777-72.918 30.436-32.265-15.218-30.4-27.9 15.805-36.194 43.71-43.143z" fill="#eab8c0"/><path d="M702.434 108.96s14.825 13.949 11.217 20.924-12.485 13.08-18.826 9.076-13.316-21.123-7.609-24.294 15.218-5.706 15.218-5.706z" fill="#b1b1b1"/><path d="M323.2 1865.628s25.937 48.128 109.378 27.1 663.66-178.228 663.66-178.228 580.136-160.482 629.594-175.7 360.648-101.981 374.739-116.036 12.662-19.022 12.662-19.022-.565 77.5-15.631 97.391-33.9 32.289-128.285 58.592-468.91 134.526-582.141 167.191-474.894 130.934-572.795 154.6-376.7 94.661-402.988 92.979-45.266-2.591-61.738-29.862-36.019-92.105-36.019-92.105z" fill="#4e4e4e"/><path d="M39.559 256.554c7.66-3.894 19.631-7.255 29.348-10.172 18.71-5.616 37.586-10.686 56.474-15.664 54.461-14.35 109.2-27.651 163.96-40.8 114.721-27.544 229.711-53.946 344.693-80.373 133.4-30.66 267.181-59.67 400.484-90.729 22.452-5.231 43.892-9.7 64.852 3.323 18.574 11.538 30.384 30.318 42.718 47.814 19.954 28.309 40.284 56.356 60.561 84.433q106.4 147.324 213.6 294.065 106 145.452 212.384 290.627 108.234 147.795 215.608 296.22 99.441 136.921 199.217 273.6c15.708 21.4 31.074 43.187 47.657 63.924 9.025 11.285 17.487 24.937 7.66 38.8-10.332 14.582-29.8 18.535-46.1 23.231q-113.074 32.58-226.087 65.37-171.221 49.492-342.513 98.737c-88.605 25.435-177.172 51.054-266.047 75.533-103.138 28.409-206.589 55.691-310.011 83.042q-163.2 43.161-326.5 85.948-47.654 12.517-95.288 25.077c-33.2 8.794-66.739 19.011-101.491 17.188-26.9-1.411-52.127-12.219-64.6-37.339-6.431-12.952-9.258-28.2-12.63-42.192-9.5-39.419-17.689-79.163-25.853-118.876-24.349-118.453-47.009-237.255-69.721-356.03-21.209-110.914-42.029-221.909-63.88-332.7C125.033 881.886 101.1 765.336 77.6 648.706 57.107 547 35.852 445.364 17.39 343.262c-5.406-29.9-11.471-68.154 22.169-86.708 7.634-4.211.809-15.913-6.837-11.7-36 19.855-35.789 60.256-29.549 95.549 7.1 40.13 15.115 80.105 23.006 120.084 24.9 126.134 50.536 252.122 75.978 378.147q31.4 155.532 61.405 311.322c24.148 126.23 48.034 252.511 72.662 378.648 18.628 95.414 36.183 191.394 59.349 285.843 3.841 15.66 7.373 32.05 15.736 46.013 13.578 22.666 37.138 34.512 62.728 37.841 37.786 4.916 75.112-5.882 111.275-15.486 81.045-21.524 162.2-42.642 243.294-63.97q176.412-46.395 352.682-93.335 128.149-34.272 255.761-70.416 167.052-47.506 333.873-95.817 154.386-44.529 308.726-89.217 40.608-11.747 81.223-23.468c19.264-5.541 41.363-12.471 51.546-31.337 9.561-17.711 1.769-35.531-9.887-49.728-13.977-17.024-29.014-38.476-43.045-57.567q-44.343-60.334-88.318-120.939Q1856.673 1029.7 1742.4 872.217q-100.283-137.868-201.139-275.312-117.906-161.347-235.373-323.019c-51.854-71.393-104.277-142.453-154.9-214.733-14.045-20.057-28.6-41.2-51.242-52.286-21.683-10.615-43.482-7.054-65.975-1.781-54.451 12.767-109.088 24.763-163.65 37.042q-199.9 44.986-399.522 91.2C352.25 160.79 233.7 187.95 116.247 219.12c-18.056 4.792-36.1 9.673-53.974 15.118-9.914 3.021-20.272 5.9-29.551 10.62-7.772 3.952-.922 15.642 6.837 11.696z"/><path d="M2103.255 1403.742a362.061 362.061 0 0 1-1.395 44.6c-1.639 18.447-3.721 39.763-13.513 56.01-6 9.952-15.762 16.11-26.127 20.833-18.117 8.256-37.97 13.057-57.134 18.176-47.15 12.6-94.194 25.356-141.128 38.75q-99.821 28.485-199.5 57.456-117.03 33.866-234.044 67.788-106.359 30.786-212.788 61.337c-48.053 13.747-96.1 27.564-144.4 40.427-64.768 17.25-129.793 33.552-194.849 49.675q-117.17 29.037-234.682 56.666c-63.313 14.84-126.69 29.613-190.436 42.5-16.614 3.357-36.158 7.447-51.263 9.164-25.3 2.875-43.941-19.779-55.832-39.826-13.879-23.4-21.728-49.833-26-76.567-1.371-8.584-14.426-4.941-13.061 3.6 4.321 27.041 12.442 53.794 26.11 77.649 9.732 16.985 22.974 34.155 40.67 43.4 15.114 7.895 28.2 5.6 44.135 2.954 54.062-8.983 107.6-21.8 161.005-34q117.78-26.9 235.1-55.783 109.285-26.691 218.245-54.7c48.386-12.539 96.547-25.822 144.627-39.479q101.28-28.768 202.386-58.146 119.6-34.572 239.166-69.258 107.408-31.107 214.872-62.022c44.293-12.7 88.547-25.652 133.087-37.473 21.03-5.581 42.165-10.786 63.078-16.8 16.427-4.727 33.551-9.666 48.4-18.368 30.028-17.6 34.81-53.265 37.532-85.224a362.432 362.432 0 0 0 1.282-43.33c-.3-8.692-13.85-8.732-13.545 0zM105.033 324.735q60.045-15.012 120.065-30.126 118.814-29.89 237.533-60.15c61.706-15.769 123.189-32.391 184.876-48.22 79.145-20.308 158.923-38.239 238.619-56.23q55.65-12.565 111.358-24.881c19.63-4.343 40.437-7.178 59.659-13.126.895-.277 1.863-.407 2.781-.607l-7.648-3.112q64.368 98.111 129.361 195.81c75.122 113.1 150.424 226.117 227.775 337.707q90.58 130.674 179.947 262.178 102.3 150.084 204.179 300.458 37.839 55.811 75.642 111.646 12.285 18.145 24.565 36.294c4.229 6.25 8.085 13.289 12.918 19.1.615.739 1.1 1.629 1.642 2.427l4.047-9.949q-97.476 25.723-194.9 51.633-188.341 50.035-376.5 100.745c-102.417 27.692-204.555 56.381-306.9 84.321Q844.1 1632.5 653.826 1683.137q-118.392 31.662-236.835 63.13l-3.594.954 8.331 4.73q-16.633-77.762-33.463-155.482-36.5-168.9-73.658-337.654c-25.586-115.959-52.212-231.68-78.072-347.577Q194.523 722.952 155.1 534.1c-15.038-71.38-28.118-143.411-44.674-214.454-.25-1.073-.444-2.161-.665-3.24-1.749-8.533-14.808-4.922-13.061 3.6q18.206 88.817 36.9 177.534 38.877 185.3 79.435 370.245c25.765 116.717 52.759 233.159 78.615 349.857q38.388 173.265 75.837 346.737c13.573 62.7 25.369 126.06 40.585 188.382.226.923.4 1.862.6 2.792.771 3.6 4.955 5.626 8.331 4.73q99.354-26.368 198.66-52.92 189.555-50.633 378.934-101.927c102.243-27.788 204.23-56.5 306.478-84.267q189.251-51.393 378.826-101.585 116.247-30.919 232.547-61.646l3.51-.927c4.014-1.059 6.506-6.312 4.047-9.949q-46.811-69.225-93.707-138.394-99.555-146.9-199.4-293.6-93.269-136.965-187.27-273.433-111.242-160.551-219.051-323.42-77.445-116.3-154.179-233.078l-2.421-3.688a7.033 7.033 0 0 0-7.648-3.113q-71.8 15.649-143.5 31.793C831 128.491 749.167 146.949 667.776 167.16c-60.207 14.951-120.032 31.5-180.125 46.911q-119.685 30.7-239.531 60.775c-48.059 12.105-96.807 22.672-144.469 36.273-.732.209-1.48.37-2.219.555-8.452 2.113-4.871 15.179 3.601 13.061zM427.18 200.6l84.651-21.527 84.651-21.527 47.4-12.055a6.774 6.774 0 0 0-3.6-13.061l-84.651 21.527-84.651 21.527-47.4 12.055a6.774 6.774 0 0 0 3.6 13.061zm250.035-74.51c1.773 7 6.823 13.662 13.42 16.766 6.734 3.169 14.778 3.4 20.942-1.24 5.477-4.123 9.549-10.879 8.749-17.961a17.723 17.723 0 0 0-5.562-11.258 25.619 25.619 0 0 0-9.753-5.665 23.784 23.784 0 0 0-12.1-.525 17.388 17.388 0 0 0-5.417 2.182 19.15 19.15 0 0 0-5.227 4.993c-1 1.291-1.092 3.734-.683 5.218a6.909 6.909 0 0 0 3.112 4.048 6.839 6.839 0 0 0 5.219.683 8.035 8.035 0 0 0 4.048-3.113c-1.4 1.82-.2.341.235-.058.576-.524 1.048-.416-.389.271a6.127 6.127 0 0 0 .522-.346c.448-.278.928-.475 1.386-.728-1.678.926-1.149.44-.588.288.359-.1.708-.22 1.07-.306.208-.05.419-.085.627-.135 1.248-.3-1.807.144-.519.059.546-.037 1.088-.078 1.637-.075s1.1.049 1.657.092.9.358-.806-.11c.32.088.664.117.989.189.548.12 1.091.265 1.625.434.687.218 2.143 1.08.265.03.482.269 1 .473 1.487.745s1.322 1.085 1.842 1.191c-.737-.15-1-.844-.42-.316.3.271.605.526.892.808.19.187.377.379.556.576l.265.3q.678.822-.324-.425c-.022.319 1.057 1.182.877 1.492-.037.064-.636-1.768-.329-.774.1.337.22.665.305 1.008.059.241.085.5.152.732-.5-1.784-.154-1.481-.133-.913.019.5.043.993.014 1.493-.039.678-.4 1.348.11-.6-.05.191-.071.4-.112.595a17.563 17.563 0 0 1-.508 1.758c-.363 1.128.677-1.355.273-.619-.124.225-.221.469-.34.7a14.818 14.818 0 0 1-.8 1.341c-.11.166-.259.338-.358.514.913-1.617.706-.882.279-.388a14.782 14.782 0 0 1-1.2 1.237c-.19.174-.412.329-.591.513 1.171-1.2 1.074-.787.625-.488s-.861.579-1.318.831c-.27.149-.572.262-.833.421 1.456-.886 1.282-.5.757-.326-.6.2-1.184.357-1.8.506-1.185.29 1.614-.137.694-.082-.3.017-.592.049-.889.058-.591.017-1.173-.025-1.762-.058-1.125-.063.766.1.758.1a3.21 3.21 0 0 1-1.027-.213c-.627-.154-1.228-.368-1.838-.576-.836-.285 1.629.79.485.2-.314-.162-.634-.311-.944-.481-.627-.344-1.209-.74-1.8-1.136-1.074-.717 1.044.879.378.3-.316-.277-.639-.542-.946-.829q-.724-.68-1.378-1.429c-.2-.224-.369-.486-.58-.694 1.335 1.321.522.678.2.206a19.823 19.823 0 0 1-1.127-1.857q-.213-.4-.406-.808c-.685-1.44.448 1.34.048.123-.226-.686-.457-1.361-.635-2.062a6.774 6.774 0 1 0-13.061 3.6z"/><path d="M1134.179 1597.572c-7.861 8.708-12.675 20.947-9.471 32.655 2.653 9.692 10.449 17.044 19.424 21.068 9.249 4.148 19.246 5.786 29.351 5.819a87.955 87.955 0 0 0 29.761-4.922c19.61-7.031 39.3-22.8 41.247-44.941a27.19 27.19 0 0 0-3.629-16.131 30.972 30.972 0 0 0-12.274-11.185c-9.382-4.91-20.395-6.939-30.895-7.331a89.994 89.994 0 0 0-58.153 18.909q-2.887 2.243-5.562 4.736a6.828 6.828 0 0 0 0 9.578 6.917 6.917 0 0 0 9.578 0c1.691-1.58 3.463-3.043 5.258-4.5-1.6 1.3-.252.2.159-.1q.695-.514 1.4-1.013 1.489-1.054 3.028-2.038 2.832-1.812 5.81-3.381 1.445-.762 2.919-1.467.781-.372 1.569-.728.351-.159.7-.314c.225-.1 1.548-.667.427-.191s.738-.294.971-.386q.716-.282 1.437-.551 1.621-.606 3.268-1.144 3.292-1.077 6.665-1.88t6.8-1.326l.761-.112c1.129-.168-.588.069-.657.086a12.7 12.7 0 0 1 1.719-.2q1.816-.2 3.641-.313a81 81 0 0 1 13.433.25c.574.059 1.145.13 1.718.195.941.108-1.835-.27-.467-.064.253.038.506.073.76.112q1.71.259 3.406.6 3.392.672 6.713 1.652 1.56.463 3.094 1.015c.543.2 1.079.409 1.618.616.45.173.918.577-.553-.238.332.184.708.312 1.052.472a35.093 35.093 0 0 1 5.716 3.37c.687.495-1.121-.921-.485-.365.234.2.478.4.711.605q.558.495 1.084 1.025t1.012 1.094c.13.151.924 1.134.175.185-.716-.907-.014.005.134.223q.48.7.895 1.443c.148.262.8 1.164.757 1.5 0-.011-.642-1.665-.258-.6.083.23.171.458.249.689.2.575.365 1.159.506 1.75.127.531.218 1.067.316 1.6.156.849-.165-1.58-.1-.719.019.243.047.484.065.727a24.287 24.287 0 0 1-.008 3.486c-.018.247-.045.493-.065.739-.1 1.149.11-.674.105-.691a5.059 5.059 0 0 1-.291 1.665 31.875 31.875 0 0 1-.928 3.491c-.158.488-.329.972-.509 1.452-.09.241-.188.479-.279.72-.393 1.04.182-.464.235-.546-.649 1.008-1.052 2.254-1.637 3.311q-.8 1.446-1.712 2.826-.426.645-.877 1.274c-.187.261-.381.516-.569.776-.487.671.984-1.212.238-.311a61.593 61.593 0 0 1-4.578 4.991q-1.209 1.168-2.483 2.268-.565.487-1.142.96c-.45.369-2.179 1.494-.386.327-1.876 1.22-3.628 2.6-5.551 3.764q-2.8 1.692-5.759 3.1-.761.364-1.53.709l-.687.3c-1.01.449.516-.207.582-.24A27.815 27.815 0 0 1 1200 1639q-3.2 1.163-6.487 2.036t-6.671 1.474q-.748.134-1.5.252c-.324.052-2.281.329-.984.155s-.73.085-.989.114q-.946.106-1.9.191a86.56 86.56 0 0 1-13.491.151q-1.605-.108-3.206-.274c-.477-.05-.953-.108-1.429-.163-1.084-.123.76.106.779.107a9.7 9.7 0 0 1-1.024-.154 60.084 60.084 0 0 1-6.157-1.3 58.174 58.174 0 0 1-5.992-1.992c-.424-.165-1.075-.555.653.281-.207-.1-.426-.185-.636-.28q-.632-.282-1.254-.586-1.462-.712-2.865-1.543-1.234-.732-2.406-1.563c-.181-.13-.359-.264-.541-.394-1.011-.724 1.106.911.449.346-.418-.359-.85-.7-1.26-1.071a26.908 26.908 0 0 1-1.972-1.967c-.291-.324-.565-.66-.847-.991-.68-.8.456.6.459.6a3.861 3.861 0 0 1-.567-.8 22.467 22.467 0 0 1-1.5-2.529c-.2-.393-.362-.8-.56-1.195 1.022 2.023.17.347-.029-.258a28.231 28.231 0 0 1-.77-3.126c-.189-.923.161 1.834.058.453-.019-.258-.049-.514-.067-.772a23.16 23.16 0 0 1-.052-1.936q.01-.775.072-1.55c.021-.258.051-.515.074-.773.1-1.145-.088.572-.088.642a13.552 13.552 0 0 1 .828-3.625q.253-.852.559-1.686c.09-.248.187-.493.281-.74.4-1.049-.173.426-.225.52.612-1.1 1.08-2.276 1.718-3.368q.854-1.464 1.848-2.839a6.578 6.578 0 0 0 .474-.64c-.695 1.281-.663.834-.323.434.429-.5.849-1.007 1.291-1.5 2.374-2.629 2.79-7.017 0-9.578-2.59-2.377-7.042-2.808-9.577 0zm41.802 156.976a480.628 480.628 0 0 0 68.236-18.806q9.4-3.357 18.662-7.105a7.415 7.415 0 0 0 4.047-3.112 6.771 6.771 0 0 0-2.43-9.266 6.555 6.555 0 0 0-5.218-.683 480.573 480.573 0 0 1-67.393 21.635q-9.707 2.341-19.5 4.276c-3.482.689-5.8 5.027-4.73 8.331a6.944 6.944 0 0 0 8.331 4.73zM29.17 466.472A72.733 72.733 0 0 0 16 471.938a62.558 62.558 0 0 0-5.362 3.234c-2.67 1.8-5.22 3.853-5.943 7.18-.685 3.148.274 5.845 1.353 8.728q1.217 3.249 2.384 6.517 2.294 6.423 4.393 12.912A504.59 504.59 0 0 1 26.536 563.6a15.544 15.544 0 0 0 3.656 7.567c2.4 2.585 5.876 3.5 9.278 3.648 5.172.233 10.4 0 15.58-.009 3.542-.008 6.936-3.11 6.772-6.773a6.889 6.889 0 0 0-6.772-6.772l-12.985.028c-.931 0-1.861-.015-2.792-.027-1.2-.016 1.4.356.255.053-.179-.047-.375-.111-.556-.142-.732-.125 1.324.8.4.158-.026-.018 1.054 1.009.643.506-.021-.027-.379-.361-.365-.376.091-.1.8 1.28.549.664a4.341 4.341 0 0 0-.259-.459c-.554-.975.514 1.484.093.11a17.127 17.127 0 0 1-.323-1.241c-1.841-8.138-3.407-16.32-5.443-24.417a455.42 455.42 0 0 0-15.08-48.41c-.4-1.082-.868-2.156-1.2-3.262a2.539 2.539 0 0 0-.169-.629c.31.372.089 1.528-.035 1.936.055-.18-.925 1.871-1.052 1.7a4.268 4.268 0 0 1 .511-.493c.058.033-1.228.867-.657.516.24-.147.466-.324.7-.482q.741-.5 1.5-.985 1.415-.9 2.876-1.728c1.888-1.066 3.835-1.991 5.805-2.892.687-.313-.6.249-.588.246.35-.113.7-.284 1.038-.418q.727-.288 1.464-.556a66.324 66.324 0 0 1 3.4-1.128c3.385-1.03 5.877-4.785 4.73-8.331-1.1-3.415-4.7-5.835-8.331-4.73zm31.208 175.402-6.345 3.734a48.991 48.991 0 0 0-6.689 4.281 10.482 10.482 0 0 0-3.691 8.488 38.374 38.374 0 0 0 1.771 7.892q3.916 13.963 7.153 28.105t5.784 28.419c1.586 8.887 2.259 18.382 6.66 26.452a24.109 24.109 0 0 0 10.588 10.291 22.166 22.166 0 0 0 8.494 2.223 18.246 18.246 0 0 0 8.472-1.895 6.787 6.787 0 0 0 3.112-4.047A6.923 6.923 0 0 0 95 750.6c-2.159-3.349-5.8-3.992-9.266-2.429-.086.039 1.485-.542.8-.343-.223.065-.439.154-.663.219-.332.1-.674.152-1.008.241-.616.165.95-.118.95-.117a3.855 3.855 0 0 0-.685.049c-.461.019-.916-.006-1.376-.026-1.158-.053 1.561.313.425.056-.4-.09-.8-.172-1.193-.285q-.51-.147-1.009-.329c-1.36-.5 1.28.625-.022-.029a16.91 16.91 0 0 1-2.02-1.2c-.15-.1-.294-.214-.444-.318-.685-.477 1.129.948.514.384-.313-.287-.64-.556-.946-.852s-.595-.6-.876-.916c-.182-.2-.989-1.21-.271-.287.757.971-.2-.34-.358-.583q-.447-.7-.842-1.426-.3-.545-.565-1.1a8.151 8.151 0 0 0-.347-.75c-.019-.031.538 1.36.282.666-.337-.909-.678-1.811-.961-2.74a54.022 54.022 0 0 1-1.332-5.5c-.8-4.1-1.393-8.238-2.116-12.351q-4.619-26.286-11.571-52.091-.984-3.648-2.012-7.283c-.31-1.094-.611-2.19-.914-3.286-.176-.635.177-.678.036.6.01-.091-.1-.754-.026-.792.032-.015-.239 1.538-.09.841.206-.97-.713 1.854-.955 1.561a4.877 4.877 0 0 1 .374-.374c.45-.549-1.152.754-.523.4.435-.246.851-.537 1.283-.792l3.172-1.866 6.769-3.983c3.054-1.8 4.416-6.186 2.429-9.266a6.894 6.894 0 0 0-9.266-2.43zm1169.19-466.045a23.39 23.39 0 0 1 2.252-1.3c.373-.189.75-.37 1.129-.546.284-.131 1.867-.814.678-.31s.409-.153.725-.274q.693-.267 1.394-.518 1.351-.487 2.719-.925a90.211 90.211 0 0 1 6.22-1.787l-6.589-1.741c4.9 6.007 9.813 12.012 14.645 18.077q3.359 4.215 6.675 8.462 1.548 1.982 3.087 3.97c.2.263 1.223 1.571.113.145.294.378.585.758.878 1.137l1.751 2.279q6.558 8.55 13 17.19c17.291 23.156 34.091 46.671 51.351 69.849 9.976 13.4 20.107 26.68 30.538 39.725l1.37-10.637a41.891 41.891 0 0 0-9.232 8.092 82.661 82.661 0 0 0-6.761 10.4c-1.77 3.071-.816 7.551 2.43 9.266a6.893 6.893 0 0 0 9.266-2.429c.974-1.689 1.937-3.384 2.96-5.044.383-.621.774-1.236 1.181-1.842.223-.329.449-.657.681-.979.328-.455 1.335-1.562-.179.2a37.436 37.436 0 0 1 3.047-3.275c.655-.6 1.371-1.133 2.034-1.725-1.624 1.451-.32.254.1-.053s.869-.619 1.308-.922a6.878 6.878 0 0 0 3.233-4.947 7.014 7.014 0 0 0-1.863-5.689q-3.44-4.3-6.838-8.639-1.625-2.075-3.24-4.155c-.49-.63-.968-1.27-1.467-1.893 1.129 1.408.092.12-.112-.145l-1.169-1.518q-6.569-8.544-13.015-17.178c-8.606-11.508-17.087-23.107-25.559-34.713-17.285-23.676-34.559-47.368-52.716-70.387-5.891-7.468-11.9-14.837-17.92-22.206-1.514-1.856-4.41-2.275-6.589-1.742a90.85 90.85 0 0 0-6.513 1.881 49.553 49.553 0 0 0-11.839 5.139c-2.96 1.938-4.481 6.084-2.43 9.266 1.905 2.955 6.1 4.506 9.266 2.43z"/></svg></g><g transform="translate(317.0 312.0) rotate(0.0 477.5 452.5) scale(0.6263543683462146 0.6266388683663698)"><svg width="1524.696" height="1444.213" viewBox="0 0 1524.696 1444.213"><path d="m10.43 1060.83 66.9-508.694s27.575-198.522 30.749-226.31 14.043-201.894 14.043-201.894 114.837 76.843 116.315 77.942 97.633-41.423 146.911-51.574 186.674-18.084 186.674-18.084L611.8 8.063s87.182 97.747 113.84 115.869 198.975 195.229 237.413 236.027S1110.24 520.42 1164.292 581.38s200.524 224.552 246.177 296.836 116.408 170.267 107.461 172.835-1022.772 274.611-1022.772 274.611L83.922 1431.736 8.2 1085.806z" fill="#fff"/><path d="M357.9 230.191c10.174 10.092 26.3 22.3 40.58 23.461 26.234 2.133 55.127-9.954 72.018-31.764s21.075-51.867 14.531-78.665c-.784-3.209-2.042-6.778-5.082-8.071-2.143-.912-4.6-.412-6.867.1L357.336 161.4c-14.784 3.339-34.68 3.1-26.135 22.627 6.399 14.623 15.552 35.014 26.699 46.164zm170.007 77.921c4.894-35.9 31.125-66.759 63.615-82.791s70.375-18.574 106.2-13.159c14.383 2.174 29.162 5.858 40.3 15.214 21.732 18.259 22.128 53.769 6.729 77.613s-42.528 37.63-69.814 45.448c-40.569 11.624-156.718 28.748-147.03-42.325z" fill="#4e4e4e"/><path d="M605.433 265.726c17.632-12.975 40.216-16.807 61.963-19.317 14.2-1.638 28.661-2.865 42.693-.168 7.855 1.51 16.949 6.175 16.888 14.174-.03 4-2.47 7.536-4.937 10.682-19.184 24.475-46.532 42.122-76.346 50.662-15 4.3-84.149 16.7-72.847-13.072 6.062-15.971 18.888-32.881 32.586-42.961z" fill="#fff"/><g fill="#b1b1b1"><path d="M486.227 414.944c2.608-6.122 7.685-10.956 13.449-14.282a41.843 41.843 0 0 1 37.37-2.179c11.823 5.293 20.714 16.887 22.3 29.743.668 5.406-.051 11.327-3.618 15.443-2.39 2.757-5.8 4.417-9.246 5.619-24.098 8.412-76.148 2.958-60.255-34.344z"/><path d="M421.753 455.117c-6.334-10.464 4-30.856 13.538-38.508 4.772-3.826 23.785-15.639 29.558-17.663s8.2 6.764 12.968 10.6c13.667 11.022 11.163 40.358.042 52.084-10.092 10.648-42.568 15.85-56.106-6.513zm651.147 33.612c-23.09 59.157-19.093 131.555 21.7 180.221 24.453 29.171 59.75 47.635 96.355 58.078s74.849 13.5 112.8 16.444c-13.272-24.849-37.9-41.659-53.663-65-7.38-10.925-12.777-23.226-21.366-33.229-6.13-7.138-13.69-12.873-20.886-18.935-17.255-14.535-32.619-31.152-47.932-47.719l-52.388-56.681M30.41 910.4c2.788-21.923 6.217-64.141 26.942-71.813 20.117-7.446 44.053 24.026 56.834 41.253a141.522 141.522 0 0 1 27.637 83.779c-.031 30.185-9.759 59.607-11.225 89.756-1.576 32.428 6.037 67.107-8.8 95.983-12.432 24.191-15.359 42.6-41.617 49.689-17.536 4.735-39.636 1.7-42.5-1.541-10.564-11.928-14.512-28.15-18.109-43.672-4.848-20.918-12.357-42.844-13.62-64.353-.831-14.143 3.5-26.906 6.263-40.594 9.129-45.315 7.007-93.738 18.195-138.487z"/></g><path d="M475.561 456.948c2.659-3.385 5.536-6.93 9.591-8.374 2.857-1.018 5.983-.866 9-.62a167.924 167.924 0 0 1 52.632 13.1c-3.136 2.493-7.081 3.683-10.919 4.831q-33.832 10.124-67.3 21.434c-6.343 2.144-22.325 10.673-15.35-1.953 5.572-10.066 15.223-19.354 22.346-28.418z" fill="#d9aeb5"/><path d="M1516.129 1044.52q-159.091 42.11-318.086 84.589c-115.015 30.75-230.036 61.507-344.763 93.316q-137.514 38.127-275.236 75.47-158.916 42.94-317.978 85.334-58.923 15.73-117.856 31.415c-19.425 5.17-39.577 9.271-58.667 15.6-.855.284-1.756.467-2.629.7l8.331 4.731q-24.776-115.827-49.935-231.567-12.995-59.9-26.068-119.778c-1.859-8.512-14.92-4.91-13.061 3.6q35.933 164.554 71.267 329.24 2.37 11.051 4.736 22.1c.771 3.6 4.955 5.627 8.331 4.73q73-19.374 145.974-38.857 155.931-41.592 311.763-83.556c95.026-25.62 190.062-51.234 284.831-77.8 109.122-30.583 218.616-59.856 328.08-89.183q168.023-45.016 336.183-89.513l28.384-7.516c8.419-2.228 4.848-15.3-3.6-13.061z"/><path d="M115.391 123.056c-3.566 67.477-4.293 135.112-14.012 202.1Q88.2 416.034 76.351 507.1c-10.569 80.978-19.943 162.093-29.7 243.17-8.493 70.53-16.995 141.107-27.434 211.384-3.568 24.022-8.107 47.789-12.323 71.693-3.483 19.741-7.294 41.107-4.981 61.253.14 1.217.266 2.459.523 3.662 1.822 8.519 14.882 4.914 13.061-3.6-.482-2.256.053 1.514-.114-.727-.18-2.415-.355-4.816-.4-7.241a219.262 219.262 0 0 1 2.2-31.97c3.234-24.875 8.933-49.446 12.784-74.245 10.443-67.225 18.626-134.818 26.852-202.34 9.928-81.494 19.183-163.067 29.64-244.5q12.255-95.429 25.928-190.666c4.406-30.651 8.212-61.232 10.352-92.141 2.433-35.141 3.624-70.347 5.143-105.534q.48-11.126 1.054-22.246c.46-8.711-13.087-8.685-13.545 0z"/><path d="M120.827 129.78q23.333 14.737 46.319 30.01 22.157 14.8 43.809 30.339 12.855 9.227 25.536 18.691a6.805 6.805 0 0 0 5.219.683 6.907 6.907 0 0 0 4.047-3.112 6.834 6.834 0 0 0 .683-5.219 7.87 7.87 0 0 0-3.112-4.047q-22.126-16.489-44.762-32.277-21.878-15.214-44.245-29.7-13.27-8.622-26.657-17.061a6.833 6.833 0 0 0-9.266 2.43 6.916 6.916 0 0 0 2.429 9.266z"/><path d="M247.775 207.721q15.593-7.358 31.439-14.162l1.907-.814.818-.347c.176-.075 1.325-.56.552-.234-.711.3.195-.082.281-.118l1.088-.457 2.178-.908q3.8-1.58 7.615-3.121 7.846-3.169 15.757-6.174c20.423-7.753 41.179-14.642 62.234-20.47a619.615 619.615 0 0 1 62.971-14q8.071-1.351 16.177-2.48c.653-.091 1.307-.179 1.96-.27.8-.11-.327.044-.4.054.374-.053.748-.1 1.122-.149q2.106-.276 4.212-.538 3.941-.489 7.886-.926 16.331-1.806 32.744-2.706a625.232 625.232 0 0 1 67.585 0q4.227.227 8.453.505c3.542.233 6.929-3.281 6.772-6.772a6.932 6.932 0 0 0-6.772-6.773 635.209 635.209 0 0 0-68.259-.885 613.261 613.261 0 0 0-130.411 19.814c-21.247 5.6-42.2 12.3-62.817 19.9-21.679 7.986-43 16.95-63.978 26.629q-3.984 1.838-7.951 3.712c-3.213 1.516-4.291 6.378-2.429 9.266 2.13 3.305 5.829 4.051 9.266 2.429z"/><path d="M580.886 135.441q4.27-25.212 10.911-49.942 6.612-24.579 15.527-48.46 2.5-6.7 5.185-13.337a687.931 687.931 0 0 1 2.77-6.723c.294-.7-.225.533-.227.537.125-.287.244-.576.366-.864q.367-.864.737-1.726.74-1.725 1.491-3.444a7.4 7.4 0 0 0 .683-5.219 6.908 6.908 0 0 0-3.112-4.048c-2.93-1.547-7.752-1.036-9.266 2.43-7.027 16.09-13.351 32.476-18.831 49.155q-8.013 24.405-13.673 49.5-3.2 14.189-5.623 28.536a7.344 7.344 0 0 0 .683 5.219 6.9 6.9 0 0 0 4.048 3.112c3.278.747 7.7-1 8.331-4.73z"/><path d="M607.578 11.881c35.105 43.137 74.722 82.468 114.645 121.094 25.9 25.054 52.154 49.7 78.4 74.393 33.3 31.327 66.247 63.027 98.427 95.5 34.923 35.242 68.312 71.707 100.987 109.026 59.939 68.457 123.083 134.087 184.255 201.433 69.7 76.738 139.431 154.6 199.95 238.919 45.628 63.571 87.155 130.364 125.715 198.444q1.068 1.886 2.129 3.777c4.252 7.611 15.956.789 11.7-6.837-32.811-58.732-68.53-116.112-106.464-171.656-58.922-86.273-127.567-165.563-197.257-243.222-63.417-70.668-129-139.364-192.376-210.061-30.561-34.088-60.319-68.761-92.074-101.776-33.808-35.149-68.665-69.28-104-102.884-63.9-60.75-129.787-119.803-188.654-185.561Q629.719 17.679 617.156 2.3c-5.5-6.763-15.037 2.871-9.578 9.578zm-36.39 309.842c3.083-5.915 6.173-11.829 9.545-17.587a164.315 164.315 0 0 1 5.222-8.373q1.338-2 2.748-3.948.642-.883 1.3-1.755l.264-.348q.66-.861-.259.333c-.013-.276.9-1.138 1.087-1.367a88.63 88.63 0 0 1 13.319-13.323c.263-.211.53-.418.793-.63.735-.589-1.377 1.038-.25.192.648-.486 1.295-.972 1.952-1.445q1.806-1.3 3.672-2.519 3.908-2.55 8.037-4.733 4.05-2.151 8.265-3.968c.43-.186 1.423-.511-.3.122.382-.14.756-.315 1.134-.469q.948-.387 1.9-.758 2.293-.892 4.618-1.7a153.328 153.328 0 0 1 17.817-4.964q4.608-1 9.266-1.751c.635-.1 1.27-.2 1.9-.294 1.4-.211-1.73.206-.318.044.376-.043.751-.09 1.126-.131q2.107-.232 4.222-.364a127.337 127.337 0 0 1 18.353.265q2.739.224 5.47.536c.843.1 1.686.2 2.528.308 1.53.188-1.642-.234-.116-.017.561.08 1.121.158 1.682.24q5.214.771 10.382 1.823a191.72 191.72 0 0 1 19.572 5.039 6.832 6.832 0 0 0 8.331-4.73 6.92 6.92 0 0 0-4.73-8.331 199.862 199.862 0 0 0-38.492-7.971 141.51 141.51 0 0 0-19.03-.882 120.422 120.422 0 0 0-19.325 2.255c-25.311 4.807-50.745 15.4-68.245 34.918-10.5 11.706-17.918 25.594-25.14 39.445-1.636 3.14-.91 7.5 2.43 9.266 3.115 1.647 7.517.925 9.266-2.429zm-381.235 79.764c4.782-4.916 9.62-9.778 14.626-14.467q3.676-3.442 7.484-6.745 1.862-1.608 3.76-3.171.99-.815 1.99-1.615a14.14 14.14 0 0 0 2.01-1.585l-.7.538.677-.518q.508-.387 1.02-.769 1.021-.765 2.057-1.514 2.066-1.494 4.182-2.917c2.817-1.892 5.7-3.682 8.663-5.344a111.33 111.33 0 0 1 8.713-4.414q.584-.263 1.169-.519l.391-.17q.982-.42-.395.164a11.784 11.784 0 0 1 2.507-1.006q2.517-.97 5.08-1.811 5.121-1.68 10.389-2.852 2.412-.54 4.845-.977 1.327-.24 2.661-.449.555-.087 1.112-.169l.668-.1q1.122-.156-.463.059a4.894 4.894 0 0 0 1.341-.169q.67-.081 1.342-.155 1.344-.147 2.691-.267 2.7-.24 5.4-.37 5.418-.263 10.845-.109 5.2.142 10.381.638c1.8.171 3.593.382 5.386.6 1.6.2-1.6-.233-.012 0l.893.127q1.5.217 2.987.463a139.109 139.109 0 0 1 19.015 4.481c3.441 1.08 6.819 2.325 10.158 3.685 1.347.55-1.489-.649-.158-.065.483.211.968.42 1.449.635q1.082.483 2.153.988 2.318 1.092 4.583 2.285 4.705 2.48 9.169 5.388 2.16 1.407 4.256 2.908 1.135.813 2.252 1.652c.318.24.628.5.956.727-1.723-1.179-.15-.11.212.177a7.37 7.37 0 0 0 4.789 1.983 6.894 6.894 0 0 0 4.789-1.983c2.245-2.446 2.967-7.23 0-9.578a127.521 127.521 0 0 0-36.05-20.192 151.519 151.519 0 0 0-41.786-8.219 137.071 137.071 0 0 0-44.7 4.241 120.859 120.859 0 0 0-38.706 18.934c-12.984 9.392-24.518 20.5-35.669 31.964-2.472 2.542-2.72 7.08 0 9.578a6.888 6.888 0 0 0 9.578 0z"/><path d="M184.6 403.6a191.393 191.393 0 0 0 85.748 13.487 242.59 242.59 0 0 0 40.744-6.839 159.591 159.591 0 0 0 32.577-11.748c12.334-6.142 23.488-14.444 33.613-23.745a6.824 6.824 0 0 0 0-9.578 6.921 6.921 0 0 0-9.578 0 175.017 175.017 0 0 1-7.315 6.373c-1.1.9-2.223 1.763-3.326 2.656 1.744-1.413-.176.126-.591.436q-.974.729-1.96 1.441a127.646 127.646 0 0 1-14.277 8.96q-3.521 1.891-7.157 3.554-.867.4-1.739.779c-.5.222-2.673 1.1-.452.206-1.291.517-2.573 1.054-3.872 1.551a161.867 161.867 0 0 1-15.942 5.122c-5.679 1.525-11.423 2.8-17.192 3.931-3.331.654-6.669 1.283-10.021 1.816q-1.12.179-2.242.342c-.449.066-.9.128-1.348.192-1.6.229 1.6-.2 0 0-1.8.222-3.6.436-5.408.614a190.6 190.6 0 0 1-42.1-.649c-1.6-.2 1.6.23 0 0-.6-.086-1.2-.169-1.8-.258q-1.346-.2-2.689-.42-2.91-.475-5.8-1.044-5.787-1.134-11.494-2.634a184.684 184.684 0 0 1-22.788-7.611 6.786 6.786 0 0 0-5.219.682 6.774 6.774 0 0 0-2.43 9.266 7.932 7.932 0 0 0 4.058 3.118zm378.94-76.206c25.994 5.2 53.269 7.248 79.531 2.869a108.615 108.615 0 0 0 35.366-12.494 137.665 137.665 0 0 0 31.906-24.781c10.363-10.822 19-23.391 24.111-37.536 1.206-3.337-1.355-7.562-4.73-8.331a6.949 6.949 0 0 0-8.331 4.73q-.376 1.046-.781 2.079c-.136.346-.278.691-.416 1.036-.519 1.3.669-1.521.1-.239a96.815 96.815 0 0 1-1.915 4.106 92.37 92.37 0 0 1-4.352 7.726c-1.681 2.682-3.5 5.262-5.4 7.8-.872 1.165.987-1.247.082-.1-.249.315-.5.631-.746.944q-.628.786-1.269 1.561-1.548 1.868-3.169 3.674A130.936 130.936 0 0 1 689.71 293.7q-.941.781-1.9 1.546c-.4.324-2.631 1.989-.872.7-1.306.959-2.59 1.947-3.912 2.886q-3.753 2.664-7.688 5.06-4.007 2.434-8.194 4.556-1.874.945-3.782 1.82c-.685.313-1.375.614-2.064.918-1.283.564 1.536-.627.242-.1-.344.139-.686.282-1.031.42a96.6 96.6 0 0 1-16.824 4.924q-2.295.464-4.606.84-.972.16-1.948.3c-.392.059-.784.113-1.177.17q-1.1.151.619-.082c-.264.035-.527.069-.791.1q-4.6.579-9.238.882c-6.432.43-12.886.5-19.329.309-7.2-.219-14.391-.778-21.545-1.627q-1.183-.141-2.365-.292c-.392-.05-.783-.107-1.175-.153 2.268.263.341.045-.144-.023q-2.492-.35-4.974-.746-4.954-.792-9.874-1.777c-3.464-.692-7.479.99-8.331 4.73-.767 3.367 1.015 7.588 4.73 8.331zm-108.717 71.055c4.066 4.3 8.357 8.726 13.657 11.5 5.918 3.1 13.259 4.535 19.65 2 6.149-2.438 10.925-7.172 14.775-12.431a42.182 42.182 0 0 0 6.69-14.436 43.838 43.838 0 0 0 .467-19.195c-.676-3.485-5.037-5.8-8.331-4.731a6.946 6.946 0 0 0-4.73 8.331c.107.553.2 1.107.288 1.663.14.862-.177-1.555-.1-.686.023.248.054.5.077.745a35.074 35.074 0 0 1 .141 3.551q-.017 1.5-.159 2.989c-.024.249-.055.5-.079.745-.11 1.124.093-.629.095-.686a12.113 12.113 0 0 1-.32 1.845 41.693 41.693 0 0 1-1.912 6.464c-.165.44-.569.976.253-.579-.115.217-.2.464-.3.686q-.312.682-.65 1.351-.761 1.5-1.655 2.937-.448.714-.928 1.407c-.139.2-1.244 1.624-.463.675s-.442.534-.644.772q-.606.711-1.251 1.39-1.032 1.086-2.158 2.079c-.187.165-.377.328-.568.489-.137.116-1.121.984-.3.261.742-.65.011-.018-.2.133-.3.213-.606.421-.918.618-.565.356-1.154.641-1.737.962-.781.43 1.237-.417.41-.175-.33.1-.65.223-.983.315-.527.146-1.081.195-1.6.34.139-.038 1.712-.139.578-.111-.412.01-.819.036-1.232.03-.551-.008-1.1-.1-1.648-.108 1.961.04.395.035-.249-.114a20.303 20.303 0 0 1-2.603-.792c-1.243-.469.151-.14.262.12-.111-.26-1.558-.78-1.858-.951q-.924-.528-1.806-1.127a38.37 38.37 0 0 1-.7-.487c-.387-.277-1.28-1.2.014.033-.51-.485-1.1-.9-1.631-1.369-2.142-1.886-4.106-3.963-6.065-6.035a6.833 6.833 0 0 0-9.578 0 6.912 6.912 0 0 0 0 9.578z"/><path d="M476.974 412.694a40.382 40.382 0 0 1 .662 4.324c-.023-.415-.161-1.251-.05-.355.04.322.082.643.121.965q.132 1.084.247 2.173.465 4.35.673 8.722a151.473 151.473 0 0 1-.173 17.245c-.236 3.542 3.283 6.929 6.772 6.773a6.934 6.934 0 0 0 6.774-6.773 158.978 158.978 0 0 0-1.964-36.675 6.789 6.789 0 0 0-3.112-4.047 6.913 6.913 0 0 0-5.219-.683c-3.789 1.226-5.355 4.576-4.73 8.331z"/><path d="M480.445 439.616q-17.834 20.534-37.019 39.835-19.095 19.2-39.456 37.086-11.514 10.114-23.41 19.783a6.79 6.79 0 0 0-1.984 4.789 6.893 6.893 0 0 0 1.984 4.789 6.815 6.815 0 0 0 4.788 1.984 7.756 7.756 0 0 0 4.789-1.984q21.1-17.159 41.012-35.71 19.809-18.465 38.343-38.236 10.482-11.181 20.53-22.758c2.322-2.673 2.825-6.985 0-9.578-2.547-2.338-7.1-2.856-9.577 0z"/><path d="M485.033 451.645a543.574 543.574 0 0 0 69.68 13.45c21.834 2.827 43.8 4.432 65.79 5.462 12.231.573 24.47.972 36.709 1.335a6.829 6.829 0 0 0 6.772-6.773 6.907 6.907 0 0 0-6.772-6.772c-21.659-.642-43.322-1.407-64.934-3.021-11.023-.823-22.031-1.866-33-3.2q-1.94-.237-3.877-.485-1.028-.132-2.055-.267c-.3-.04-.61-.083-.915-.121 1.988.248.334.044-.03-.006q-4.136-.564-8.262-1.188-8.355-1.264-16.667-2.784-19.578-3.587-38.835-8.689c-3.421-.907-7.514 1.142-8.331 4.731a6.894 6.894 0 0 0 4.73 8.331z"/><path d="M428.394 513.812c4.389-2.536 8.9-4.863 13.477-7.032q3.662-1.734 7.381-3.341c.634-.275 1.271-.541 1.9-.817-2.224.968.115-.046.632-.26q1.957-.81 3.926-1.592c11.024-4.381 22.288-8.15 33.658-11.523a588.835 588.835 0 0 1 71.423-16.27q4.68-.774 9.372-1.47 2.412-.359 4.828-.694c.68-.095 1.36-.186 2.04-.28-2.569.356.273-.034.891-.114q8.571-1.111 17.181-1.9a7.279 7.279 0 0 0 4.789-1.984 6.883 6.883 0 0 0 1.983-4.789c-.152-3.4-2.994-7.111-6.772-6.772a556.949 556.949 0 0 0-68.831 10.865c-24.013 5.234-47.872 11.736-70.83 20.563a238.545 238.545 0 0 0-33.889 15.71c-3.068 1.774-4.4 6.2-2.43 9.267a6.9 6.9 0 0 0 9.266 2.429zm-124.047-110.58a39.316 39.316 0 0 0-5.163-31.329c-1.972-2.937-6.06-4.5-9.266-2.43-2.926 1.886-4.542 6.12-2.43 9.266.606.9 1.174 1.828 1.688 2.787q.384.717.732 1.455c.115.246.228.493.337.742q-.62-1.493-.212-.491a36.527 36.527 0 0 1 1.772 6.264c.047.268.092.536.133.8q-.216-1.692-.081-.588c.052.541.111 1.081.146 1.624a32.187 32.187 0 0 1 .046 3.258q-.029.813-.1 1.625-.036.406-.081.811-.135 1.1.08-.589a32.008 32.008 0 0 0-.662 3.19c-.88 3.426 1.122 7.509 4.73 8.331a6.889 6.889 0 0 0 8.331-4.73zm331.416-86.051a77.475 77.475 0 0 1-3.156-11.964 18.231 18.231 0 0 1-.474-3c0 1.832.062.409.01-.055a74.145 74.145 0 0 1-.166-1.628c-.19-2.1-.288-4.2-.31-6.3-.037-3.541-3.088-6.937-6.772-6.772a6.884 6.884 0 0 0-6.773 6.772 83.347 83.347 0 0 0 4.58 26.55c1.167 3.336 4.686 5.909 8.331 4.73 3.3-1.067 5.983-4.751 4.73-8.331zM252.181 504.829l-32.3 17.189a6.83 6.83 0 0 0-2.43 9.266 6.922 6.922 0 0 0 9.266 2.429l32.3-17.189a6.829 6.829 0 0 0 2.43-9.266 6.921 6.921 0 0 0-9.266-2.429zm10.104 28.071q-2.493 4.42-5.343 8.623-1.4 2.053-2.879 4.046c-.258.347-.519.69-.778 1.036-.921 1.228.955-1.208 0 0a143.21 143.21 0 0 1-1.619 2.022 120.073 120.073 0 0 1-14.132 14.533c-2.683 2.332-2.567 7.221 0 9.578a6.94 6.94 0 0 0 9.577 0 125.735 125.735 0 0 0 26.867-33c1.741-3.086.837-7.54-2.43-9.266a6.888 6.888 0 0 0-9.266 2.43zm29.389 25.94a142.508 142.508 0 0 1-5.489 21.086q-.887 2.578-1.875 5.12-.493 1.27-1.011 2.532c-.181.44-.493 1.773-.019.059a9.791 9.791 0 0 1-.54 1.251q-2.184 5-4.751 9.813c-1.661 3.127-.894 7.51 2.429 9.266 3.136 1.657 7.492.911 9.266-2.43a148.409 148.409 0 0 0 15.052-43.1 7.3 7.3 0 0 0-.683-5.218 6.9 6.9 0 0 0-4.048-3.113c-3.31-.754-7.657 1-8.331 4.73zM421.4 687a317.522 317.522 0 0 0 58.533 3.755 332.133 332.133 0 0 0 58.251-7 328.215 328.215 0 0 0 54.847-16.644 332.885 332.885 0 0 0 52.318-26.424 318.556 318.556 0 0 0 46.625-35.441q2.593-2.382 5.13-4.823a6.773 6.773 0 1 0-9.578-9.578q-10.226 9.83-21.332 18.678-1.333 1.062-2.68 2.11c-1.315 1.024 1.007-.771-.315.244q-.762.583-1.526 1.163-2.887 2.187-5.827 4.307-5.7 4.115-11.588 7.969a321.993 321.993 0 0 1-49.942 26.721c-.262.112-.526.219-.786.334.123-.054 1.508-.631.439-.185l-1.576.656q-1.676.693-3.359 1.366-3.267 1.308-6.563 2.546-6.692 2.514-13.487 4.734-13.488 4.405-27.32 7.636-13.708 3.2-27.66 5.209-.843.122-1.689.239c-.28.038-.565.069-.845.115 1.823-.3.947-.126.533-.072q-1.9.247-3.808.479-3.493.417-7 .759-7.107.692-14.24 1.067a308.928 308.928 0 0 1-56.368-2.159c-1.711-.225 1.4.193-.314-.044q-.845-.117-1.69-.239-1.8-.26-3.587-.54a7.4 7.4 0 0 0-5.219.683 6.9 6.9 0 0 0-3.112 4.047c-.738 3.24.987 7.747 4.73 8.331zm100.713 77.293a213.367 213.367 0 0 0 90.884-19 204.776 204.776 0 0 0 22.64-11.9c3.026-1.839 4.435-6.155 2.429-9.266a6.887 6.887 0 0 0-9.266-2.427 204.808 204.808 0 0 1-19.631 10.522q-2.6 1.215-5.229 2.357c-.405.175-.812.347-1.216.523-.694.3.622-.261.6-.253-.2.082-.407.171-.61.255q-1.325.552-2.656 1.084-5.224 2.09-10.556 3.894a208.121 208.121 0 0 1-21.453 6q-5.493 1.224-11.045 2.148c-1.814.3-3.632.574-5.453.833-1.289.183 1.343-.172.051-.006q-.655.084-1.313.166-1.423.177-2.849.333a204.858 204.858 0 0 1-25.328 1.194 6.773 6.773 0 1 0 0 13.545zM707.418 444.5l54.537 10.11a7.278 7.278 0 0 0 5.218-.682 6.9 6.9 0 0 0 3.113-4.048c.757-3.324-1.006-7.64-4.73-8.331l-54.537-10.11a7.276 7.276 0 0 0-5.219.683 6.9 6.9 0 0 0-3.112 4.047c-.758 3.324 1 7.64 4.73 8.331zm15.747-37.9a226.766 226.766 0 0 0 57.578-1.121 6.758 6.758 0 0 0 4.048-3.112 6.773 6.773 0 0 0-2.43-9.266 7.935 7.935 0 0 0-5.218-.683c-.647.093-1.3.2-1.944.273 1.844-.212.281-.041-.146.013q-1.7.216-3.411.4-3.414.377-6.838.647-6.97.549-13.967.651a220.139 220.139 0 0 1-27.672-1.352 6.76 6.76 0 0 0-4.789 1.983 6.772 6.772 0 0 0 0 9.578 7.814 7.814 0 0 0 4.789 1.984zm-8.484-25.794L730 377.484a6.774 6.774 0 0 0-3.6-13.061l-15.323 3.322a6.774 6.774 0 0 0 3.6 13.061zm-104.63 662.929a256.448 256.448 0 0 0 17.526 55.339q3.255 7.338 6.983 14.454a6.825 6.825 0 0 0 9.266 2.429 6.926 6.926 0 0 0 2.43-9.266q-3.241-6.2-6.138-12.57-.711-1.568-1.4-3.143-.322-.735-.638-1.473l-.361-.844c-.336-.783.541 1.306.06.138a291.055 291.055 0 0 1-2.562-6.386 248.122 248.122 0 0 1-8.565-26.622q-2.025-7.77-3.541-15.657c-.673-3.486-5.039-5.8-8.331-4.73a6.947 6.947 0 0 0-4.73 8.331zm-85.381 115.056a270.263 270.263 0 0 1 16.341 25.3 6.774 6.774 0 0 0 11.7-6.837 270.525 270.525 0 0 0-16.341-25.3 7.344 7.344 0 0 0-4.047-3.112 6.918 6.918 0 0 0-5.219.683c-2.83 1.824-4.66 6.2-2.43 9.266zm-78.741 107.075 13.8 22.531c1.85 3.02 6.148 4.44 9.266 2.43a6.885 6.885 0 0 0 2.43-9.266l-13.8-22.532c-1.85-3.02-6.148-4.439-9.266-2.429a6.885 6.885 0 0 0-2.43 9.266zm232.671-74.348q.648.8 1.287 1.6l.706.9c.536.679.008.024-.219-.289.8 1.108 1.659 2.181 2.468 3.287q2.427 3.315 4.693 6.746 4.532 6.858 8.386 14.13a6.83 6.83 0 0 0 9.266 2.429 6.922 6.922 0 0 0 2.43-9.266 181.668 181.668 0 0 0-19.439-29.113 6.785 6.785 0 0 0-4.789-1.984 6.893 6.893 0 0 0-4.789 1.984 6.816 6.816 0 0 0-1.984 4.789 7.77 7.77 0 0 0 1.984 4.788zm135.494-123.845a428.31 428.31 0 0 1 15.112 48.284 6.84 6.84 0 0 0 8.331 4.731 6.91 6.91 0 0 0 4.73-8.331 428.262 428.262 0 0 0-15.112-48.285 7.322 7.322 0 0 0-3.112-4.047 6.917 6.917 0 0 0-5.219-.683c-3.224 1.044-6.075 4.785-4.73 8.331zm-95.749-163.394 11.341 26.662a6.76 6.76 0 0 0 4.048 3.112 6.922 6.922 0 0 0 5.219-.682 6.837 6.837 0 0 0 3.112-4.048 7.965 7.965 0 0 0-.683-5.218l-11.342-26.662a6.755 6.755 0 0 0-4.047-3.112 6.922 6.922 0 0 0-5.219.682 6.837 6.837 0 0 0-3.112 4.048 7.965 7.965 0 0 0 .683 5.218zm3.31 150.509a94.71 94.71 0 0 1 7.561 11.62q1.645 2.993 3.068 6.1c.245.534.478 1.073.719 1.609q.433 1.01-.164-.4l.336.814q.665 1.632 1.267 3.288a7.279 7.279 0 0 0 3.113 4.048 6.919 6.919 0 0 0 5.218.683c3.256-1.054 6.035-4.77 4.73-8.331a100.283 100.283 0 0 0-14.153-26.264 7.426 7.426 0 0 0-4.047-3.112 6.922 6.922 0 0 0-5.219.682 6.837 6.837 0 0 0-3.112 4.048c-.376 1.652-.392 3.8.683 5.218zm144.121 118.288-.41 11.4a6.773 6.773 0 0 0 11.562 4.789 7.245 7.245 0 0 0 1.983-4.789l.41-11.4a6.773 6.773 0 0 0-11.562-4.789 7.245 7.245 0 0 0-1.983 4.789zm-287.33-260.743 7.614 26.63c.974 3.4 4.827 5.864 8.331 4.73a6.888 6.888 0 0 0 4.73-8.331l-7.614-26.629c-.973-3.4-4.827-5.865-8.331-4.731a6.889 6.889 0 0 0-4.73 8.331zm-49.721 141.899q3.417 3.751 6.527 7.764l-1.059-1.371a125.8 125.8 0 0 1 8.82 13.076c1.793 3.056 6.188 4.414 9.266 2.429a6.894 6.894 0 0 0 2.429-9.266 133.054 133.054 0 0 0-16.406-22.21 6.821 6.821 0 0 0-9.577 0 6.924 6.924 0 0 0 0 9.578zm59.957 116.453 5.719 7.6a6.525 6.525 0 0 0 6.748 3.233 5.037 5.037 0 0 0 2.518-.8 6.842 6.842 0 0 0 3.113-4.048l.242-1.8a6.737 6.737 0 0 0-.925-3.418l-5.719-7.6a6.524 6.524 0 0 0-6.748-3.233 5.03 5.03 0 0 0-2.518.8 6.837 6.837 0 0 0-3.112 4.048l-.242 1.8a6.736 6.736 0 0 0 .924 3.418zm-177.866-19.466 5.706 5.707a6.967 6.967 0 0 0 9.578 0l1.059-1.371a6.74 6.74 0 0 0 .925-3.418l-.242-1.8a6.77 6.77 0 0 0-1.742-2.989l-5.707-5.707a6.965 6.965 0 0 0-9.577 0l-1.059 1.371a6.74 6.74 0 0 0-.925 3.418l.242 1.8a6.763 6.763 0 0 0 1.742 2.988zm358.048-191.367 6.981 32.473a6.821 6.821 0 0 0 8.331 4.73 6.931 6.931 0 0 0 4.73-8.331l-6.98-32.473a6.822 6.822 0 0 0-8.331-4.73 6.932 6.932 0 0 0-4.731 8.331zm132.62 87.648a501.994 501.994 0 0 1 13.794 52.989q1.557 7.688 2.873 15.42a6.8 6.8 0 0 0 3.112 4.048 6.922 6.922 0 0 0 5.219.683c3.777-1.223 5.37-4.579 4.73-8.331a502.212 502.212 0 0 0-12.125-53.4q-2.152-7.542-4.542-15.014c-1.076-3.37-4.753-5.888-8.331-4.73-3.377 1.093-5.884 4.717-4.73 8.331z"/></svg></g><g transform="translate(875.0 784.0) rotate(0.0 144.5 134.5) scale(0.6296529501092633 0.6308659984333885)"><svg width="458.983" height="426.398" viewBox="0 0 458.983 426.398"><path d="M169.811 417.508S7.131 170.37 9.034 88.574 72.489.16 114.948 12.981 227.656 121.934 251.5 141.4s200.779 200.268 200.779 200.268z" fill="#626262"/><path d="M82.647 138c7.8-11.635 19.319-20.323 31.471-27.3 12.611-7.237 26.658-12.972 41.192-12.557s29.548 8.152 35.21 21.545c7.2 17.041-3 37.426-18.293 47.84s-34.333 13.271-52.653 15.857c-12.038 1.7-38.077 10.724-46.762-1.349-6.732-9.357 4.888-36.661 9.835-44.036zm-49.769-30.353c1.155 4.072 3.821 7.554 6.786 10.575a8.66 8.66 0 0 0 3.181 2.313 7.548 7.548 0 0 0 4.169-.024 17.826 17.826 0 0 0 13.127-12.544c1.547-6.175-1.1-13.3-6.547-16.586-11.157-6.732-24.127 4.249-20.716 16.266zM74.817 75.81a17.259 17.259 0 0 0 19.564.092 18.155 18.155 0 0 0 7.02-18.4 13.53 13.53 0 0 0-3.72-6.952C80.88 34.728 54.206 60.729 74.817 75.81zm50.898-6.562c.037 5.014 4.725 9.271 9.727 9.62s9.862-2.666 12.572-6.885a14 14 0 0 0 1.836-11.847 11.9 11.9 0 0 0-2.756-4.446 12.377 12.377 0 0 0-20.575 12.61m321.308 270.76q-26.1 6.942-52.2 13.893-26.652 7.1-53.3 14.212-27.22 7.266-54.436 14.546-27.406 7.334-54.808 14.684-27.606 7.407-55.2 14.834l-6.95 1.871c-3.42.921-5.852 4.864-4.73 8.331a6.9 6.9 0 0 0 8.331 4.73q27.615-7.435 55.236-14.849 27.434-7.362 54.871-14.7 27.263-7.3 54.529-14.576 26.711-7.131 53.425-14.249 26.172-6.972 52.347-13.935l6.488-1.726a6.774 6.774 0 0 0-3.6-13.061z"/><path d="M175.659 414.089q-2.894-4.845-5.779-9.694-7.583-12.732-15.148-25.472-10.722-18.055-21.411-36.129-12.372-20.918-24.688-41.868-12.349-21.011-24.614-42.071-10.886-18.711-21.636-37.5c-5.189-9.1-10.365-18.213-15.334-27.436q-3.3-6.117-6.333-12.367-2.541-5.254-4.9-10.594-.621-1.4-1.228-2.805-.285-.659-.567-1.319c-.115-.269-.771-1.833-.416-.975l-.415-1q-.284-.685-.566-1.373-.666-1.626-1.316-3.258c-7.024-17.644-12.787-35.951-15.868-54.721q-.287-1.751-.54-3.5c-.09-.627-.208-1.575-.055-.353-.09-.717-.183-1.432-.268-2.149q-.408-3.463-.662-6.943a125.247 125.247 0 0 1-.265-13.85q.134-3.42.489-6.829c.053-.5.115-.994.171-1.491.152-1.34-.182 1.155.022-.173.175-1.137.353-2.274.565-3.4a72.045 72.045 0 0 1 3.392-12.271c.167-.441.358-.876.517-1.32.133-.376-.508 1.127.049-.117.448-1 .909-1.99 1.406-2.966a55.683 55.683 0 0 1 3.168-5.455c.516-.783 1.069-1.538 1.609-2.3.685-.975-.749.892.232-.306.348-.426.7-.854 1.053-1.273a52.661 52.661 0 0 1 4.312-4.476c.8-.735 1.618-1.44 2.454-2.13q.861-.709 1.736-1.4c.248-.2.5-.392.746-.588.852-.669-.736.555.122-.093 2.123-1.6 4.284-3.152 6.5-4.618a100.72 100.72 0 0 1 13.426-7.509c.593-.273 1.2-.523 1.79-.8.7-.328-.263.11-.337.14.256-.1.512-.212.769-.314a93.91 93.91 0 0 1 3.6-1.358q3.317-1.162 6.725-2.035 3.483-.886 7.039-1.442c.666-.1 1.505-.181.3-.053.526-.055 1.049-.126 1.575-.181q1.839-.191 3.686-.288a73.13 73.13 0 0 1 6.882-.038q1.733.072 3.46.226.8.07 1.6.159c.356.039.711.091 1.068.126 1 .1-1.186-.205-.2-.025a101.06 101.06 0 0 1 14.288 3.451q1.641.552 3.262 1.166.957.363 1.907.747c.273.11.545.223.818.334-.609-.247-.548-.237.021.014a112.236 112.236 0 0 1 7.4 3.58 128.721 128.721 0 0 1 14.394 8.968c2.861 2.045 4.245 3.113 6.731 5.141s4.926 4.137 7.308 6.3c5.249 4.758 10.238 9.8 15.025 15.018q16.361 17.846 32.9 35.529 20.023 21.395 40.249 42.6 21.551 22.607 43.325 45 20.462 21.02 41.212 41.755c11.414 11.366 22.907 22.661 34.677 33.66 13.878 12.968 28.413 25.183 42.085 38.382q21.96 21.2 42.357 43.962c2 2.237 4 4.479 5.952 6.759 2.312 2.7 7.234 2.553 9.578 0a6.947 6.947 0 0 0 0-9.578c-7.776-9.081-15.955-17.838-24.212-26.479-17.147-17.946-35.117-34.965-53.77-51.333-10.391-9.118-20.361-18.72-30.262-28.364q-19.91-19.393-39.357-39.257-21.783-22.118-43.279-44.517-21.433-22.3-42.656-44.8-18.452-19.56-36.716-39.293c-5.957-6.447-11.778-13.043-17.907-19.328a187.294 187.294 0 0 0-30.847-25.9c-17.677-11.633-38.8-19.284-60.2-17.3C56.76 2.276 36.561 12.438 21.055 26.742 7.2 39.522 1.325 58.039.216 76.41c-1.181 19.573 2.612 39.461 7.984 58.2a337.524 337.524 0 0 0 19.641 51.309c4.135 8.73 8.747 17.2 13.452 25.635C47.434 222.567 53.7 233.5 60 244.425q11.768 20.406 23.678 40.729 12.627 21.585 25.335 43.122 11.8 20.015 23.65 40 9.466 15.974 18.959 31.932 5.438 9.142 10.885 18.279l1.455 2.439c1.816 3.042 6.172 4.424 9.266 2.429a6.89 6.89 0 0 0 2.43-9.266z"/></svg></g><g transform="translate(245.0 251.0) rotate(0.0 361.0 252.0) scale(0.6283183607330614 0.6277315351647983)"><svg width="1149.099" height="802.891" viewBox="0 0 1149.099 802.891"><path d="m191.313 156.066-4.986 1.221-13.57 3.323-20.07 4.915-24.486 6-26.82 6.568-27.07 6.63-25.132 6.155-21.342 5.222-15.351 3.76c-2.424.593-4.864 1.143-7.277 1.782-.1.027-.209.051-.314.076-3.709.909-5.467 4.83-4.73 8.331l2.276 10.811L7.88 246.7l6.605 31.371 5.689 27.025c.925 4.392 1.716 8.838 2.779 13.2.015.061.026.124.039.185.731 3.472 5 5.809 8.331 4.731a6.935 6.935 0 0 0 4.73-8.331l-2.276-10.811-5.439-25.84-6.6-31.371-5.69-27.025c-.925-4.393-1.726-8.834-2.779-13.2-.015-.061-.026-.124-.039-.185l-4.73 8.332 4.986-1.222 13.57-3.323 20.07-4.915 24.487-6 26.82-6.568 27.07-6.629 25.132-6.155 21.342-5.226 15.351-3.76c2.424-.594 4.864-1.144 7.277-1.782.1-.028.209-.051.313-.077a6.837 6.837 0 0 0 4.73-8.331 6.912 6.912 0 0 0-8.331-4.73zM95.116 634.1c.7.6-.631-.743-.821-1.105.076.145.184.28.266.423.411.718 1.059 2.575-.1-.378.5 1.273.961 2.552 1.382 3.854 1.377 4.261 2.538 8.594 3.676 12.924 3.5 13.345 6.625 26.793 9.7 40.243q5.4 23.625 10.5 47.32 4.41 20.337 8.7 40.7c1.373 6.515 2.57 13.091 4.094 19.572.022.093.039.186.058.279.735 3.555 4.992 5.7 8.331 4.73l4.8-1.385 13.054-3.769 19.311-5.576 23.562-6.8 25.813-7.453 26.059-7.525 24.3-7.017 20.545-5.933 14.783-4.268c2.339-.675 4.69-1.319 7.019-2.027.1-.031.2-.059.307-.088 3.4-.982 5.867-4.821 4.73-8.331a6.888 6.888 0 0 0-8.331-4.731l-4.8 1.385-13.055 3.77-19.31 5.576-23.563 6.8-25.812 7.453-26.059 7.525-24.3 7.017-20.545 5.932-14.783 4.269c-2.337.675-4.7 1.3-7.019 2.027-.1.032-.205.059-.307.088l8.331 4.73q-1.685-8.154-3.4-16.3Q138.13 758.5 133.921 739q-5.146-23.832-10.513-47.618c-3.169-13.959-6.387-27.912-9.945-41.777-1.217-4.747-2.465-9.492-3.888-14.182a42.243 42.243 0 0 0-3.382-8.959 7.493 7.493 0 0 0-1.5-1.948 7.225 7.225 0 0 0-4.789-1.984 6.893 6.893 0 0 0-4.789 1.984c-2.321 2.528-2.877 7.122 0 9.578zM706.1 51.189l14.141-3.789 33.7-9.039 40.724-10.931 35.4-9.5c5.684-1.525 11.432-2.9 17.074-4.581.079-.023.16-.042.239-.064l-7.648-3.112 7.969 12.9 19.128 30.954 23.06 37.315 19.926 32.244c3.228 5.222 6.385 10.5 9.686 15.674.047.073.092.148.137.222 1.862 3.012 6.14 4.445 9.267 2.429 3.021-1.948 4.422-6.042 2.429-9.266l-7.969-12.895-19.129-30.956-23.059-37.315-19.926-32.243c-3.226-5.221-6.352-10.522-9.687-15.675-.047-.073-.091-.147-.136-.221a6.947 6.947 0 0 0-7.649-3.113l-14.141 3.794-33.7 9.04-40.724 10.926-35.4 9.5c-5.688 1.526-11.417 2.945-17.075 4.581-.079.023-.159.043-.238.064-3.421.918-5.852 4.866-4.73 8.331a6.9 6.9 0 0 0 8.331 4.73zm340.733 318.377a11.309 11.309 0 0 1 1.061 1.261q.212.267.42.535c.082.1.163.21.245.314a86.91 86.91 0 0 0-.724-.937l1.22 1.6a983.165 983.165 0 0 1 7.061 9.453q11.016 14.88 21.9 29.854 12.849 17.6 25.649 35.24 11.034 15.192 22.047 30.4c3.534 4.879 6.939 9.889 10.614 14.662.052.067.1.137.149.206l4.048-9.949-4.373 1.581-11.9 4.3-17.7 6.4-21.5 7.771-23.549 8.512-23.773 8.593-22.172 8.015-18.828 6.805-13.468 4.868c-2.129.77-4.263 1.525-6.387 2.309l-.276.1c-3.323 1.2-5.918 4.661-4.731 8.331 1.058 3.268 4.764 6.019 8.331 4.73l4.373-1.581 11.9-4.3 17.7-6.4 21.5-7.771 23.549-8.512 23.773-8.593 22.172-8.015 18.828-6.805 13.468-4.868c2.129-.77 4.263-1.525 6.387-2.309l.276-.1a6.908 6.908 0 0 0 4.389-3.921 6.413 6.413 0 0 0-.341-6.027q-4.365-6.036-8.734-12.067-10.533-14.543-21.081-29.074-12.894-17.76-25.822-35.5-11.323-15.528-22.715-31-3.892-5.273-7.82-10.516c-1.707-2.267-3.368-4.6-5.216-6.752a5.237 5.237 0 0 0-.374-.413c-2.587-2.423-7.048-2.756-9.578 0-2.415 2.631-2.762 6.991 0 9.577z"/></svg></g></svg>