<?xml version="1.0" encoding="utf-8"?>
<svg viewBox="1285.432 -653.16 1274.002 1162.017" width="1274.002" height="1162.017" xmlns="http://www.w3.org/2000/svg">
  <g transform="matrix(0.721185, 0, 0, 0.720918, 1285.431462, -653.145798)">
    <svg width="1766.536" height="1463.412" viewBox="0 0 1766.536 1463.412">
      <path d="M813.992 7.486c54.086-.461 182.867 2.521 268.49 35.876s265.687 132.554 265.687 132.554l-108.1 41.857s18.269 75.391 17.824 118.3-9.628 123.393-9.628 123.393 51.053 18.054 62.611 24.846 30.58 19.836 30.58 19.836-66.394 15.55-118.343 27.056-162.934 23.582-196.856 33.584-135.19 45-164.277 132.635-9.522 161.2-9.522 161.2 50.771 104.927 55.006 175.386 2.482 113.575-4.349 138.92-15.717 57.986-15.717 57.986 24.261 18 88.712 32.906 179.177 39.712 272.155 8.214 191.575-69.324 262.935-170.485 96.358-110.838 111.677-251.231-28.754-207.052 7.642-235.109 113.391-66.949 126.274 50.275-2.367 225.14-33.215 292.869-76.879 157.149-134.179 210-104.906 94.428-165.719 118.9-116.886 49.756-183.611 54.306-151.352 4.74-219.7-10.625-122.954-32.919-133.138-37.714-25.247-13.445-25.247-13.445l-20.038 45.28s85.851 15.443 90.191 33.814 7.891 48.452-23.327 50.534-106.592 6.2-136.957 3.155-140.087-13.926-140.087-13.926-12.522 55.6-38.348 45.011-33.16-39.023-33.16-39.023l-107.709 4.788-64.957-10.776s15.652 50.741-14.869 57.843-60.261-57.843-60.261-57.843-132.262 22.142-190.962 17.716-36.25-51.017-8.29-60.411 41.16-21.493 41.16-21.493-92.714-85.257-125.009-183.5-25.068-187.116-3.289-246.13 23.487-61.1 41.309-131.743c18.895-74.887 41.924-212.989 109.875-324.54S287.6 258.21 372.793 191.136 534.559 64.911 612.142 43.586s201.85-36.1 201.85-36.1z" fill="#fff"/>
      <path d="M1057.641 512.553c4.964 15.358 13.713 31.036 28.707 37.009 6.97 2.777 14.629 3.168 22.128 3.418 13.7.458 28.12.395 40.138-6.2 15.5-8.508 23.717-26.156 27.632-43.4 8.425-37.1-11.177-159.739-72.439-145.613-52.439 12.09-58.576 116.384-46.166 154.786zm203.073-168.866c-.74 15.228-1.139 30.756-7.561 44.584.783 0-3.265-2.908-2.482-2.908-25.648 4.715-54.376-3.089-70.765-23.374s-16.775-53.211 2.175-71.126c5.882-5.562 13.118-9.466 20.43-12.942a246.863 246.863 0 0 1 41.046-15.215c6.946 7.709 9.047 18.939 9.83 29.286" fill="#4e4e4e"/>
      <path d="M1103.174 456.328a116.218 116.218 0 0 1 10.341-60.595c11.911 9.386 14.207 25.331 16.73 40.284 1.127 6.679 7.1 11.456 7.122 18.229l.079 28.458c.014 5.379-.017 10.971-2.347 15.82s-7.687 8.694-12.925 7.469c-13.625-13.429-21.1-31.841-24.134-51" fill="#fff"/>
      <g fill="#b1b1b1">
        <path d="M1013.455 348.367c-2.618-3.594-4.976-7.976-3.927-12.3a14.768 14.768 0 0 1 3.27-5.742 24.625 24.625 0 0 1 4.844-4.647 18.142 18.142 0 0 1 14.511-2.48 21.751 21.751 0 0 1 12.206 8.475 18.223 18.223 0 0 1 3.69 10.851 12.319 12.319 0 0 1-5.145 9.967c-7.961 5.281-23.823 3.6-29.449-4.124z"/>
        <path d="M1012.154 368.289a15.522 15.522 0 0 0 .17 14.51 10.547 10.547 0 0 0 3.742 4.049 15.529 15.529 0 0 0 6.012 1.626c4.173.523 8.618.89 12.395-.96 4.115-2.016 6.616-6.26 8.546-10.416a24.828 24.828 0 0 0 2.613-8.552 10.317 10.317 0 0 0-2.8-8.239c-7.744-7.307-26.271-.395-30.678 7.982zM310.11 256.01c23.79-24.081 56.3-60.571 83.265-81.036 19.413 69 12.756 167.757-38.532 217.831-19.788 19.32-43.332 34.33-67.236 48.237-38.429 22.357-79.634 42.643-123.974 45.9 6.97-23.158 13.513-48.219 27.41-68.012 10.016-14.266 21.738-32.338 32.229-46.259 10.83-14.372 18.287-29.608 28.142-44.665s23.181-43.465 39.913-50.087m133.563-57.776c15.133 19.432 38.843 16.112 55.644 9.374s28.174-28.9 17.824-43.755c-11.06-15.871-35.781-11.953-52.82-2.793-13.928 7.487-28.175 23.267-20.648 37.174M146.224 595.2c11.277 13.764 28.135 7.445 40 .618s19.632-21.78 15.1-34.7c-1.294-3.692-3.654-7.192-7.163-8.922a18.166 18.166 0 0 0-6.753-1.538c-11.982-.87-24.532 2.912-33.035 11.4s-12.29 21.861-8.148 33.138"/>
      </g>
      <path d="M62.952 1071.4c1.5 39.807-2.959 80.895-21.446 116.181-9.318-11.406-12.895-26.313-16.208-40.665-11.139-48.267-29.537-113.324-10.978-162.02 22.135-58.081 47.78 64.059 48.632 86.504zm778.591-65.81c-17.517 55-10.271 117.382 19.386 166.9 5.213 8.7 12.643 17.913 22.788 18.085 8.136.139 15.337-6 18.873-13.331s4.125-15.686 4.526-23.813c1.115-22.568 1.251-45.173 1.191-67.769-.076-28.861 1.915-76.245-16.986-100.726-19.189-24.854-42.035-3.657-49.778 20.654zm825.268-95.722c23.96 3.522 52.3 4.325 67.978-14.131 9.258-10.9 11.548-25.921 13.253-40.117q7.7-64.126 9.417-128.785c.641-24.29.6-48.948-5.774-72.395s-19.844-45.871-40.748-58.259-49.794-12.6-68.159 3.309c-16.838 14.589-21.727 38.481-23.761 60.667-4.8 52.347.781 104.8.614 157.206-.16 50.059-14.094 83.5 47.18 92.505z" fill="#626262"/>
      <path d="M1233.539 219.573q6.474 23.2 10.648 46.961 1.024 5.856 1.906 11.736.385 2.58.745 5.165c.066.47.129.939.194 1.409.227 1.649-.2-1.573.01.078.142 1.095.285 2.191.422 3.287q1.467 11.718 2.373 23.5a551.915 551.915 0 0 1-1.027 93.616q-.622 6.684-1.388 13.354-.383 3.346-.8 6.691-.21 1.675-.427 3.349c-.063.479-.125.958-.189 1.436l-.127.958q.2-1.5.048-.363-1.855 13.5-4.191 26.916a7.315 7.315 0 0 0 .683 5.218 6.9 6.9 0 0 0 4.047 3.113c3.293.75 7.679-1 8.331-4.73 2.853-16.338 5.186-32.774 6.9-49.27 1.641-15.779 2.69-31.622 3.059-47.483q.552-23.7-.986-47.4-1.611-24.268-5.532-48.315-3.849-23.707-10.035-46.954-.783-2.942-1.6-5.874c-.952-3.411-4.842-5.86-8.331-4.73a6.89 6.89 0 0 0-4.73 8.33z"/>
      <path d="M1351.587 170.069c-39.909-23.056-80.1-45.534-120.226-68.193A788 788 0 0 0 1128.019 52.6c-50.244-19.43-101.451-34.9-154.756-43.129A826.835 826.835 0 0 0 801.8 1.291c-55.587 3.066-111.738 11.077-165.161 27.075-41.433 12.408-81.287 30.187-119.134 51.026-91.405 50.333-173.068 119.642-238.54 200.813-70.123 86.936-124.808 187.682-162.749 292.61-28.833 79.737-43.346 163.273-68.91 243.973C37 849.321 25.273 881.422 16.342 914.381c-14.131 52.152-20.587 106.69-13.353 160.482 12.076 89.8 59.984 170.535 120.651 236.228 7.3 7.9 14.887 15.518 22.277 23.329.987 1.043 1.954 2.1 2.921 3.16.426.467.8.986 1.232 1.446-.092-.1.013-1.049-.088-.045a18.065 18.065 0 0 0 .087-3.223c-.171-.481.412-.137-.959.4-3.019 1.173-5.892 2.577-8.994 3.615-17.67 5.91-37.343 10.162-51.75 22.734-17.475 15.248-13.466 39.283 4.325 52.245 6.148 4.48 13.253 5.391 20.621 6.369a239.916 239.916 0 0 0 25.453 1.879 553.065 553.065 0 0 0 57.766-2.023c34.548-2.737 69.034-7.2 103.2-13 4.9-.832 15.925-.843 18.862-5.929 2.358-4.083-.011-8.4-4.047-9.949a5.269 5.269 0 0 0-2.088-.244c-8.652.58-8.716 14.129 0 13.545.807-.054-.167.275-1.513-.24l-4.048-9.949c3.048-5.277 5.553-2.886 2.275-2.668a35.951 35.951 0 0 0-4.03.782c-4.688.874-9.391 1.667-14.1 2.439q-22.507 3.694-45.147 6.534c-37.761 4.752-76.278 8.768-114.378 6.89-14.586-.719-31.995-.217-39.432-15.292-10.207-20.691 21.357-31.316 35.531-35.954 7.608-2.49 15.4-4.552 22.828-7.562 5.079-2.059 11.223-4.886 12.513-10.817 1.606-7.382-6.3-13.541-10.839-18.234-51.965-53.728-96.995-113.755-120.936-185.456C13.036 1081.516 9.3 1024.319 18.5 967.831c6.085-37.366 17.382-73.5 29.351-109.326 13.573-40.629 26.08-81.482 36.455-123.061 8.863-35.524 16.868-71.16 27.472-106.231 29.792-98.522 74.56-191.95 131.669-277.551 59.9-89.788 136.519-167.615 226.45-227.491C507.58 99.078 547.519 76.916 589.4 59.61c43.572-18.008 89.116-29.6 135.669-36.836A814.946 814.946 0 0 1 897.52 15c52.123 3.054 104.289 10.8 154.419 25.645 45.835 13.57 91.255 30.631 134 52.118 29.894 15.029 59.027 31.936 88.212 48.292 23.7 13.282 47.08 27.124 70.6 40.713 7.562 4.369 14.39-7.332 6.836-11.7z"/>
      <path d="M1344.751 173.466q-4.405 2.067-8.881 3.978c-.4.173-.8.343-1.2.514-.679.291.832-.351.75-.315-.173.075-.349.146-.524.219q-1.232.518-2.468 1.026-2.43 1-4.873 1.971c-6.888 2.742-13.835 5.332-20.807 7.852-14.153 5.113-28.414 9.919-42.632 14.846-7.209 2.5-14.408 5.024-21.559 7.686a7.291 7.291 0 0 0-4.047 3.112 6.911 6.911 0 0 0-.683 5.218c1.049 3.242 4.776 6.054 8.331 4.731 13.3-4.95 26.754-9.472 40.168-14.1 14.345-4.944 28.683-9.936 42.806-15.487 7.571-2.976 15.094-6.1 22.46-9.559 3.217-1.509 4.288-6.383 2.43-9.266-2.134-3.31-5.826-4.044-9.266-2.43zm-98.286 292.528q9.849 2.509 19.483 5.767 4.864 1.648 9.661 3.486 2.245.859 4.474 1.761 1.014.41 2.023.827c.246.1.955.539 1.21.5q-1.419-.6-.41-.173l.8.344a263.732 263.732 0 0 1 35.6 18.619q9.639 6.021 18.729 12.863a6.8 6.8 0 0 0 5.219.682 6.9 6.9 0 0 0 4.047-3.112 6.834 6.834 0 0 0 .683-5.219 7.916 7.916 0 0 0-3.112-4.047 269.411 269.411 0 0 0-72.639-38.671q-10.93-3.837-22.169-6.693c-3.428-.874-7.508 1.117-8.331 4.73a6.888 6.888 0 0 0 4.73 8.331z"/>
      <path d="M1339.655 497.614c-67.853 13.529-134.43 33.99-202.927 44.177-51.886 7.717-105.716 9.869-154.824 29.818-48.051 19.519-92.383 51.026-115.683 98.6-13.81 28.2-22.112 58.777-26.155 89.847-3.642 27.983-3.858 56.866 1.782 84.609 2.947 14.5 8.209 28.452 13.237 42.324 5.989 16.523 12.352 32.906 18.525 49.36 10.69 28.492 20.12 56.935 25.341 86.974a400.558 400.558 0 0 1 5.3 95.3c-2.464 36.65-11.257 72.144-24.443 106.365-9.521 24.71-21.478 48.229-33.879 71.587-3.489 6.572-7.23 13.189-9.755 20.211-1.97 5.477-2.055 11.424 3.2 15.062 5.367 3.718 12.81 4.912 19.043 6.341 10.129 2.322 20.317 4.378 30.376 7 9.771 2.545 19.766 5.378 28.638 10.315 3.7 2.057 6.451 3.787 9.092 7.094-.533-.668.917 1.439 1.122 1.807a15.823 15.823 0 0 1 1.284 2.95 21.846 21.846 0 0 1 .936 7.712c-.389 10.057-6.523 21.131-15.619 25.794-5.472 2.805-12.354 2.367-18.339 2.786q-12.666.886-25.354 1.376c-32.627 1.289-65.314.879-97.928-.571-44.688-1.986-89.379-5.759-133.732-11.616l-1.422-.189c-1.055-.139 1.691.232.034 0l-2.166-.3q-.887-.123-1.772-.251c-3.645-.53-7.237.9-8.331 4.73-.91 3.178 1.113 7.805 4.73 8.331 32.029 4.66 64.354 7.7 96.62 10.091 30.971 2.294 62.014 3.746 93.07 4.027 16.968.154 33.941-.046 50.9-.714q12.3-.485 24.591-1.323c7.076-.488 14.914-.255 21.629-2.773 21.911-8.218 35.5-40.55 20.281-60.239-5.9-7.63-15.008-11.985-23.759-15.479-10.1-4.032-20.7-6.715-31.276-9.163-9.24-2.139-18.592-3.887-27.751-6.359-1.587-.429-3.173-.878-4.728-1.416a32.733 32.733 0 0 1-1.912-.71c1.309.546.35.013-.3-.217-1.21-.433-.445-.84.029.137a9.318 9.318 0 0 1 .955 1.867c-.41-1.274.053 1.712.052.695 0-1.49-.077.108-.115.258.24-.96.452-1.9.768-2.846.166-.5.361-.978.54-1.468.644-1.76-.339.607.516-1.217q2.25-4.8 4.7-9.493c4.836-9.277 9.849-18.46 14.591-27.786 14.446-28.413 26.992-58.013 35.765-88.692a362.825 362.825 0 0 0 13.409-107.683 434.97 434.97 0 0 0-11.605-90.066c-7.469-31.562-20.3-61.8-31.7-92.076-10.394-27.605-21.2-54.951-23.467-84.606a284.984 284.984 0 0 1 7.622-88.435c6.963-28.739 17.883-58.1 36.491-81.435 16.346-20.5 37.426-36.632 60.26-49.289a280.449 280.449 0 0 1 53.294-22.634c26.722-8.241 55.041-11.238 82.674-14.793 32.263-4.15 64.39-8.433 96.206-15.308 35.023-7.567 69.781-16.3 104.684-24.387 16.7-3.871 33.442-7.6 50.259-10.954 8.541-1.7 4.926-14.761-3.6-13.061zm-233.082-344.689c-13.324 16.668-24.179 35.5-27.033 56.94-2.358 17.708 2.162 35.5 11.22 50.759a128.4 128.4 0 0 0 20.941 26c2.538 2.477 7.083 2.717 9.578 0a6.889 6.889 0 0 0 0-9.578 143.023 143.023 0 0 1-9.873-10.606q-1.018-1.218-2-2.461c-.2-.256-.4-.515-.606-.772-.532-.676.859 1.129.344.443-.388-.517-.779-1.031-1.162-1.551q-1.97-2.676-3.768-5.472a89.138 89.138 0 0 1-6.037-10.988c-.221-.483-.435-.968-.649-1.454-.177-.4-.45-1.173.268.647-.086-.218-.18-.433-.269-.649q-.594-1.453-1.128-2.932-1.026-2.838-1.816-5.754-.78-2.885-1.313-5.828c-.161-.894-.282-1.793-.43-2.689.38 2.3.093.683.028.112s-.121-1.129-.171-1.694a68.844 68.844 0 0 1 0-12.038c.082-.934.189-1.864.3-2.795.155-1.3-.215 1.481-.076.573.036-.235.069-.469.105-.7q.137-.883.293-1.763.561-3.137 1.378-6.219t1.869-6.12q.539-1.554 1.133-3.088.318-.825.653-1.643c.1-.244.207-.487.3-.732-.2.506-.561 1.314-.135.334a114.8 114.8 0 0 1 7.655-14.53q2.338-3.791 4.916-7.425 1.375-1.945 2.808-3.85l.585-.773c.125-.164.993-1.273.364-.477-.68.861.331-.417.38-.48q.462-.585.928-1.167a7.347 7.347 0 0 0 1.984-4.789 6.893 6.893 0 0 0-1.984-4.789c-2.456-2.255-7.215-2.955-9.578 0z"/>
      <path d="M1105.514 161.132q1.457 2.8 2.756 5.673c.2.456.4.915.606 1.372.49 1.106-.577-1.406.063.148q.6 1.466 1.161 2.949a106.433 106.433 0 0 1 3.537 11.267 114.615 114.615 0 0 1 2.309 11.58c.072.491.266 2.122.011.009.048.4.1.805.153 1.208q.186 1.511.334 3.026.289 2.934.452 5.879a186.1 186.1 0 0 1-.324 23.733 312.568 312.568 0 0 1-1.141 12.26q-.347 3.108-.739 6.212-.175 1.4-.36 2.8l-.2 1.514c-.054.4-.186 1.315.067-.5l-.118.868c-1.313 9.643-2.8 19.261-4.123 28.9a7.477 7.477 0 0 0 .683 5.218 6.771 6.771 0 0 0 9.266 2.43c1.369-.883 2.879-2.354 3.113-4.048 2.415-17.55 5.406-35.053 6.869-52.72 1.364-16.484 1.14-33.2-2.567-49.391a114.55 114.55 0 0 0-10.112-27.219 6.825 6.825 0 0 0-9.266-2.43 6.928 6.928 0 0 0-2.43 9.266zm5.786 223.674c-12.841 14.02-18.824 33.057-20.721 51.653-1.928 18.9.842 39.166 10.133 55.934a58.864 58.864 0 0 0 21.33 22.342c3.056 1.8 7.56.8 9.266-2.429a6.9 6.9 0 0 0-2.43-9.267 47.615 47.615 0 0 1-2.545-1.6q-.677-.456-1.336-.936-.219-.159-.437-.321c-1.271-.947 1.151.921.3.234a52.118 52.118 0 0 1-4.425-3.965 58.4 58.4 0 0 1-4.105-4.689c1.542 1.936.422.539.075.064q-.485-.663-.949-1.34-.9-1.3-1.72-2.655-1.633-2.673-2.994-5.5a78.781 78.781 0 0 1-1.288-2.822c-.456-1.047.6 1.478.3.7-.087-.22-.18-.438-.269-.658q-.345-.859-.669-1.728a82.961 82.961 0 0 1-3.56-12.571q-.309-1.522-.565-3.054-.147-.879-.278-1.76l-.085-.59c-.171-1.155.257 2.015.044.324q-.423-3.345-.618-6.713a106.05 106.05 0 0 1 .091-13.705q.106-1.5.255-3 .089-.9.193-1.792c.07-.6.4-2.922.021-.282.327-2.263.689-4.517 1.145-6.758a96.4 96.4 0 0 1 3.465-12.645q.564-1.611 1.19-3.2.156-.393.315-.786c.107-.262.627-1.5.089-.229-.509 1.206-.117.282-.011.037q.224-.512.452-1.02 1.409-3.121 3.093-6.108a64.771 64.771 0 0 1 3.553-5.593c.351-.493.712-.978 1.075-1.463.286-.382.779-.942-.588.759.215-.267.424-.537.639-.8q1.038-1.28 2.153-2.493c2.393-2.612 2.776-7.029 0-9.578-2.606-2.392-7.022-2.79-9.578 0z"/>
      <path d="M1110.006 390.686a247.745 247.745 0 0 1 13.447 45.731q1.182 6.128 2.041 12.311c.17 1.218-.214-1.642.005.051q.093.72.181 1.439.189 1.541.356 3.083.33 3.069.569 6.148a166.8 166.8 0 0 1 .229 23.816q-.209 3.174-.567 6.334c-.065.567-.135 1.133-.206 1.7-.029.235-.125.944.022-.149.169-1.263-.008.031-.035.222q-.215 1.484-.468 2.962a99.394 99.394 0 0 1-2.825 12.044 6.839 6.839 0 0 0 4.73 8.331 6.913 6.913 0 0 0 8.331-4.73c4.605-15.193 5.506-31.493 4.558-47.265a239.647 239.647 0 0 0-8.715-50.374 244.183 244.183 0 0 0-8.592-25.254 7.412 7.412 0 0 0-3.112-4.047 6.772 6.772 0 0 0-9.266 2.429 6.562 6.562 0 0 0-.683 5.219zm-54.238-54.994a17.016 17.016 0 0 0-10.529 9.394c-1.92 4.187-3.384 9.1-3.085 13.75a15.522 15.522 0 0 0 3.431 9.184 13.857 13.857 0 0 0 7.083 4.414c5.867 1.587 11.328-.5 16.655-2.772a6.761 6.761 0 0 0 3.113-4.048 6.92 6.92 0 0 0-.683-5.218 6.837 6.837 0 0 0-4.047-3.113 7.956 7.956 0 0 0-5.219.683q-1.006.429.416-.173-.4.168-.807.33c-.539.215-1.082.423-1.631.611a20.363 20.363 0 0 1-3.351.849l1.8-.242a12.927 12.927 0 0 1-3.026.062l1.8.242a18.479 18.479 0 0 0-2.105-.486q1.589.713.636.261l-.311-.168q-.308-.175-.6-.379 1.263 1.024.686.5c-.171-.19-1.053-1.194-.3-.253.965 1.2-.445-1.223.151.253.465 1.152-.011-.106-.081-.367a10.688 10.688 0 0 1-.244-1.242l.242 1.8a16.2 16.2 0 0 1 .053-3.728l-.242 1.8a29.175 29.175 0 0 1 .873-4.156c.173-.6.366-1.188.583-1.77.507-1.361-.477 1.007-.17.363.144-.3.282-.609.436-.908a15.089 15.089 0 0 1 .923-1.566c.449-.663.847-.61-.282.337.229-.192.431-.49.645-.7.1-.1.56-.62.7-.634l-.873.68q.256-.181.524-.342c.225-.135.468-.239.694-.37q.72-.34-.884.376.306-.11.62-.193c3.4-.984 5.867-4.819 4.73-8.331a6.887 6.887 0 0 0-8.331-4.73z"/>
      <path d="M1048.1 348.471a135.553 135.553 0 0 0-23.647 3.022 6.823 6.823 0 0 0-4.73 8.331 6.929 6.929 0 0 0 8.331 4.73q4.974-1.084 10.02-1.771l-1.8.242q5.889-.78 11.827-1.009c3.536-.136 6.941-3.018 6.773-6.772-.159-3.553-2.981-6.919-6.773-6.773z"/>
      <path d="M1025.154 354.285c-2.581-2.572-4.782-5.485-7.3-8.118a67.3 67.3 0 0 0-8.259-7.185 63.179 63.179 0 0 0-18.459-9.443 6.828 6.828 0 0 0-8.331 4.731 6.927 6.927 0 0 0 4.73 8.331c.78.254 1.556.52 2.325.805q.577.214 1.149.441c.233.093 1.378.572.329.126s.091.045.32.148q.561.251 1.118.515 1.111.526 2.2 1.1a62.838 62.838 0 0 1 7.782 4.941c.674.493-1.172-.936-.235-.181.32.258.64.514.956.776q.867.72 1.706 1.474 1.755 1.576 3.373 3.295c2.4 2.551 4.53 5.345 7.014 7.821 2.513 2.5 7.1 2.7 9.578 0a6.9 6.9 0 0 0 0-9.578z"/>
      <path d="M1012.023 357.661a31.59 31.59 0 0 1-5.228 5.167l1.37-1.059a31.864 31.864 0 0 1-6.953 4.074l1.618-.683q-1.318.55-2.677.984a7.128 7.128 0 0 0-4.047 3.112 6.774 6.774 0 0 0 7.648 9.949 37.431 37.431 0 0 0 17.847-11.966 7.545 7.545 0 0 0 1.984-4.789 6.893 6.893 0 0 0-1.984-4.789 6.818 6.818 0 0 0-4.789-1.984 6.569 6.569 0 0 0-4.789 1.984zm84.715-110.175a25.859 25.859 0 0 0 27.67-.631c3.026-1.841 4.436-6.154 2.43-9.266a6.887 6.887 0 0 0-9.266-2.43 28.732 28.732 0 0 1-3.759 1.942l1.618-.682a20.743 20.743 0 0 1-4.715 1.306l1.8-.242a18.457 18.457 0 0 1-4.72 0l1.8.242a22.072 22.072 0 0 1-5.163-1.439l1.618.683a32.25 32.25 0 0 1-2.476-1.181c-3.131-1.654-7.508-.9-9.266 2.429-1.654 3.131-.915 7.5 2.429 9.266zm13.197 236.455a25.5 25.5 0 0 0 25.1-5 6.822 6.822 0 0 0 1.984-4.789 6.893 6.893 0 0 0-1.984-4.789 6.812 6.812 0 0 0-4.789-1.983 7.589 7.589 0 0 0-4.789 1.983 25.85 25.85 0 0 1-.653.537l1.371-1.059a18.952 18.952 0 0 1-4.118 2.4l1.618-.683a20.083 20.083 0 0 1-4.881 1.313l1.8-.242a19.812 19.812 0 0 1-5.051-.017l1.8.242a18.734 18.734 0 0 1-3.807-.974 6.774 6.774 0 0 0-7.649 9.949 7.661 7.661 0 0 0 4.048 3.112zM249.833 843.749c-.905 26.742-.846 53.541-.509 80.29.71 56.516 3.278 113.125 9.615 169.309 5.491 48.685 12.984 97.216 21.08 145.529 7.665 45.743 15.984 91.48 26.834 136.588 3.851 16.011 7.956 32.041 13.375 47.6a146.847 146.847 0 0 0 6.869 16.886c1.764 3.566 3.873 7.281 6.78 10.047 12.576 11.969 36.336 18.868 51.6 7.941 8.12-5.812 11.9-15.149 11.513-25.019-.291-7.4-2.5-14.821-3.758-22.117-3.17-18.322-5.536-36.514-7.834-54.244-3.317-25.594-6.4-51.219-9.458-76.845q-5.025-42.122-10.016-84.245c-2.887-24.06-6.075-48.073-7.92-72.242-3.574-46.809-4.377-93.835-4.34-140.765q.036-45.586 1.413-91.167.072-2.253.151-4.506c.32-8.718-13.226-8.705-13.545 0-.78 21.306-1.14 42.633-1.374 63.951-.5 44.834-.191 89.711 1.868 134.506 1.031 22.435 2.489 44.873 5 67.195 2.986 26.536 6.408 53.029 9.553 79.547 5.983 50.444 11.689 100.942 18.7 151.258 2.038 14.635 4.053 29.33 7.193 43.778a27.644 27.644 0 0 1 .845 6.6 33.256 33.256 0 0 1-.114 3.37c-.115 1.376-.045.378 0 .088-.133.8-.3 1.585-.505 2.363-.122.456-1.1 3.036-.453 1.6-.375.825-.832 1.589-1.269 2.381-.17.309-.4.581-.585.877.86-1.349.021-.01-.233.255a26.857 26.857 0 0 1-2.227 2.119c1.246-1.037-.715.42-1.167.681s-2.768 1.3-1.192.682a28.559 28.559 0 0 1-5.46 1.5c-1.085.195 1.659-.072-.143.01-.473.022-.946.079-1.419.1q-1.45.073-2.9.021a37.82 37.82 0 0 1-2.97-.227c-1.164-.133 1.6.338-.306-.061-.6-.127-1.214-.224-1.817-.356-7.031-1.541-13.414-4.645-18.2-9.6-1.046-1.084-.309.135.238.355-.224-.09-.546-.739-.692-.961a49.484 49.484 0 0 1-1.544-2.469 67.162 67.162 0 0 1-3.031-6.024c-.251-.557-.487-1.121-.736-1.678-.45-1 .207.492.238.568-.146-.362-.3-.72-.446-1.083a187.65 187.65 0 0 1-1.651-4.239 232.78 232.78 0 0 1-3.212-9.224c-2.366-7.237-4.47-14.558-6.452-21.909-11.19-41.5-19.2-83.893-26.734-126.18-8.346-46.862-15.857-95.059-22.039-141.533-7.372-55.423-11.321-111.126-12.891-167.006-1.021-36.307-1.251-72.667-.331-108.979.045-1.774.091-3.547.151-5.32.3-8.718-13.251-8.707-13.545 0zm311.225 38.583c.345 1.453-.154-1.707-.105-.922.03.489.1.98.148 1.47.144 1.577.25 3.158.355 4.738.354 5.325.635 10.654.908 15.983.884 17.263 1.614 34.534 2.307 51.806q2.847 70.914 4.537 141.873c1.02 44.866 1.441 89.594-1.029 134.424-2.72 49.341-7.385 98.564-9.788 147.922-.731 15.017-1.869 30.538.025 45.515.645 5.1 1.547 9.9 5.31 13.694 6.916 6.97 16.837 10.535 26.451 11.423 10.486.968 21.573-2.481 28.833-10.3 5.9-6.362 8.657-14.434 10.514-22.725 3.989-17.811 6.142-36.093 8.408-54.182 6.728-53.721 11.558-107.69 16.283-161.617 3.7-42.188 6.423-84.309 7.955-126.635 1.643-45.359 2.648-90.742 3.412-136.125q.715-42.468 1.094-84.943.018-2.054.033-4.108c.061-8.718-13.484-8.727-13.545 0q-.21 29.916-.674 59.83-.915 64.572-2.69 129.131c-1.191 40.972-2.444 82.022-5.7 122.892q-6.374 79.886-14.873 159.621-1.983 18.457-4.209 36.889-.987 8.072-2.054 16.133c-.291 2.194.18-1.321-.114.849q-.132.978-.266 1.955-.262 1.911-.531 3.823-.513 3.645-1.056 7.286c-1.165 7.793-2.41 15.585-4.031 23.3-.577 2.747-1.2 5.491-1.968 8.191-.366 1.288-.762 2.572-1.243 3.821a24.533 24.533 0 0 1-1.487 3.045q-.509.9-1.077 1.766c-.128.2-1.236 1.717-.5.773a24.225 24.225 0 0 1-2.578 2.781c-.447.417-.908.821-1.386 1.2 1.135-.906-.429.267-.565.357-.822.543-1.674 1.017-2.544 1.478-.19.1-1.954.859-.5.276a27.27 27.27 0 0 1-2.182.769c-1.109.34-2.245.52-3.362.813-.279.073-1.344.206.091.018-.572.075-1.147.127-1.722.168q-1.727.121-3.459.068a35.595 35.595 0 0 1-1.727-.092c-.2-.015-2.3-.26-1.386-.13 1.067.153-.786-.146-.8-.148-.561-.112-1.12-.219-1.677-.346q-1.653-.379-3.27-.9c-.531-.17-1.055-.359-1.582-.544-.016-.006-1.705-.666-.728-.265s-.662-.3-.687-.315a45.383 45.383 0 0 1-1.908-.962c-.91-.493-1.8-1.025-2.66-1.6-.417-.279-.82-.575-1.228-.866 1.234.879.469.392.218.155-.682-.643-1.383-1.262-2.059-1.913-1.823-1.754.719 1.122-.01.064a6.852 6.852 0 0 0-.354-.676c-.009-.01.632 1.959.231.463-.226-.845-.479-1.672-.656-2.531-.1-.5-.185-1.011-.274-1.518-.048-.272-.073-.549-.124-.821-.225-1.186.193 1.875.089.644-.11-1.3-.275-2.589-.37-3.888-.506-6.892-.453-13.828-.316-20.732.909-46.048 5.631-92.043 8.672-137.98 1.637-24.733 3.094-49.494 3.664-74.279.476-20.715.131-41.452-.22-62.167-.8-47.074-2.26-94.138-3.99-141.185-1.2-32.544-2.149-65.161-4.39-97.655a49.812 49.812 0 0 0-.818-7.937c-2.016-8.476-15.08-4.888-13.061 3.6z"/>
      <path d="M385.788 1405.161c5.282 1.428 10.666 2.53 16.033 3.577a412.2 412.2 0 0 0 42.239 5.958 460.306 460.306 0 0 0 53.951 1.194q21.583-.608 43.11-2.478c6.309-.555 12.621-1.168 18.9-1.991q1.017-.133 2.031-.273c1.553-.21 3.3-1.832 4.048-3.112a6.773 6.773 0 0 0-2.43-9.266 8.006 8.006 0 0 0-5.219-.683c-.214.029 2.531-.333 1.5-.2l-.819.105q-1.522.192-3.048.368-5.728.665-11.471 1.192-20.165 1.887-40.418 2.6a493.351 493.351 0 0 1-53.785-.48q-6.141-.446-12.264-1.088-2.943-.307-5.881-.659-1.372-.163-2.744-.337l-1.347-.173c-.313-.041-2.069-.274-.807-.1s-.347-.048-.6-.082l-1.106-.155q-1.356-.19-2.709-.391-2.5-.369-5-.771-4.5-.724-8.982-1.552c-6.483-1.2-12.907-2.617-19.311-4.179-.092-.023-.183-.048-.274-.073-3.417-.924-7.517 1.153-8.331 4.73a6.9 6.9 0 0 0 4.73 8.331zm498.192-168.402c33.957 14.6 68.238 27.865 104.013 37.422a525.945 525.945 0 0 0 127.111 17.87 578.174 578.174 0 0 0 124.948-11.339c46.065-9.389 91.168-25.118 131.972-48.644a379.512 379.512 0 0 0 60.591-43.988c19.533-17.135 38.6-34.823 56.816-53.353 35.182-35.782 67.576-74.968 92.36-118.746 24.377-43.058 40.615-90.3 45.747-139.6 5.511-52.932 3.093-105.9-.074-158.877-1.123-18.795-2.359-37.7-1.493-56.531a128.227 128.227 0 0 1 2.543-21.708 65.934 65.934 0 0 1 6.122-17.652 59.6 59.6 0 0 1 54.125-30.673 54.3 54.3 0 0 1 30.716 11.667c11.632 9.507 19.316 22.612 24.207 36.813 7.5 21.775 8.415 44.535 8.969 67.346.632 25.974.458 51.979-1.026 77.923-3.036 53.067-11.971 105.735-28.995 156.169-18.9 55.986-47.9 107.256-82.426 155.026-28.691 39.7-61.23 76.8-98.513 108.671a514.741 514.741 0 0 1-108.641 70.784 656.526 656.526 0 0 1-144.785 50.889c-54.537 12.155-110.407 15.42-166.088 11.467a880.416 880.416 0 0 1-167.141-28.324c-28.337-7.682-56.279-16.4-81.507-30.445a72.373 72.373 0 0 1-8.133-5c-2.955-2.2-7.536-.458-9.266 2.43-2.056 3.431-.488 7.092 2.429 9.266 11.658 8.69 26.411 14.259 39.775 19.527 44.3 17.464 91.415 27.594 138.236 35.49 56.152 9.469 113.172 14.828 170.112 10.977 58.257-3.94 115.2-17.409 169.881-37.657 41.644-15.42 82.071-34.354 119.4-58.513a537.935 537.935 0 0 0 104.631-89.215c37.495-41.074 71.064-87.177 97.626-136.053a545.617 545.617 0 0 0 56.689-159.531c9.805-52.094 12.457-105.2 11.418-158.117-.776-39.525-2.465-85.459-32.523-115.218A68.32 68.32 0 0 0 1662 581.68c-25.45 9.471-42.465 30.926-47.237 57.481-3.058 17.012-2.887 34.442-2.23 51.65.845 22.125 2.579 44.208 3.645 66.322 1.312 27.2 1.75 54.444.536 81.656-1.218 27.285-3.808 54.4-10.42 80.952-11.987 48.134-35.075 92.537-64.038 132.587-30.153 41.7-66.5 78.686-104.579 113.135-18.908 17.1-38.127 33.517-59.716 47.185a377.349 377.349 0 0 1-64.755 32.64c-42.482 16.562-87.532 26.388-132.874 30.684a564.853 564.853 0 0 1-111.617-.194c-48.97-5.1-97.076-18.489-142.926-36.173-12.185-4.7-23.1-9.433-34.976-14.542-3.384-1.455-7.224-.978-9.266 2.43-1.7 2.84-.925 7.823 2.43 9.266zM947 465.461l-36.154 51.544c-2.041 2.909-.622 7.654 2.429 9.266 3.471 1.834 7.089.675 9.266-2.429L958.7 472.3c2.041-2.909.621-7.654-2.43-9.266-3.47-1.834-7.088-.675-9.266 2.429zm20.6 14.587-12.59 42.239a6.775 6.775 0 0 0 13.062 3.6l12.592-42.24a6.842 6.842 0 0 0-4.73-8.331 6.911 6.911 0 0 0-8.331 4.731zm22.731 4.92v36c0 3.542 3.115 6.936 6.773 6.772a6.889 6.889 0 0 0 6.772-6.772v-36c0-3.543-3.115-6.936-6.772-6.773a6.892 6.892 0 0 0-6.773 6.773zM939.422 228.98a236.23 236.23 0 0 1-16.693-18.019q-1.985-2.381-3.905-4.813-.48-.609-.957-1.22c-.742-.948.864 1.13-.158-.206q-.942-1.232-1.868-2.474-3.7-4.971-7.139-10.134-3.865-5.805-7.378-11.834c-1.787-3.06-6.193-4.411-9.266-2.429a6.9 6.9 0 0 0-2.43 9.266 244.107 244.107 0 0 0 30.36 41.265q4.774 5.236 9.857 10.176c2.541 2.473 7.08 2.72 9.577 0a6.887 6.887 0 0 0 0-9.578zm19.745-9.869a243.356 243.356 0 0 0-4.745-58.161c-.705-3.478-5.016-5.8-8.331-4.73a6.94 6.94 0 0 0-4.73 8.331q1.4 6.885 2.389 13.841l.134.96-.048-.36c.061.48.124.961.184 1.442q.24 1.922.448 3.849.365 3.372.631 6.752a235.481 235.481 0 0 1 .523 28.076 6.823 6.823 0 0 0 6.772 6.772 6.916 6.916 0 0 0 6.773-6.772zm23.474-9.702q8.862-28.882 16.671-58.074c.915-3.419-1.146-7.515-4.73-8.331a6.9 6.9 0 0 0-8.331 4.73q-7.807 29.185-16.672 58.074a6.838 6.838 0 0 0 4.731 8.331 6.915 6.915 0 0 0 8.331-4.73zM516.777 574.8a99.278 99.278 0 0 0-14.287 41.25 6.752 6.752 0 0 0 1.983 4.789 6.772 6.772 0 0 0 9.578 0 7.871 7.871 0 0 0 1.984-4.789c.052-.436.113-.872.162-1.309-.229 2.037-.055.454 0 .059q.18-1.2.394-2.386.428-2.382.981-4.737a91.139 91.139 0 0 1 2.782-9.49c.537-1.521 1.191-3 1.732-4.516-.64 1.8-.152.361.006 0q.219-.5.446-1 .5-1.1 1.024-2.191a92.2 92.2 0 0 1 4.906-8.839 6.835 6.835 0 0 0-2.429-9.266 6.917 6.917 0 0 0-9.267 2.43zM554 609.512l-3.953 25.939a7.408 7.408 0 0 0 .683 5.219 6.9 6.9 0 0 0 4.047 3.112c3.229.736 7.76-.984 8.331-4.73l3.953-25.939a7.415 7.415 0 0 0-.683-5.219 6.9 6.9 0 0 0-4.047-3.112c-3.229-.735-7.761.985-8.331 4.73zm-103.518 88.673a101.551 101.551 0 0 0 4.911 39.369c1.118 3.354 4.723 5.9 8.331 4.73 3.341-1.081 5.929-4.732 4.731-8.331-.992-2.977-1.848-6-2.547-9.055q-.524-2.293-.934-4.611-.205-1.158-.382-2.321c-.036-.236-.215-1.612-.079-.5.139 1.15-.049-.4-.062-.5a96.342 96.342 0 0 1-.424-18.784c.263-3.541-3.3-6.928-6.773-6.773a6.939 6.939 0 0 0-6.772 6.773zM457.98 871.3a141.353 141.353 0 0 1 4.273 17.218q.381 2.1.7 4.2c.059.39.113.781.171 1.171.134.9-.014 0-.05-.393.072.784.2 1.567.289 2.349q.51 4.47.732 8.963c.18 3.533 2.986 6.942 6.773 6.773 3.515-.158 6.965-2.983 6.772-6.773a148.833 148.833 0 0 0-6.6-37.112c-1.063-3.374-4.762-5.885-8.331-4.73-3.388 1.1-5.871 4.712-4.73 8.331zm81.477-121.079-7.274 21.051c-1.158 3.352 1.321 7.554 4.73 8.331a6.937 6.937 0 0 0 8.331-4.73l7.274-21.051c1.159-3.352-1.321-7.555-4.73-8.331a6.937 6.937 0 0 0-8.331 4.73zm80.707-96.038-2.4 16.427a5.137 5.137 0 0 0-.121 2.7 5.041 5.041 0 0 0 .8 2.518 6.771 6.771 0 0 0 9.266 2.43c1.376-.888 2.864-2.35 3.112-4.048l2.4-16.427a5.116 5.116 0 0 0 .121-2.7 5.03 5.03 0 0 0-.8-2.518 6.774 6.774 0 0 0-9.266-2.43c-1.377.888-2.864 2.35-3.113 4.048zm44.106-129.266c1.1-.949 2.226-1.87 3.363-2.777.69-.551-.058.058-.338.255.3-.208.579-.441.869-.658q.873-.652 1.76-1.287 3.461-2.471 7.13-4.632 3.57-2.1 7.312-3.893.984-.471 1.978-.919c.452-.2 2.663-1.1.782-.361 1.354-.53 2.694-1.089 4.06-1.592a7.285 7.285 0 0 0 4.047-3.113 6.91 6.91 0 0 0 .683-5.218c-1.052-3.251-4.772-6.042-8.331-4.73a106.62 106.62 0 0 0-32.892 19.347c-2.694 2.321-2.559 7.23 0 9.578a6.942 6.942 0 0 0 9.577 0zm-203.831-12.281 2.26 18.793a7.4 7.4 0 0 0 1.983 4.789 6.772 6.772 0 0 0 9.578 0 6.525 6.525 0 0 0 1.984-4.789l-2.26-18.793a7.394 7.394 0 0 0-1.984-4.789 6.771 6.771 0 0 0-9.577 0 6.521 6.521 0 0 0-1.984 4.789zm-36.461 489.823a51.764 51.764 0 0 0 13.567 23.01c2.534 2.481 7.085 2.715 9.577 0a6.888 6.888 0 0 0 0-9.578 46.252 46.252 0 0 1-4.183-4.7l1.059 1.37a45.8 45.8 0 0 1-5.808-10l.683 1.617a46.238 46.238 0 0 1-1.834-5.322c-.948-3.412-4.845-5.858-8.331-4.73a6.893 6.893 0 0 0-4.73 8.331zM503.8 990.37q1.246-3.868 2.738-7.649c.25-.63.51-1.255.765-1.882.345-.85-.526 1.209-.156.37.153-.344.3-.691.45-1.035q.821-1.859 1.7-3.69a122.07 122.07 0 0 1 8.013-14.126 6.824 6.824 0 0 0-2.43-9.266 6.929 6.929 0 0 0-9.266 2.43 128.82 128.82 0 0 0-14.875 31.247 6.829 6.829 0 0 0 4.73 8.331 6.924 6.924 0 0 0 8.331-4.73zm68.673-455.538q1.1-4.113 2.517-8.131.713-2.005 1.5-3.982c.139-.347.281-.693.422-1.038.355-.873-.15.085-.162.378a7.694 7.694 0 0 1 .9-2.05 106.847 106.847 0 0 1 8.25-14.879 6.821 6.821 0 0 0-2.43-9.266 6.93 6.93 0 0 0-9.266 2.43 112.733 112.733 0 0 0-14.794 32.938c-.916 3.418 1.147 7.514 4.73 8.331a6.9 6.9 0 0 0 8.331-4.731zM398.409 816.546l5.605 15.883a7.23 7.23 0 0 0 3.112 4.048 6.771 6.771 0 0 0 9.266-2.43 6.727 6.727 0 0 0 .683-5.218l-5.6-15.884a7.23 7.23 0 0 0-3.112-4.048 6.773 6.773 0 0 0-9.266 2.43 6.729 6.729 0 0 0-.683 5.219z"/>
    </svg>
  </g>
  <g transform="matrix(0.726848, 0, 0, 0.727237, 1774.431542, 153.8542)">
    <svg width="835.113" height="488.149" viewBox="0 0 835.113 488.149">
      <path d="M94.545 75.642S163.323 31.861 233.9 21.28 365.779 2.523 453.861 8.941s146.255 11.708 210.82 35.765 80.879 40.322 92.406 64.948 69.889 251.559 69.889 251.559-79.034 70.529-183.114 92.632-263.795 46.594-402.534 8.106S6.654 374.41 6.654 374.41l44.183-222.975s10.701-54.248 43.708-75.793z" fill="#eab8c0"/>
      <path d="M106.674 164.768c13.2 15.2 111.51 64.5 207.65 79.634s163.987 18.245 226.912 3.187 111.055-35.014 136.881-51.449 48.13-36.391 50.478-57.521S697.144 74.094 577.757 52.8s-249.466-23.337-319.901-7.5-118.578 34.774-137.941 51.72-28.249 50.464-13.241 67.748z" fill="#d9aeb5"/>
      <path d="M269.615 356.226s71.589-22.738 123.241-18.042 89.352 8.7 89.352 8.7l40.952-18.094 8.734 13.717-1.642 45.329s-30.407 1.52-39.88-2.936-13.877-5.586-13.877-5.586-104.781 9.436-143.514 0-63.581-12.342-63.581-12.342z" fill="#626262"/>
      <path d="M71.182 110.582a49.241 49.241 0 0 1 2.848-5.211q.791-1.26 1.646-2.477c.272-.388.553-.769.828-1.154.188-.262.385-.516.577-.774.561-.75-.751.95-.158.206A95.668 95.668 0 0 1 87.21 90.263c9.164-8.376 19.335-15.11 30.839-21.6 32.776-18.484 69.321-30.016 105.871-38.307 48.847-11.081 98.969-15.96 149-16.711a1076.053 1076.053 0 0 1 147.06 8.217c42.034 5.158 84.059 12.508 124.867 23.948 14.946 4.19 31.037 9.33 44.553 15.247a153.349 153.349 0 0 1 16.517 8.308c7.685 4.539 11.51 7.883 18.562 14.043 13.9 12.145 26.221 25.886 33.88 42.832.878 1.942 2.147 5.271 3.14 8.131.948 2.732 1.817 5.489 2.692 8.245 1.345 4.237 2.887 8.389 4.328 12.59 6.842 19.947 11.328 40.9 16.453 61.327Q796.257 261.494 807 306.59q7.12 29.646 14.131 59.319.36 1.521.718 3.044l3.113-7.649c-25.013 17.2-52.277 31.62-79.516 44.883-59.6 29.019-123.33 51.2-189.072 60.842-73.693 10.808-149.4 9.261-223.31 1.5-60.271-6.325-120.65-16.891-178.834-34.049a574.262 574.262 0 0 1-141.334-64.13 165.818 165.818 0 0 1-2.822-1.793l3.113 7.648q6.144-41.583 13.258-83.023c7.124-41.346 16.093-82.341 26.462-122.994 3.018-11.833 6.174-23.639 9.721-35.326 1.416-4.665 2.9-9.314 4.508-13.915 1.379-3.934 2.7-7.424 4.048-10.37 1.523-3.322.946-7.292-2.429-9.266-2.916-1.7-7.735-.911-9.266 2.43-7.613 16.607-12.232 34.673-16.9 52.273-6 22.623-11.328 45.424-16.4 68.27C17.7 262.52 11.229 301.118 5.151 339.8Q2.574 356.194.123 372.61c-.467 3.162.355 5.847 3.113 7.648 14.082 9.2 28.988 17.272 43.921 24.976 28.193 14.544 57.454 27.523 87.625 37.4 55.411 18.133 113.475 28.846 171.2 36.284 74.358 9.581 150.118 12.578 224.788 4.809 70-7.282 137.238-27.361 201.245-56.323 33.845-15.314 67.644-32.562 98.435-53.49.448-.305.9-.6 1.348-.91a7.044 7.044 0 0 0 3.112-7.648q-5.177-21.991-10.441-43.963-10.755-45.007-21.819-89.94c-6.034-24.387-11.878-48.888-18.941-73-6.664-22.751-14.286-45.429-29.438-64.041a180.973 180.973 0 0 0-25.287-24.888 125.824 125.824 0 0 0-17.541-12.612c-12.462-7.132-26.072-12.364-39.637-16.967-38.33-13-78.457-20.936-118.4-27.032A1118.227 1118.227 0 0 0 405.9.174C354.393-.8 302.788 2.24 251.982 11c-41.672 7.18-83.112 18.211-121.536 36.121C106.74 58.17 81.965 72.4 65.83 93.548a56.37 56.37 0 0 0-6.343 10.2c-1.554 3.309-.926 7.3 2.429 9.266 2.939 1.717 7.705.894 9.266-2.432z"/>
      <path d="M115.719 91.569c-10.358 11.625-20.719 24.356-23.468 40.17a46.811 46.811 0 0 0 5.637 32c7.315 12.562 19.34 21.765 31.619 29.115 20.3 12.15 42.741 20.849 65.076 28.439a763.133 763.133 0 0 0 79.617 21.959c26.089 5.813 52.433 10.527 78.956 13.86 24.363 3.061 48.836 4.193 73.378 4.491a738.247 738.247 0 0 0 91.387-4.1c30.133-3.388 60.312-8.817 88.955-18.987 15.165-5.385 29.74-12.356 44.166-19.45a379.492 379.492 0 0 0 38.4-21.2c17.642-11.375 34.8-25.481 42.588-45.575a55.081 55.081 0 0 0 3.093-11.867c.534-3.614-.9-7.279-4.73-8.331-3.191-.877-7.793 1.089-8.331 4.73a58.131 58.131 0 0 1-3.093 11.868c-.1.261-.814 1.908-.13.361-.218.492-.435.983-.664 1.47q-.575 1.226-1.209 2.423a60.412 60.412 0 0 1-3.433 5.693q-.963 1.421-2 2.79c.856-1.136-.874 1.078-1.131 1.386a85.203 85.203 0 0 1-4.957 5.431 123.2 123.2 0 0 1-10.884 9.579c-9.89 7.58-20.688 13.968-31.623 19.9-14.291 7.758-29 14.838-43.842 21.465-25.7 11.471-53.7 17.867-81.417 22.148-29.56 4.566-59.555 6.359-89.444 6.724-25.334.311-50.846-.092-76.089-2.413a701.021 701.021 0 0 1-71.034-10.578c-26.68-5.218-53.167-11.566-79.229-19.315-23.272-6.919-46.4-14.85-67.768-25.12-10.15-4.878-20.42-10.271-29.334-17.207a64.985 64.985 0 0 1-12.947-13.014 34.074 34.074 0 0 1-6.217-13.518 50.075 50.075 0 0 1-.367-1.844c-.37-2 .1 1.365-.1-.636-.1-1-.171-2-.2-3.007q-.047-1.773.073-3.546c.026-.389.065-.776.095-1.165s.079-.771.127-1.156q-.171 1.264.009.083c.449-2.057.839-4.09 1.469-6.1q.463-1.481 1.017-2.928.248-.654.513-1.3c-.63 1.549.307-.655.433-.925a72.131 72.131 0 0 1 6.14-10.561q.707-1.019 1.442-2.019c.285-.389.581-.77.865-1.159.966-1.326-.93 1.138.086-.113 1.089-1.339 2.167-2.684 3.292-3.994 1.562-1.819 3.183-3.584 4.777-5.373 5.783-6.49-3.764-16.1-9.578-9.578zm152.075 276.174a348.575 348.575 0 0 1 40.679-13.113q10.465-2.677 21.085-4.708 5.306-1.017 10.641-1.87 2.445-.392 4.9-.749 1.336-.194 2.674-.379c.155-.021 1.639-.244.438-.061s.677-.088.886-.114a356.474 356.474 0 0 1 85.334-.728q2.908.327 5.81.7a8.254 8.254 0 0 0 1.339.175q-1.586-.213-.462-.061l.891.124q1.562.217 3.119.45 5.788.861 11.545 1.917 11.958 2.193 23.738 5.223c3.427.88 7.509-1.121 8.331-4.73a6.889 6.889 0 0 0-4.73-8.331 359.324 359.324 0 0 0-86.865-11.218 364.466 364.466 0 0 0-86.59 9.894 348.625 348.625 0 0 0-46.36 14.516 7.364 7.364 0 0 0-4.047 3.113 6.91 6.91 0 0 0-.683 5.218c1.033 3.193 4.8 6.113 8.331 4.73z"/>
      <path d="M488.86 351.67q8.532-5.594 17.559-10.368 4.46-2.352 9.026-4.49 1.062-.5 2.129-.983a12.231 12.231 0 0 0 1.178-.53c-1.514.9-1 .414-.451.2a27.814 27.814 0 0 1 4.052-1.2c1.11-.251-.729.086-.735.088a3.331 3.331 0 0 1 1.049-.064c.286 0 .57.021.855.025.866.012-1.831-.428-.642-.079.182.053.829.115.944.276.059.081-1.625-.924-.728-.269l.283.171q.843.584-.569-.442a6.211 6.211 0 0 1 .5.513l-.616-.793c.272.152.336.721.532.941-.761-.854-.487-1.269-.239-.425.087.3.143.6.222.9.359 1.35-.138-1.715-.024-.31.122 1.5.121 3 .126 4.513l.079 21.294.089 24.266c.013 3.542 3.106 6.936 6.773 6.772a6.888 6.888 0 0 0 6.772-6.772l-.17-46.056c-.014-3.9-.219-7.817-2.093-11.338-2.214-4.161-6.528-6.323-11.07-6.692a21.512 21.512 0 0 0-9.663 1.893c-3.7 1.53-7.325 3.269-10.9 5.071a214.7 214.7 0 0 0-21.1 12.194c-2.959 1.94-4.482 6.083-2.43 9.266 1.9 2.954 6.1 4.507 9.266 2.43zM264.193 372.6a513.4 513.4 0 0 0 80.771 14.91 538.534 538.534 0 0 0 82.1 2.491q23.228-1.086 46.262-4.355a6.752 6.752 0 0 0 4.048-3.112 6.774 6.774 0 0 0-2.43-9.266 7.962 7.962 0 0 0-5.219-.683c-.86.121-1.725.225-2.584.357 2.214-.341-.348.043-.792.1q-2.6.336-5.209.642-4.809.564-9.629 1.029-9.967.961-19.968 1.514-20.308 1.13-40.663.672-20.275-.441-40.481-2.384-5.208-.5-10.405-1.1-2.481-.288-4.96-.6-1.125-.139-2.25-.286l-1.348-.176-.45-.06.453.061a4.6 4.6 0 0 0-1.346-.184l-1.345-.187-2.239-.32q-2.682-.39-5.36-.806-4.892-.762-9.77-1.616-22-3.856-43.584-9.7c-3.415-.931-7.517 1.159-8.331 4.731a6.9 6.9 0 0 0 4.73 8.331z"/>
      <path d="M473.077 385.163a75.258 75.258 0 0 0 21.78 7.762 79.845 79.845 0 0 0 23.908 1.29 60.271 60.271 0 0 0 13.287-2.783c3.338-1.163 5.909-4.689 4.73-8.331-1.068-3.3-4.749-5.978-8.331-4.73a48.22 48.22 0 0 1-4.846 1.412q-1.17.274-2.352.5-.644.12-1.289.225c-.3.049-1.817.264-.592.1 1.277-.17-.319.034-.607.066q-.666.073-1.332.133-1.346.12-2.695.184-2.736.13-5.478.047-2.672-.079-5.334-.346c-.462-.045-.923-.1-1.383-.15-.5-.059-2.086-.337.026.013-.915-.151-1.834-.273-2.747-.434a77.336 77.336 0 0 1-10.456-2.594q-1.455-.471-2.887-1.006-.62-.231-1.234-.473c-.232-.092-.464-.187-.7-.28-.862-.346.394.2.586.25a14.357 14.357 0 0 1-2.673-1.223q-1.291-.63-2.549-1.323c-3.105-1.7-7.526-.864-9.266 2.429-1.676 3.173-.887 7.447 2.43 9.266z"/>
    </svg>
  </g>
  <g transform="matrix(0.73086, 0, 0, 0.728299, 1863.431512, 145.854169)">
    <svg width="586.98" height="263.628" viewBox="0 0 586.98 263.628">
      <path d="M214.717 6.778a410.408 410.408 0 0 0-.616 58.14c.968 17.406 2.892 34.759 7.1 51.7a312.974 312.974 0 0 0 17.637 52.031 237.409 237.409 0 0 0 25.094 43.393 298.234 298.234 0 0 0 36.236 40.808q2.573 2.43 5.19 4.812c2.618 2.387 7.025 2.781 9.577 0 2.387-2.6 2.8-7.029 0-9.577-6.828-6.223-13.446-12.679-19.753-19.431q-4.529-4.846-8.83-9.9-2.076-2.439-4.092-4.929-.972-1.2-1.928-2.41-.448-.567-.894-1.137l-.443-.57c-.8-1.027.915 1.194.178.23a239.213 239.213 0 0 1-26.03-42.463q-1.341-2.817-2.609-5.667-.62-1.391-1.223-2.791c-.19-.44-.373-.883-.566-1.322.926 2.106.049.11-.153-.378q-2.482-5.989-4.671-12.094c-3.03-8.432-5.659-17-7.972-25.659a232.015 232.015 0 0 1-5.262-23.754q-.234-1.488-.448-2.978-.1-.678-.192-1.356c-.031-.229-.061-.457-.094-.686.324 2.269.12.891.058.415q-.408-3.131-.746-6.27-.736-6.786-1.209-13.6a425.956 425.956 0 0 1-.306-57.773q.222-3.4.516-6.79c.306-3.54-3.334-6.927-6.773-6.773-3.931.176-6.444 2.981-6.772 6.773z"/>
      <path d="M421.274 24.89c-3.752 17.175-7.085 34.443-11.067 51.567a357.7 357.7 0 0 1-14.236 47.888q-1.162 3.012-2.4 6l-.242.581c-.44 1.063.141-.34.195-.455-.239.508-.441 1.036-.663 1.552q-.672 1.558-1.364 3.108-2.7 6.039-5.71 11.933c-3.827 7.49-8.035 14.78-12.528 21.89q-6.834 10.816-14.48 21.092c-1.319 1.779-2.674 3.529-4.006 5.3-.016.022.86-1.107.4-.52l-.528.68q-.464.6-.93 1.188-1.067 1.356-2.146 2.7-4.192 5.226-8.584 10.289c-5.681 6.544-11.616 12.872-17.845 18.9q-4.579 4.43-9.382 8.62-2.337 2.031-4.733 4-1.14.933-2.3 1.849-.534.425-1.072.844c-.152.119-.307.237-.459.358 1.6-1.27.471-.365.145-.117q-2.268 1.73-4.594 3.38a7.3 7.3 0 0 0-3.112 4.047 6.922 6.922 0 0 0 .682 5.219c1.844 2.859 6.178 4.624 9.267 2.43a239.616 239.616 0 0 0 38.4-34.787 358.713 358.713 0 0 0 33.325-43 281.682 281.682 0 0 0 25-46.7 324.038 324.038 0 0 0 15.4-48.117c4.159-16.985 7.5-34.158 11.147-51.256q.732-3.428 1.48-6.852c.754-3.453-1.033-7.489-4.73-8.331-3.42-.779-7.523 1.028-8.331 4.73z"/>
      <path d="M.256 59.056c.864 3.269 2.8 6.542 4.325 9.542C7.562 74.452 10.8 80.179 14.16 85.82a387.7 387.7 0 0 0 36.724 51.5c16.569 19.619 35.427 37.528 56.864 51.76 24.433 16.222 51.69 28.616 78.837 39.521a666.546 666.546 0 0 0 112.257 34.273c.943.2 1.886.407 2.835.574a16.817 16.817 0 0 0 4.805.01c4.127-.405 8.24-.913 12.348-1.472a336.65 336.65 0 0 0 46.149-9.628 321.511 321.511 0 0 0 84.529-38.213c13.346-8.441 26.2-17.636 38.832-27.1 12.353-9.253 24.877-18.445 36.548-28.555 21.815-18.9 40.991-41.708 53.517-67.846a177.113 177.113 0 0 0 8.287-20.444c1.158-3.469-1.338-7.4-4.73-8.331a6.9 6.9 0 0 0-8.331 4.731c-8.752 26.215-24.732 49.385-44.046 68.952-10.1 10.234-21.17 19.257-32.56 28-12.1 9.287-24.263 18.5-36.785 27.207-24.78 17.239-51.072 32.425-79.632 42.457a332.652 332.652 0 0 1-44.819 12.251c-6.856 1.375-13.758 2.567-20.692 3.467q-2.875.372-5.76.681c-1.025.111-3.853-.12-4.748.475-.258.172 1.523.334.365.231-3.417-.3-6.961-1.453-10.294-2.209q-10.546-2.391-21.005-5.152-32.968-8.649-65.042-20.352a524.778 524.778 0 0 1-76.956-34.925 247.681 247.681 0 0 1-59.631-46.954 344.878 344.878 0 0 1-39.585-51.114C25.61 78.978 18.914 67.987 13.693 56.447c-.122-.27-.234-.545-.361-.811-.531-1.109.674 1.989.3.7-.087-.3-.232-.581-.313-.886-2.226-8.419-15.295-4.848-13.061 3.6z"/>
      <path d="M166.439 217.289c12.442 1.265 25.107.032 37.45-1.659a110.669 110.669 0 0 0 14.568-2.721 71.341 71.341 0 0 0 17.965-7.855A128.309 128.309 0 0 0 254 191.672c2.671-2.345 2.576-7.213 0-9.578a6.937 6.937 0 0 0-9.578 0q-3.551 3.117-7.246 6.053c-1.141.9 1.267-.96.11-.086l-.632.478q-.945.708-1.9 1.394-1.818 1.3-3.7 2.506a71.059 71.059 0 0 1-7.537 4.225q-.956.461-1.927.887c-.461.2-1.38.433.37-.15-.366.122-.723.3-1.083.437q-2.206.865-4.475 1.559a96.454 96.454 0 0 1-14.448 2.938c-.555.08-1.112.153-1.667.234 2.527-.368-.057 0-.641.077q-2.023.254-4.05.47-4.512.482-9.042.773a122.939 122.939 0 0 1-20.116-.145 6.778 6.778 0 0 0-4.789 1.984 6.882 6.882 0 0 0-1.984 4.789c.178 3.976 2.985 6.387 6.773 6.772zm-97.279-65.85c10.891 4.5 23 5.877 34.7 5.835 12.273-.045 24.531-1.709 36.588-3.893a268.432 268.432 0 0 0 30.389-7.055 202.634 202.634 0 0 0 31.486-12.426c10.441-5.213 20.72-11.665 28.774-20.2 2.432-2.579 2.749-7.054 0-9.578-2.638-2.422-6.981-2.753-9.578 0a65.746 65.746 0 0 1-5.03 4.789 89.522 89.522 0 0 1-2.66 2.18c-1 .8 1.114-.844.4-.311-.234.175-.467.353-.7.529q-.853.636-1.722 1.252a117.808 117.808 0 0 1-12.926 7.9q-3.555 1.89-7.207 3.588-1.75.817-3.52 1.595c-.591.26-1.183.515-1.776.77-1.263.543 1.231-.512.37-.155-.418.173-.834.347-1.252.519q-7.25 2.973-14.715 5.378a250.6 250.6 0 0 1-29.525 7.34q-4.125.8-8.27 1.5-2.055.345-4.116.661-1.035.159-2.073.309-.624.09-1.248.177c-.482.067-1.889.169.132-.015-5.82.532-11.575 1.309-17.428 1.514-3.258.115-6.521.122-9.778-.009q-2.255-.09-4.5-.272-1.216-.1-2.429-.228-.6-.063-1.207-.136c-.5-.059-1.847-.314.2.037a82.146 82.146 0 0 1-17.778-4.657 6.782 6.782 0 0 0-5.219.683 6.772 6.772 0 0 0-2.429 9.266 7.974 7.974 0 0 0 4.047 3.113z"/>
      <path d="M249.435 187.686c15.109 11.6 34.721 16.476 53.491 17.154a122.445 122.445 0 0 0 56.932-11.618q3.282-1.572 6.432-3.4c.321-.187.64-.359.968-.531 1.127-.591-1.816.712-.513.214q1.335-.51 2.676-1c4.875-1.8 11.38-3.762 13.021-9.38a6.775 6.775 0 0 0-13.062-3.6c-.232.795.847-1.791.492-1.179s1.335-1.582.708-.934c-.847.877 1.422-.943.624-.441a20.322 20.322 0 0 1-2.149 1.2c-.3.141-1.758.77-.485.233s-.248.092-.554.212c-.86.337-1.727.656-2.594.976a45.964 45.964 0 0 0-5.291 2.151c-1.776.924-3.482 1.98-5.271 2.885q-1.374.7-2.769 1.346-.626.289-1.254.572-.394.177-.79.351c-.242.105-1.469.628-.306.138 1.2-.506-.5.205-.8.324q-.731.3-1.464.578-1.56.6-3.138 1.154a113.584 113.584 0 0 1-12.913 3.666q-3.282.729-6.6 1.272c-1.082.177-2.167.324-3.251.486 2.417-.362.133-.025-.377.035q-.909.106-1.82.2a119.863 119.863 0 0 1-13.53.621q-3.462-.037-6.919-.283-1.629-.117-3.253-.281-.72-.072-1.438-.155-.448-.051-.9-.107c-.27-.033-1.646-.214-.351-.041 1.335.179-.556-.085-.881-.134q-.8-.121-1.6-.256-1.674-.282-3.339-.621-3.3-.671-6.544-1.569-3.533-.984-6.978-2.255-.811-.3-1.616-.619a71.27 71.27 0 0 1-1.279-.517l.983.416c-1.166-.455-2.3-1.012-3.43-1.557a69.26 69.26 0 0 1-12.037-7.395 6.791 6.791 0 0 0-5.219-.683 6.909 6.909 0 0 0-4.047 3.113 6.833 6.833 0 0 0-.683 5.218 8.014 8.014 0 0 0 3.112 4.048zm-25.951-79.197C235.2 116.2 249.074 120 262.65 122.908a274.492 274.492 0 0 0 44.73 5.787 261.9 261.9 0 0 0 42.213-1.444 181.055 181.055 0 0 0 33.59-6.643c11.971-3.769 24.2-9.393 32.735-18.882 2.369-2.634 2.792-7.015 0-9.578-2.586-2.374-7.048-2.813-9.578 0a46.667 46.667 0 0 1-5.489 5.132c-.355.286-1 .636.579-.446-.276.189-.538.4-.808.6q-.683.5-1.381.971-1.7 1.156-3.478 2.19a72.85 72.85 0 0 1-6.894 3.528c-.546.246-1.1.474-1.646.719 2.172-.972-.209.071-.727.274q-1.87.734-3.768 1.391a133.761 133.761 0 0 1-16.036 4.4q-3.921.835-7.878 1.493-1.931.324-3.869.609-.865.129-1.734.25c-.493.069-1.838.233.426-.054-.341.043-.682.09-1.023.134a259.728 259.728 0 0 1-39.941 2q-10.71-.279-21.374-1.428-2.512-.271-5.021-.59c-.476-.061-.959-.107-1.432-.186 1.736.29.568.075.13.014q-1.55-.216-3.1-.45-5.237-.793-10.438-1.8a200.443 200.443 0 0 1-22.361-5.462q-2.531-.8-5.022-1.715-1.242-.459-2.471-.953l-.409-.165q-1.014-.42.4.174c-.182.095-1.4-.612-1.614-.708a69.893 69.893 0 0 1-9.642-5.282 6.823 6.823 0 0 0-9.266 2.43 6.928 6.928 0 0 0 2.43 9.266z"/>
      <path d="M405.281 105.054a101.44 101.44 0 0 0 32.335 39.746 100.9 100.9 0 0 0 83.925 16.239 6.774 6.774 0 0 0-3.6-13.061c-2.193.55-4.4 1.028-6.63 1.418-1.077.189-2.165.318-3.24.51-.04.007 1.487-.187.716-.1-.29.033-.579.072-.868.106q-.978.114-1.958.209a94.583 94.583 0 0 1-13.328.334q-3.279-.147-6.542-.521c-.507-.058-1.013-.133-1.52-.186 2.045.216.145.012-.366-.067q-1.73-.266-3.449-.6a94.273 94.273 0 0 1-12.883-3.429q-1.551-.534-3.083-1.122-.715-.274-1.425-.561c-.27-.109-.539-.222-.81-.331-.817-.328 1.577.69.209.085-1.913-.845-3.8-1.729-5.66-2.693a92.529 92.529 0 0 1-10.289-6.229q-1.114-.777-2.206-1.587c-.415-.309-.822-.63-1.239-.936-.056-.04 1.175.923.6.464-.252-.2-.508-.4-.761-.6q-2.349-1.881-4.576-3.909a95.417 95.417 0 0 1-8.243-8.5q-1.074-1.252-2.1-2.544c-.162-.2-.32-.407-.482-.609-.512-.636 1.056 1.394.227.3-.312-.413-.624-.826-.931-1.243q-1.956-2.658-3.724-5.448a93.2 93.2 0 0 1-6.4-11.974 6.784 6.784 0 0 0-4.048-3.113 6.924 6.924 0 0 0-5.218.683 6.842 6.842 0 0 0-3.113 4.048 7.821 7.821 0 0 0 .683 5.218zM370.063 173.9c-3.35 6.149-3.026 13.429-1.465 20.054a47.494 47.494 0 0 0 7.32 16.614 33.429 33.429 0 0 0 11.828 9.734 78.423 78.423 0 0 0 15.964 6.358c5.583 1.536 11.841 2.725 17.573 1.295a6.841 6.841 0 0 0 4.73-8.331 6.91 6.91 0 0 0-8.331-4.731c-.386.1-.777.15-1.165.232 2.543-.535 1.23-.157.508-.117a22.283 22.283 0 0 1-2.912-.045c-.534-.04-1.063-.108-1.6-.161 2.62.262.726.1.13 0-1.18-.2-2.353-.446-3.516-.728a67.936 67.936 0 0 1-7.065-2.142c-1.131-.408-2.239-.867-3.359-1.3 2.213.862.363.149-.168-.089q-1.018-.456-2.022-.944a51.091 51.091 0 0 1-5.922-3.348q-.552-.368-1.092-.757c-.207-.15-.409-.306-.615-.457 1.883 1.376 1 .795.6.449a20.078 20.078 0 0 1-1.921-1.825c-.088-.1-.17-.205-.259-.3-.664-.72 1.162 1.582.475.615a43.037 43.037 0 0 1-1.02-1.478c-.647-1-1.242-2.033-1.794-3.087q-.479-.915-.915-1.852c-.148-.319-.289-.641-.434-.961-.448-.984.242.592.265.636a26.354 26.354 0 0 1-1.468-4.078 41.259 41.259 0 0 1-1.131-4.544c-.065-.348-.119-.7-.179-1.045-.226-1.288.206 1.831.036.245a28.449 28.449 0 0 1-.152-2.2 23.018 23.018 0 0 1 .026-1.966c.018-.318.05-.635.076-.952.095-1.181-.345 1.957-.014.268a14.416 14.416 0 0 1 .447-1.734c.09-.276.207-.542.3-.817-.7 2.121-.376.9-.068.336 1.694-3.11.87-7.523-2.43-9.266-3.165-1.672-7.456-.893-9.266 2.43z"/>
    </svg>
  </g>
  <g transform="matrix(0.734522, 0, 0, 0.726301, 2085.431569, 127.854183)">
    <svg width="231.443" height="145.945" viewBox="0 0 231.443 145.945">
      <path d="M92.629 38.265s39.326-16.554 62.343-.951S175.438 69.086 170.6 76s-32.957 21.2-54.747 17.784-41.891-13.05-43.766-28 20.542-27.519 20.542-27.519z" fill="#4e4e4e"/>
      <path d="M67.952 54.689a32.454 32.454 0 0 0 .792 13.925 35.287 35.287 0 0 0 5.545 11.143c5.572 7.427 13.142 12.357 21.763 15.614a76.516 76.516 0 0 0 25.127 4.523 85.766 85.766 0 0 0 25.465-3.318c7.854-2.261 15.915-5.582 22.557-10.418a34.751 34.751 0 0 0 9.391-9.583 23.87 23.87 0 0 0 3.565-12.768c-.106-8.784-4.71-17.135-10.881-23.168a55.836 55.836 0 0 0-21.754-12.829c-17.027-5.584-35.551-3.277-52.377 1.858a177.023 177.023 0 0 0-6.316 2.067c-3.34 1.157-5.908 4.693-4.731 8.331 1.07 3.306 4.747 5.972 8.331 4.73a132.984 132.984 0 0 1 24.108-6.122c.944-.139-1.342.16-.394.057.235-.026.469-.058.7-.085q.7-.082 1.409-.152 1.645-.163 3.3-.262 3.068-.183 6.141-.12 2.721.06 5.431.339c.467.049.934.109 1.4.162.764.088-.879-.107-.8-.107a4.336 4.336 0 0 1 .6.089q1.4.213 2.782.49a57.67 57.67 0 0 1 10.028 2.95c1.532.61-1.035-.472.046.012.366.164.732.325 1.095.494q1.267.591 2.5 1.251a47.517 47.517 0 0 1 4.431 2.686q.493.337.978.688c.181.132 1.511 1.128.588.43-.881-.667.2.179.4.346q.537.447 1.06.911a36.876 36.876 0 0 1 3.745 3.817c.167.2 1.018 1.273.34.4-.708-.916.284.409.414.595q.739 1.061 1.389 2.178c.43.741.83 1.5 1.192 2.276.083.179.159.36.243.538.314.664-.318-.772-.3-.714.126.493.372.98.53 1.466a22.757 22.757 0 0 1 .609 2.234c.08.372.119.761.213 1.129-.509-1.994-.07-.558-.029.091a18.162 18.162 0 0 1 0 2.274 3.453 3.453 0 0 1-.064.757c-.037.1.273-1.607.114-.857-.093.437-.161.878-.269 1.314q-.139.564-.319 1.117c-.076.234-.663 1.727-.192.6.449-1.073-.088.133-.214.377q-.343.663-.739 1.3-.3.474-.62.932c-.106.15-.233.3-.328.454-.034.056.957-1.168.482-.633-.587.659-1.15 1.329-1.779 1.95-.588.58-1.2 1.134-1.837 1.663-.147.123-.3.239-.446.364-.55.473.668-.5.614-.467-.371.253-.722.538-1.089.8a48.532 48.532 0 0 1-4.4 2.746q-2.429 1.353-4.955 2.517-.588.271-1.18.533c-.2.088-.4.172-.593.259-.823.367 1.262-.513.425-.179-.868.347-1.734.7-2.611 1.022a78.554 78.554 0 0 1-10.978 3.169q-1.373.292-2.754.535-.638.113-1.277.214c-.295.047-1.933.275-.808.131s-.493.059-.813.1q-.644.074-1.287.137-1.5.149-3.012.238a78.255 78.255 0 0 1-11.21-.128q-1.4-.115-2.79-.284c-.213-.026-.428-.061-.642-.08-.045 0 1.5.218.731.1-.568-.09-1.138-.169-1.7-.264q-2.719-.453-5.4-1.107a62.384 62.384 0 0 1-5.213-1.516q-1.284-.436-2.546-.934c-.193-.077-.385-.158-.579-.234-.7-.271.7.3.658.279-.488-.256-1.016-.45-1.515-.687a44.084 44.084 0 0 1-4.718-2.592q-1.136-.719-2.219-1.514c-.166-.121-.326-.258-.5-.37-.028-.019 1.113.9.556.422-.366-.316-.747-.613-1.111-.931a32.24 32.24 0 0 1-3.781-3.89c-.126-.154-.243-.32-.376-.467-.031-.035.863 1.177.454.575-.225-.331-.469-.649-.694-.979q-.786-1.157-1.467-2.381a38.44 38.44 0 0 1-1.159-2.315c-.519-1.1.485 1.3.075.15-.156-.436-.319-.867-.462-1.307q-.4-1.22-.679-2.473c-.085-.385-.153-.772-.229-1.158-.089-.449-.087-1.245.066.634-.021-.26-.061-.52-.085-.78q-.109-1.175-.1-2.355c0-.459.022-.918.053-1.377.035-.507.248-2.093-.05.031a7.463 7.463 0 0 0-.683-5.219 6.772 6.772 0 0 0-9.266-2.429c-1.371.884-2.874 2.352-3.112 4.047z"/>
      <path d="M181.407 58.765a152.682 152.682 0 0 1 3.274-1.548c.276-.125.554-.246.83-.371 1.079-.491-.208.1-.364.147.714-.219 1.405-.565 2.111-.816a31.64 31.64 0 0 1 3.22-.971c.578-.139 1.161-.236 1.743-.356.906-.187-1.4.121-.481.064.37-.023.738-.068 1.108-.085.595-.028 1.192-.03 1.787 0 .254.013.507.042.761.055 1.192.062-.689-.089-.671-.1.23-.13 1.23.238 1.481.3.61.15 1.213.332 1.806.54a2.989 2.989 0 0 1 .706.266c-.023-.023-1.595-.748-.575-.236.453.227.91.44 1.354.684a29.705 29.705 0 0 1 2.577 1.642c.9.621-.381-.284-.455-.358.175.175.4.329.595.491q.588.5 1.148 1.034a29.3 29.3 0 0 1 2.372 2.548c.163.2.316.408.484.6-.069-.079-.978-1.352-.363-.447.3.438.608.865.9 1.309a38.62 38.62 0 0 1 1.859 3.192c.5.964.962 1.947 1.407 2.939.478 1.064-.131-.278-.173-.416.083.27.221.544.326.809q.4 1.015.767 2.043c.812 2.268 1.517 4.573 2.191 6.885 1.7 5.829 3.336 11.678 5 17.517.971 3.405 4.829 5.863 8.331 4.73a6.889 6.889 0 0 0 4.73-8.331c-1.6-5.629-3.192-11.263-4.818-16.886a87.485 87.485 0 0 0-5.965-15.934c-5.082-9.846-14.524-18.006-26-18.431-7.059-.261-13.641 2.8-19.839 5.793-3.2 1.544-4.3 6.36-2.43 9.266a6.95 6.95 0 0 0 9.266 2.43zm-27.919 35.949 14.907-.528 3.666-.129c.556-.02 1.112-.042 1.668-.059a5.41 5.41 0 0 1 1.828.021c-.078-.033-1.755-.239-.619-.042.263.046.785.374-.072-.053l-.45-.173q-1.164-.99-.6-.466a2.638 2.638 0 0 0 .4.421c-.859-.58-.711-1.013-.366-.412.132.229.273.453.4.683.281.494.544 1 .805 1.5q.755 1.454 1.436 2.941c.21.459.391.943.62 1.394-.9-1.778.056.159.228.6q1.23 3.15 2.144 6.41.883 3.151 1.469 6.375.137.751.256 1.506c.046.287.085.576.131.863.147.911-.172-1.421-.065-.5.127 1.084.25 2.167.336 3.255a68.611 68.611 0 0 1 .18 7.628q-.059 1.854-.219 3.7-.075.87-.174 1.737a4.242 4.242 0 0 0-.1.866l.126-.935c-.04.288-.082.575-.126.863a7.419 7.419 0 0 0 .683 5.219 6.772 6.772 0 0 0 9.266 2.429 6.533 6.533 0 0 0 3.112-4.047 75.256 75.256 0 0 0-7.207-46.362c-1.4-2.785-3-5.579-5.737-7.256-2.862-1.752-6.12-1.766-9.354-1.651l-18.573.657c-3.537.125-6.941 3.025-6.773 6.772.16 3.562 2.98 6.907 6.773 6.773zm-48.634-66.95c-.97-.031 2.028.411 1.089.147-.915-.257 1.718.952.919.407-1.39-.948 1.178 1.231.182.194-.336-.35-.655-.707-.98-1.068 1.693 1.883.2.208-.187-.417a49.971 49.971 0 0 1-3.247-6.518c-2.209-5.1-4.3-10.372-7.912-14.674A17.011 17.011 0 0 0 83.213.079C78.97-.346 74.861 1 71.035 2.676a72.036 72.036 0 0 0-9.623 5.5Q56.666 11.2 52.033 14.4c-7.42 5.133-14.615 10.6-21.585 16.322a6.8 6.8 0 0 0-1.983 4.789 6.9 6.9 0 0 0 1.983 4.789c2.922 2.681 6.646 2.409 9.578 0q2.175-1.786 4.381-3.536c.735-.583 1.475-1.16 2.215-1.738.278-.217.971-.813-.258.2.482-.4.994-.763 1.491-1.14q4.484-3.407 9.09-6.644a178.37 178.37 0 0 1 18.213-11.755c.762-.407 1.54-.774 2.32-1.142 1.379-.651-1.471.513-.034.027.4-.136.8-.291 1.2-.42a19.552 19.552 0 0 1 2.208-.572c.906-.177.7.282-.4.03a9.173 9.173 0 0 0 1.587-.068l.393.014q1.1.092-.632-.119a9.244 9.244 0 0 0 1.148.252l.377.114q1.008.364-.5-.243c.109.17.688.353.882.469a7.4 7.4 0 0 0 .75.494l-.81-.62q.272.228.528.472c.257.245.5.5.737.767 1.184 1.338-.58-.937.042.041 2.6 4.087 4.4 8.573 6.345 12.989 2.574 5.83 6.306 12.9 13.559 13.137a6.828 6.828 0 0 0 6.773-6.773 6.91 6.91 0 0 0-6.773-6.772zM78.681 60.892a87.934 87.934 0 0 1-2.3-1.592q-.514-.37-1.021-.749c-.381-.285-1.353-1.231.125.1-.992-.9-2.085-1.692-3.091-2.577-1.522-1.341-2.989-2.745-4.573-4.014-5.221-4.18-11.379-7.071-18.246-6.652-7.542.459-14.559 3.644-20.831 7.7A78.906 78.906 0 0 0 .821 84.141c-1.571 3.17-.955 7.477 2.43 9.266 3.06 1.617 7.586.959 9.266-2.43a72.27 72.27 0 0 1 4.476-7.8q1.158-1.751 2.417-3.431c.258-.346 1.189-1.421-.086.1.17-.2.33-.419.5-.627q.813-1.014 1.662-2a72.785 72.785 0 0 1 6.282-6.432q1.484-1.341 3.038-2.6c.306-.247.652-.477.939-.746-1.276 1.2-.661.51-.26.208q1.039-.78 2.107-1.521a62.529 62.529 0 0 1 7.658-4.611 9.5 9.5 0 0 0 1.944-.914l-.825.345q.4-.165.8-.321l.806-.3a36.191 36.191 0 0 1 4.924-1.329c1.425-.3-1.316.113-.352.037.344-.027.687-.068 1.033-.089a19.364 19.364 0 0 1 2.26-.009 5.816 5.816 0 0 0 1.019.085l-.992-.13a17.817 17.817 0 0 1 1.6.345c.331.089 1.263.587 1.569.515l-.847-.357q.294.133.585.274t.558.275q.714.361 1.405.766.637.374 1.252.786c.533.359 2.009 1.653.065-.014a150.131 150.131 0 0 0 13.8 11.1c2.948 1.98 7.63.666 9.266-2.43a6.936 6.936 0 0 0-2.43-9.266zM83.9 79.5A97.753 97.753 0 0 0 58 93.051a51.524 51.524 0 0 0-10.214 9.358A26.447 26.447 0 0 0 41.74 117.3c-.228 3.542 3.277 6.929 6.772 6.772a6.932 6.932 0 0 0 6.773-6.772q.02-.386.059-.769-.258 1.751-.082.668c.11-.494.2-.987.341-1.474a17.61 17.61 0 0 1 .612-1.782q-.668 1.553-.223.581c.42-.789.824-1.573 1.31-2.326a9.577 9.577 0 0 0 .88-1.27q-1.005 1.279-.345.447l.248-.3a37.4 37.4 0 0 1 4.152-4.216c.69-.606 1.4-1.182 2.116-1.759q.816-.637-.407.313l.7-.531q.62-.462 1.247-.913a91.082 91.082 0 0 1 10.879-6.726q2.834-1.488 5.766-2.776.405-.177.81-.351-1.41.593-.4.171c.41-.163.818-.332 1.229-.494q1.642-.645 3.31-1.228c3.334-1.172 5.911-4.682 4.731-8.331-1.066-3.293-4.753-5.988-8.331-4.73z"/>
      <path d="M141.41 95.219q.662.84-.31-.411.246.321.488.647.483.651.949 1.315.93 1.328 1.788 2.7 1.606 2.579 2.952 5.311c.473.96.834 2.014 1.356 2.945-1-1.782-.105-.235.087.257s.388 1.009.572 1.518q1.037 2.859 1.794 5.81t1.229 5.955c.041.267.082.535.12.8q-.222-1.7-.081-.595c.061.538.126 1.074.178 1.612q.157 1.614.231 3.234.137 3.037-.027 6.077-.089 1.618-.263 3.231c-.061.557-.532 2.291-.012.21-.129.516-.164 1.078-.253 1.6a7.345 7.345 0 0 0 .683 5.219 6.907 6.907 0 0 0 4.047 3.112c3.276.746 7.7-1 8.331-4.73a68.376 68.376 0 0 0-14.281-55.4 6.769 6.769 0 0 0-4.789-1.983 6.9 6.9 0 0 0-4.789 1.983 6.814 6.814 0 0 0-1.983 4.789 7.869 7.869 0 0 0 1.983 4.789z"/>
    </svg>
  </g>
  <g transform="matrix(0.717135, 0, 0, 0.717777, 2065.431432, -220.145774)">
    <svg width="89.244" height="330.186" viewBox="0 0 89.244 330.186">
      <path d="M34.405 6.778v58.7c0 3.542 3.115 6.936 6.772 6.772a6.89 6.89 0 0 0 6.773-6.772v-58.7c0-3.542-3.115-6.936-6.773-6.772a6.889 6.889 0 0 0-6.772 6.772zm1.174 103.305v49.3c0 3.542 3.115 6.936 6.772 6.772a6.89 6.89 0 0 0 6.773-6.772v-49.3c0-3.543-3.115-6.937-6.773-6.773a6.89 6.89 0 0 0-6.772 6.773zm0 96.26v50.479c0 3.542 3.115 6.936 6.772 6.772a6.891 6.891 0 0 0 6.773-6.772v-50.479c0-3.542-3.115-6.936-6.773-6.772a6.89 6.89 0 0 0-6.772 6.772zM1 280.061l34.257 46.825c1.65 2.256 3.836 3.625 6.748 3.234a6.788 6.788 0 0 0 5.63-4.852c.248-.883.567-1.733.864-2.6.233-.68-.279.645-.281.647a3.755 3.755 0 0 0 .348-.766q.313-.666.66-1.316a41.731 41.731 0 0 1 3.043-4.836c.291-.4.593-.8.888-1.2.44-.6-.426.546-.408.526.141-.158.266-.337.4-.5.62-.777 1.254-1.544 1.895-2.3q2.02-2.4 4.109-4.734c5.662-6.372 11.612-12.481 17.658-18.487q5.209-5.175 10.484-10.283a6.773 6.773 0 1 0-9.578-9.578c-6.275 6.116-12.551 12.233-18.637 18.539A217.173 217.173 0 0 0 41.2 308.7a39.755 39.755 0 0 0-6.63 12.964l12.378-1.618-34.256-46.822a7.353 7.353 0 0 0-4.047-3.112 6.923 6.923 0 0 0-5.219.683C.6 272.616-1.24 277 1 280.061z"/>
    </svg>
  </g>
</svg>