<?xml version="1.0" encoding="utf-8"?>
<svg viewBox="3640.752 -900.854 967 1000.994" width="967" height="1000.994" xmlns="http://www.w3.org/2000/svg">
  <g transform="matrix(0.395798, 0, 0, 0.395858, 3640.752252, -900.85359)">
    <svg width="2013.652" height="2238.176" viewBox="0 0 2013.652 2238.176">
      <path d="M6.886 1138.78s39 51.316 65.81 71.979l26.804 20.664 57.424-133.395s99.2-201.452 167.833-272.765 196.958-198.641 311.987-232.935 222.447-56.576 347.941-20.608S1240.851 701.145 1275 734.608s106.9 124.769 124.124 167.367 34.118-30.906 39.539-40.894S1566.4 619.237 1566.4 619.237s110.067-232.506 124.61-261.654 101.7-194.089 125.6-229.748 47.884-86.177 93.086-103.127 77.16-25.8 86.52-5.125 24.777 64.292-19.449 139.855-147.685 211.449-182.632 263.27S1649.562 641.3 1618.381 688.79s-113.407 171.483-138.315 211.962-50.887 84.689-50.887 84.689 23.269 92.131 26.661 165.646 9 201.337-7.551 286.079-50.913 219.63-102.907 340.361-80.594 181.234-136.081 271.137-96.616 134.4-108.37 142.292-33.989-.8-17.236-40.3 56.147-128.859 74.6-174.639 39.117-94.042 48.459-174.562-3.122-203.465-3.122-203.465-5.115 81.32-19.533 138.555-45.327 175.206-88.422 248.1-98.756 165.565-130.319 188.6-43.535 7.283-26.332-33.719 51.072-104.5 79.036-188.3 72.862-199.356 71.441-302.757-2.147-195.084-32.231-266.212 1.372-62.8-66.959-81.487-205-17.86-237.579 14.072-117.004 97.606-158.648 221.928c-31.113 92.884-28.866 124.589-19.03 159.076s52.107 186.507 76.479 244.88 79.039 190.431 86.9 204.076 27.59 61.468 16.086 69.4-29.081 4.549-68.78-57.915-69.552-97.84-106.668-168.552-72.955-130.906-88.41-161.51c-12.625-25-47.015-50.442-47.015-50.442s-30.085-36.228-58.323-32.44c-36.618 4.912-40.581 22.591-40.581 22.591s-11.94 55.013 14.308 105c58.8 112 121.742 207.638 149.358 242.6s75.052 100.664 51.574 117.927c-19.013 13.98-182.023-163.776-182.023-163.776s-98.176-118.141-129.594-177.407-75.445-145.555-101.91-223.663-50.382-100.362-50.382-100.362-35.022-37.459-51.765-101.361-27.858-140.922-30.508-176.054-6.916-150.058-6.916-150.058z" fill="#fff"/>
      <path d="M285.3 1546.687c-6.941 4.91-10.091 13.774-10.582 22.262a23.272 23.272 0 0 0 1.028 9.31c2.691 7.407 11 11.7 18.885 11.594 15.982-.218 39.867-17.1 35.244-35.476-4.366-17.361-32.785-16.028-44.575-7.69zm74.834 38.545c10.514 2.547 23.21 3.7 30.623-4.177a20.838 20.838 0 0 0 4.7-8.772c3.246-11.737-2.372-25.332-12.956-31.354-34.632-19.709-63.793 34.271-22.367 44.303zm53.794-221.463c29.8-16.372 70.773-8.423 92.288 17.9s21.144 68.064-.836 94.005c-21.069 24.867-56.291 33-88.872 32.125-14.436-.388-29.416-2.457-41.462-10.424-25.677-16.984-14.5-45.626-7.019-69.615 7.953-25.496 21.734-50.712 45.901-63.991z" fill="#eab8c0"/>
      <path d="M167.383 1186.8c18.854-15.571 43.125-22.615 66.652-29.279l46.025-13.037c19.357-5.482 39.2-11.019 59.264-9.562s40.74 11.341 49.543 29.431c7.582 15.582 5.1 34.484-2 50.287s-18.381 29.286-28.847 43.1c-9.56 12.613-18.865 25.97-32.128 34.606-25.7 16.738-59.284 11.89-89.463 6.419-18.47-3.348-46.758-11.725-63.93-19.306-44.186-19.509-44.577-60.07-5.116-92.659zm25.824-157.438c45.314-46.455 113.344-69.626 177.593-60.488 18.187 2.587 38.41 7.172 53.641-3.1 18.6-12.542 18.167-42.286 3.959-59.65s-37.416-24.548-59.655-27.511a227.236 227.236 0 0 0-88.283 5.662m107.679-118.698c47.931-5.47 97.314 7.883 137.532 34.525s67.374 55.141 80.1 101.676c10.7 39.132 58.137 61.775 76.3 50.681 29.073-17.753 33.361-59.719 26.283-93.04S680 797.653 657.2 772.344c-42.975-47.7-98.6-90.644-162.771-92.731m175.015-92.354a253.167 253.167 0 0 1 102.505 150.43c4.674 20.312 6.937 41.575 16.473 60.108s29.046 34.1 49.653 30.971c13.3-2.022 24.539-11.492 31.841-22.792s11.247-24.386 15.067-37.285c6.518-22.013 7.947-38.048 3.7-60.609-3.828-20.331-8.523-46.623-16.435-65.739-11.3-27.3-26-44.435-38.739-64.565-12.944-20.448-28.95-18.986-42.009-22.832-7.416-2.185-15.339-1.455-23.024-.619-26.342 2.867-51.673 16.614-77.711 21.528m331.445 190.869c-3.192 15.716-7.966 31.286-8.163 47.321s5.108 33.217 18.148 42.552c7.169 5.132 15.986 7.433 24.718 8.648 24.427 3.4 51.994-2.378 67.174-21.814 7.472-9.567 11.247-21.455 14.346-33.191a406.215 406.215 0 0 0 12.934-83.039c1.214-23.892 8.305-65.687-4.361-85.981-7.626-12.219-32.8-13.957-44.466-22.4-14.924-10.8-109.887-63.856-102.795-11.967 1.561 11.424 11.357 25.054 15.031 36.371a248.7 248.7 0 0 1 9.493 40.562 241.283 241.283 0 0 1-2.059 82.938zm255.318-26.949c8.231 55.724-32.889 107.555-35.145 163.839-.57 14.216 1.967 29.706 12.261 39.528 5.882 5.613 13.787 8.79 21.825 10.012 20.918 3.179 42.224-6.458 57.587-21.006s25.682-33.547 34.87-52.606c3.2-6.644 6.372-13.689 5.945-21.052-.5-8.614-5.8-16.1-10.941-23.034q-19.71-26.569-40.186-52.561m648.427-620.506c.08 19.985-13.446 37.12-26.282 52.44-6.423 7.666-8.882 20.884-17.428 26.081s-23.684 2-32.756-2.211c-9.56-4.437-14.839-14.674-22.683-21.714-28.407-25.5-97.1-27.053-58.9-88.555 40.174-64.7 60.531-50.253 100.087-31.45 25.442 12.096 57.836 33.8 57.962 65.409zm-246.585 130.894c3.983-13.307 17.808-21.9 31.627-23.309s27.564 3.126 40.206 8.879c16.691 7.6 32.865 17.936 42.782 33.361s12.2 36.793 1.714 51.834c-6.24 8.946-16.006 14.641-24.37 21.643A92.889 92.889 0 0 0 1794.819 414c-1.158 2.229-2.518 4.752-4.959 5.347-1.77.432-3.6-.309-5.235-1.113-21.3-10.472-35.106-33.8-57.786-40.794-12.342-3.808-29.091-4.656-32.63-17.077-1.986-6.971 1.732-14.112 4.541-20.794s19.712-17.06 14.671-22.269m-68.899 135.134a98.182 98.182 0 0 1 75.042 41.075c5.256 7.5 9.55 16.232 9.114 25.378-.514 10.8-7.408 20.091-14.014 28.644l-31.2 40.39c-7.652 9.907-17.9 20.912-30.251 18.867-11.695-1.937-17.916-14.341-25.406-23.529-7.98-9.789-19.658-18.322-20.588-30.918-.339-4.592.875-9.144 2.139-13.573q6.108-21.409 14.075-42.231m-103.062 224.094c-1.711 5.469-2.988 11.4-1.278 16.871 1.432 4.58 4.794 8.282 8.274 11.586a109.223 109.223 0 0 0 17.333 13.422c5.077 3.171 11.075 6.011 16.858 4.464 5.024-1.343 8.6-5.663 11.779-9.78q19.2-24.877 36.034-51.472c2.026-3.2 4.053-6.486 5-10.154 5.813-22.412-29.735-48.807-50.449-43.808-22.408 5.409-37.457 49.39-43.551 68.871zm-333.593 589.718c16.076-12.176 35.057-19.931 54.256-26.1 11.942-3.84 24.306-7.15 36.838-6.622s25.4 5.4 33.055 15.344c5.38 6.99 7.765 15.829 9.044 24.556 1.167 7.965 1.49 16.244-.922 23.923-5.833 18.572-25.259 28.528-41.744 38.886-28.633 17.992-51.03 42.094-69.5 70.164-18.864 28.674-37.563 32.388-45.2-10.128-3.659-20.362-20.2-31.868-17.879-51.416 3.82-32.21 14.602-57.815 42.052-78.607zm15.271 260.266c-4.428-39.326 22.8-80.063 62.408-93.377 11.8-3.967 24.293-5.675 36.711-7.122 8.282-.965 16.919-1.79 24.749.862 10.161 3.441 17.39 12.446 20.406 22.228s2.32 20.28.427 30.342a135.7 135.7 0 0 1-14.822 40.849c-3.36 6.035-7.358 12.016-13.3 15.9-5.557 3.635-12.313 5.119-18.828 6.793a246.761 246.761 0 0 0-74.4 32.926c-5.8 3.833-11.618 8-18.471 9.636q-1.052-15.5-2.1-31.009" fill="#d9aeb5"/>
      <path d="M.019 1124.832c.238 58.208 2.749 116.348 7.9 174.333 3.433 38.637 7.163 77.238 15.543 115.162 9.417 42.621 23.4 84.976 45.1 123.007 11.518 20.189 25.469 39.317 42.4 55.322 16.808 15.891 36.622 28.6 57.543 38.363 45.441 21.2 96.68 29.858 146.621 26.354 53.211-3.734 105.6-21.291 148.675-53.094 43.384-32.028 71.071-80.227 84.764-131.82 6.547-24.67 9.393-49.785 9.726-75.26.383-29.328-.206-58.705-2.685-87.94a520.751 520.751 0 0 0-23.147-117.089c-15.285-47.114-32.966-93.518-57.634-136.584-6.958-12.147-14.28-24.08-21.741-35.923-4.635-7.357-16.361-.568-11.7 6.836 14.149 22.46 27.8 45.277 39.38 69.185 10.953 22.613 19.67 45.561 28.148 69.506 6.424 18.144 12.712 36.351 17.782 54.928a470.823 470.823 0 0 1 11.605 55.9c.787 5.383 1.313 9.466 1.993 15.427q1.014 8.895 1.765 17.817c1.129 13.32 1.858 26.672 2.288 40.032.5 15.6.6 31.2.411 46.807a326.494 326.494 0 0 1-2.2 37.316 286.952 286.952 0 0 1-6.848 34.658 281.707 281.707 0 0 1-12.05 35.971c-9.473 22.953-22.862 45.406-39.637 63.976-17.567 19.447-39.327 34.634-62.554 46.588a271.032 271.032 0 0 1-72.689 24.826 292.515 292.515 0 0 1-145.3-9.073 238.13 238.13 0 0 1-60.673-29.445 195.057 195.057 0 0 1-46.415-45.359c-26.287-36.08-42.26-77.189-53.782-119.971q-6.88-25.546-11.352-51.667-1.619-9.384-2.915-18.819c-.242-1.741.214 1.658-.071-.527-.068-.522-.137-1.044-.2-1.567q-.221-1.713-.427-3.427c-.616-5.105-1.163-10.219-1.717-15.331-6.462-59.642-10.6-119.5-11.87-179.482q-.421-19.964-.487-39.933c-.035-8.714-13.58-8.732-13.545 0z"/>
      <path d="M437.12 1021.493c-3.006 17.466-5.942 34.972-9.782 52.279a373.8 373.8 0 0 1-10.879 38.75c-2.978 8.809-6.178 17.542-9.423 26.256-1.239 3.326 1.379 7.568 4.73 8.331 3.842.875 7-1.169 8.331-4.73 5.331-14.315 10.574-28.689 14.815-43.372 3.919-13.568 6.854-27.38 9.465-41.252 2.046-10.867 3.929-21.764 5.8-32.661a7.333 7.333 0 0 0-.682-5.219 6.9 6.9 0 0 0-4.048-3.112c-3.286-.749-7.688 1-8.331 4.73z"/>
      <path d="M385.328 1468.5s7.087-60.586 42.535-70.917 68.845 25.513 68.845 25.513-11.177 49.553-38.885 58.25-72.495-12.846-72.495-12.846z" fill="#fff"/>
      <path d="m392.1 1468.5.041-.322c.124-1-.24 1.745-.19 1.407.026-.179.05-.359.075-.539.161-1.124.342-2.244.536-3.363q1.006-5.814 2.463-11.539a143.086 143.086 0 0 1 4.808-15.428c.5-1.34 1.043-2.666 1.587-3.991-1.045 2.544 0 .015.282-.618q.5-1.122 1.023-2.231a91.163 91.163 0 0 1 4.226-7.935q1.174-1.957 2.465-3.843.626-.912 1.279-1.8c.2-.278.413-.555.621-.831.782-1.04-1.185 1.5-.1.145a53.931 53.931 0 0 1 6.138-6.539q.805-.72 1.643-1.4c.446-.362 1.546-1.16-.375.272.338-.252.673-.509 1.016-.756a40.29 40.29 0 0 1 3.731-2.4q.941-.533 1.91-1.013c.658-.325 3.247-1.346.715-.373 1.443-.554 2.882-1.075 4.375-1.485q1.562-.429 3.149-.748.7-.14 1.395-.259c.63-.107 2.63-.228.284-.063 1.956-.137 3.882-.358 5.848-.36a51.7 51.7 0 0 1 6.068.356c.218.025.447.072.665.082-.015 0-1.87-.276-.808-.1.439.071.879.135 1.317.211q1.471.252 2.928.582a71.931 71.931 0 0 1 10.852 3.46c.968.386-.73-.312-.734-.313.2.069.393.168.586.251q.654.285 1.3.581 1.285.585 2.55 1.215 2.4 1.193 4.723 2.528a102.478 102.478 0 0 1 8.385 5.376q.854.606 1.7 1.228.459.339.914.682c.264.2 1.538 1.18.391.294-1.119-.865-.067-.049.164.133q.411.324.818.652.777.624 1.543 1.262 3.761 3.132 7.208 6.6c.105.105.208.214.31.324l-1.742-6.59a124.159 124.159 0 0 1-4.652 15.2q-.621 1.694-1.282 3.373-.334.848-.679 1.692l-.331.8c-.576 1.4.644-1.5.147-.347-1.071 2.478-2.2 4.93-3.426 7.336a99.803 99.803 0 0 1-4.052 7.226q-1.155 1.861-2.4 3.662-.546.785-1.113 1.554c-.216.293-.435.582-.653.873-.514.685 1.153-1.467.225-.3a55.116 55.116 0 0 1-5.609 6.113q-.721.67-1.472 1.31-.348.3-.7.586l-.406.327c-.775.629 1.272-.959.653-.5-1.073.791-2.159 1.554-3.3 2.241a35.272 35.272 0 0 1-3.5 1.83c-1.128.517 1.526-.607.564-.235-.317.122-.632.248-.951.364-.675.244-1.358.462-2.048.661a42.041 42.041 0 0 1-4.337 1q-.6.107-1.192.2a5.116 5.116 0 0 1-.6.088c-.028-.041 1.647-.2 1.044-.143-.818.08-1.632.182-2.452.246a69.333 69.333 0 0 1-9.839.025q-2.522-.162-5.031-.467c-.327-.039-1.7-.219-.4-.044 1.394.188-.294-.044-.563-.084q-1.3-.19-2.6-.413a148.09 148.09 0 0 1-18.981-4.649q-7.637-2.375-15.06-5.375-.694-.279-1.387-.565c-.4-.163-2.059-.861-.623-.255s-.041-.019-.4-.173-.709-.307-1.063-.462a138.381 138.381 0 0 1-2.953-1.341 7.263 7.263 0 0 0-5.219-.683 6.907 6.907 0 0 0-4.047 3.112c-1.6 3.028-.98 7.629 2.43 9.267a181.489 181.489 0 0 0 23.174 9.046 150.211 150.211 0 0 0 20.692 5.167c7.6 1.288 15.4 2.1 23.1 1.33 7.23-.727 14.256-2.516 20.38-6.569a59.187 59.187 0 0 0 14.824-14.689c7.068-9.6 11.955-20.846 15.757-32.088a141.55 141.55 0 0 0 2.966-9.884c.149-.575.3-1.152.428-1.733a7.257 7.257 0 0 0-1.8-6.695c-.19-.211-.4-.41-.6-.612a110.484 110.484 0 0 0-23.766-18.132c-14.241-8.1-30.634-12.638-46.978-9.418-13.626 2.685-24.3 11.605-32.072 22.762-6.75 9.686-11.274 20.988-14.571 32.271a146.172 146.172 0 0 0-4.516 20.6c-.131.931-.264 1.863-.374 2.8a6.758 6.758 0 0 0 1.984 4.789 6.774 6.774 0 0 0 9.578 0 7.861 7.861 0 0 0 1.969-4.797zm-253.128 33.911a125.321 125.321 0 0 1 9.585-15.841q1.173-1.687 2.393-3.342.618-.836 1.247-1.663.151-.2.3-.394c.569-.752-.66.848-.6.778.268-.322.517-.662.777-.99a116.678 116.678 0 0 1 5.937-6.935 91.842 91.842 0 0 1 6.852-6.676q.867-.757 1.756-1.49.417-.344.84-.681l.424-.336c.9-.718-1.435 1.088-.516.4a70.423 70.423 0 0 1 3.844-2.715q1.951-1.272 4.006-2.379.99-.53 2-1.015.534-.256 1.074-.5l.481-.212c.966-.428-1.69.686-.651.277a42 42 0 0 1 8.764-2.438c1.016-.163-2 .239-.506.074q.585-.066 1.173-.11 1.184-.088 2.37-.1 1.132-.006 2.265.067.538.035 1.075.086c.18.018.359.04.539.057 1.152.114-1.8-.272-.717-.1a57.31 57.31 0 0 1 10.78 2.794q.673.247 1.342.511c.493.193 2.2.96.007-.018.875.391 1.754.769 2.619 1.181q2.52 1.2 4.942 2.6a88.883 88.883 0 0 1 9.244 6.129 7.842 7.842 0 0 1 .625.475s-1.431-1.118-.627-.484c.328.258.656.514.981.774q1.091.873 2.159 1.773 2.1 1.768 4.116 3.636 3.726 3.446 7.176 7.174 3.1 3.333 5.988 6.853 1.311 1.593 2.578 3.221c.828 1.058-.868-1.135-.406-.527.167.22.335.438.5.657q.536.705 1.062 1.416c1.714 2.311 3.326 4.682 4.908 7.083.073.111.143.225.212.339l1.059-8.207a142.771 142.771 0 0 1-12 12.543q-2.893 2.729-5.912 5.32-1.675 1.437-3.394 2.824-.822.664-1.653 1.316c-.12.093-.241.186-.36.28-.623.49 1.28-.976.646-.5-.328.247-.651.5-.978.744a101.619 101.619 0 0 1-15.64 9.845q-.978.487-1.969.947-.495.228-.991.449c-.189.084-.379.166-.568.249-.832.37.7-.278.763-.319a20.966 20.966 0 0 1-4.3 1.61c-1.381.455-2.78.857-4.195 1.194q-1.011.24-2.032.435c-.338.065-.677.125-1.016.182-.194.032-.388.059-.581.092-.908.151.887-.128.929-.12a10.15 10.15 0 0 0-2.175.22q-1.085.078-2.171.092a36.948 36.948 0 0 1-4.374-.218c-.211-.022-.423-.053-.635-.072-.734-.067 1.176.124 1.008.138a5.932 5.932 0 0 1-1.266-.2q-1.188-.2-2.365-.467a51.742 51.742 0 0 1-4.527-1.234 65.686 65.686 0 0 1-4.6-1.691c-1.023-.412 1.641.725.255.1-.35-.158-.7-.312-1.052-.473q-1.127-.516-2.234-1.072a87.253 87.253 0 0 1-8.446-4.867q-1.989-1.293-3.916-2.675-.919-.657-1.826-1.334-.45-.336-.9-.675c-1.349-1.027 1.068.844-.014-.01q-3.533-2.788-6.891-5.786a167.413 167.413 0 0 1-15.433-16.014c-.076-.087-.146-.18-.218-.271a6.771 6.771 0 0 0-4.789-1.983 6.9 6.9 0 0 0-4.789 1.983 6.814 6.814 0 0 0-1.983 4.789 7.877 7.877 0 0 0 1.983 4.789 129.817 129.817 0 0 0 13.134 13.977c9.964 9.346 21.112 17.535 33.819 22.7a52.259 52.259 0 0 0 20.06 4.1 51.623 51.623 0 0 0 18.86-4.071c12.286-5.053 23.1-12.856 32.962-21.675a151.036 151.036 0 0 0 15.141-15.363l.22-.262c1.91-2.3 2.728-5.483 1.059-8.207a138.313 138.313 0 0 0-14.07-18.578c-9.793-11.178-21.519-21.549-35.117-27.8-7.48-3.44-15.691-6.094-24.012-6.022a46.241 46.241 0 0 0-20.825 5.558c-12.17 6.317-21.781 16.819-29.877 27.666a132.051 132.051 0 0 0-12.244 19.433c-.056.112-.114.222-.169.334-1.566 3.172-.958 7.476 2.43 9.266 3.051 1.626 7.589.971 9.261-2.418z"/>
      <path d="M206.162 1499.128c.64 2.088 1.191 4.2 1.63 6.339q.33 1.6.581 3.223l.07.462q.162 1.131-.05-.41a5.858 5.858 0 0 1 .186 1.626 68.294 68.294 0 0 1 .08 12.844c-.307 3.539 3.334 6.927 6.773 6.773 3.931-.177 6.443-2.982 6.772-6.773a73.426 73.426 0 0 0-2.981-27.685c-1.037-3.383-4.781-5.879-8.331-4.73-3.41 1.1-5.842 4.7-4.73 8.331zm245.626-52.476a43.485 43.485 0 0 1 2.864 4.484q.594 1.074 1.127 2.183c.178.369.342.744.516 1.114.573 1.219-.592-1.493.031.082a43.792 43.792 0 0 1 2.631 10.08l-.241-1.8q.288 2.236.359 4.488c.109 3.538 3.037 6.94 6.772 6.773 3.576-.16 6.89-2.979 6.773-6.773a49.634 49.634 0 0 0-9.136-27.466 7.344 7.344 0 0 0-4.048-3.113 6.924 6.924 0 0 0-5.218.683c-2.836 1.828-4.654 6.2-2.43 9.266zm-143.105 87.504c2.279 8.391 7.157 16.319 14.641 20.991a24.4 24.4 0 0 0 24.169.773 20.28 20.28 0 0 0 9.437-10.986 6.818 6.818 0 0 0-.682-5.218 6.9 6.9 0 0 0-4.048-3.113c-3.871-.881-6.968 1.182-8.331 4.731-.4 1.032.729-1.413.185-.461-.154.269-.287.551-.446.818-.185.309-.411.593-.6.9-.338.563.577-.883.589-.762.009.084-.34.4-.4.464-.416.457-.874.86-1.332 1.273-.77.693 1.474-.989.258-.223-.307.193-.607.4-.922.579q-.406.235-.827.445c-.138.07-.291.126-.424.2-.625.365 1.023-.482.9-.367a6.007 6.007 0 0 1-2.107.7c-.4.105-1.5.543-1.879.388-.144-.058 1.723-.162 1-.141-.159 0-.321.033-.48.045q-.641.051-1.284.055c-.644 0-1.281-.047-1.923-.092-1.127-.081 1.633.312.533.062-.364-.083-.731-.146-1.093-.237a6.108 6.108 0 0 1-1.969-.637c-.082-.064 1.426.657.768.318-.163-.084-.334-.154-.5-.236a22.239 22.239 0 0 1-1.133-.6c-.439-.253-1.8-.821-1.985-1.3-.03-.077 1.186.965.648.5-.138-.12-.283-.231-.422-.349q-.489-.416-.953-.857-.867-.823-1.649-1.73c-.241-.278-.458-.584-.708-.853-.052-.056.9 1.227.5.634-.14-.2-.292-.4-.434-.6a30.727 30.727 0 0 1-2.692-4.7c-.079-.17-.151-.344-.232-.513-.364-.765.541 1.374.245.58-.153-.41-.32-.814-.468-1.226a37.408 37.408 0 0 1-.889-2.849c-.928-3.418-4.859-5.854-8.331-4.73a6.9 6.9 0 0 0-4.73 8.331z"/>
      <path d="M329.077 1557.87a235.121 235.121 0 0 1-25.174 25.4q-3.3 2.859-6.71 5.594a36.451 36.451 0 0 0-3.178 2.508c1.265-1.28.409-.317.019-.02l-.678.516q-1.02.773-2.047 1.533-7.19 5.328-14.774 10.1-8.478 5.331-17.391 9.922a6.824 6.824 0 0 0-2.43 9.267 6.93 6.93 0 0 0 9.266 2.429 241.7 241.7 0 0 0 58.916-42.832q7.2-7.118 13.759-14.839a7.228 7.228 0 0 0 1.984-4.789 6.893 6.893 0 0 0-1.984-4.789c-2.524-2.317-7.126-2.881-9.578 0z"/>
      <path d="M330.175 1559.238c-.6 5.035 2.15 9.749 5.191 13.491 3.263 4.016 7.634 7.192 11.927 10.014 10.658 7.006 22.661 12.082 34.56 16.552 6.18 2.322 12.447 4.424 18.8 6.242a6.775 6.775 0 0 0 3.6-13.062 242.625 242.625 0 0 1-15.9-5.174q-4.315-1.563-8.576-3.279-.977-.393-1.95-.8a9 9 0 0 1-1.136-.473c0-.019 1.405.6.808.341l-.647-.275q-2.094-.9-4.171-1.835a147.706 147.706 0 0 1-15.707-8.146c-2.23-1.353-4.413-2.788-6.5-4.353-.11-.083-.219-.169-.33-.25-.548-.4.953.771.828.642a6.58 6.58 0 0 0-.633-.5q-.714-.575-1.407-1.174a37.787 37.787 0 0 1-2.409-2.275 29.44 29.44 0 0 1-1.08-1.183c-.191-.222-.368-.458-.562-.677-.412-.464.836 1.137.728.949-.069-.12-.173-.225-.252-.339a18.311 18.311 0 0 1-1.544-2.53c-.146-.3-.513-1.168.04.136.566 1.335.163.37.057.055-.128-.386-.221-.776-.315-1.17-.285-1.2.107 1.15.112.969s-.035-.389-.042-.58a8.537 8.537 0 0 1 .06-1.318 6.745 6.745 0 0 0-1.983-4.788 6.772 6.772 0 0 0-9.578 0 7.868 7.868 0 0 0-1.984 4.788zm-217.596 33.528c5.537 16.849 11.6 33.536 17.751 50.17q22.545 61 48.578 120.644c21.4 48.928 44.63 97.16 71.155 143.532 27.714 48.451 60.161 93.711 95.482 136.891a1332.059 1332.059 0 0 0 113.564 122.891c15.7 14.906 31.841 29.431 48.872 42.815 11.491 9.03 23.5 18.416 36.89 24.494 8.9 4.037 20.865 6.923 28.558-1.254 8.7-9.249 2.213-24.356-2.186-33.991-7.733-16.938-18.325-32.635-28.689-48.039-13.944-20.724-28.5-41.03-42.853-61.472-15.605-22.227-31.077-44.567-45.594-67.526-13.744-21.736-26.35-44.2-38.905-66.636-13-23.23-25.64-46.688-37.127-70.708-10-20.908-19.284-42.185-25.617-64.555-1.326-4.683-2.5-9.41-3.459-14.183a166.867 166.867 0 0 1-1.124-6.361c-.027-.172-.315-2.234-.107-.668-.054-.4-.107-.811-.153-1.217a126.647 126.647 0 0 1-.368-3.582 77.681 77.681 0 0 1-.176-11.667c.057-.857.143-1.711.226-2.566.187-1.945-.181.669.17-1.166.329-1.72.672-3.423 1.17-5.105q.324-1.1.714-2.173c.154-.422.324-.837.484-1.257-.622 1.631-.269.591-.062.194a43.173 43.173 0 0 1 2.213-3.979c.236-.356.5-.7.733-1.054.785-1.214-.769.9-.147.188.47-.535.919-1.083 1.412-1.6q.816-.853 1.7-1.635c.215-.19.451-.366.659-.562.95-.893-1.23.772.19-.139a43.756 43.756 0 0 1 4.069-2.437c.279-.139.564-.268.844-.406 1.461-.721-1.419.482.139-.072.935-.333 1.856-.694 2.805-.988a44.8 44.8 0 0 1 5.143-1.25c.49-.09 3.164-.449 1.572-.265a66.385 66.385 0 0 1 3.591-.32c20.56-1.258 39.979 4.828 57.235 15.967 18.715 12.08 34.393 29.761 47.627 48.105 16.077 22.285 29.558 46.367 42.342 70.649 13.963 26.52 27.052 53.486 40.674 80.18 23.334 45.726 48.868 90.4 76.5 133.665 13.135 20.565 26.779 40.84 41.439 60.354 11.775 15.673 24.07 31.31 38.409 44.747 8.652 8.108 19.788 17.909 32.331 18.38 11.114.418 14.282-10.251 13.349-19.414-1.423-13.984-6.38-27.589-11.164-40.708-7.329-20.1-15.655-39.834-24.031-59.515-20.954-49.229-42.9-98.038-62.848-147.691-21.069-52.442-39.11-106.105-56.4-159.9-8.534-26.555-16.878-53.227-23.831-80.248-.935-3.635-1.758-7.3-2.727-10.928-2.248-8.413-15.318-4.844-13.061 3.6 3.633 13.6 7.039 27.23 11 40.748 12.9 44.082 27.551 87.658 42.551 131.061 18.345 53.078 39.55 104.915 61.781 156.47 18.582 43.093 38.189 85.412 54.289 129.4 2.7 7.364 5.265 14.786 7.434 22.324.876 3.044 1.687 6.11 2.365 9.2.292 1.337.561 2.679.791 4.028.1.591.176 1.187.281 1.777.087.491 0 1.2-.1-.778.02.383.1.766.131 1.149.169 1.994.091 3.917.105 5.905.008 1.239.516-1.963.048-.435-.1.325-.172.691-.241 1.024s-.59 1.609-.008.2c.57-1.384.082-.16-.14.145-.867 1.193 1.012-1.171.467-.574-.842.922.062 0 .6-.376-1.723 1.19 1.568-.33-.065.065-1.228.3 2.016.028.752-.092-.425-.041-.9.01-1.326.011-1.259 0-1.094-.243.144.085-.561-.149-1.157-.2-1.724-.34-1.034-.252-2.017-.617-3.021-.965-1.629-.564 1.253.661-.28-.128-.649-.334-1.314-.636-1.959-.981a59.232 59.232 0 0 1-7.319-4.716q-.554-.411-1.1-.831c.145.111 1.19.942.256.19-.63-.508-1.263-1.013-1.886-1.531q-2.178-1.811-4.27-3.724c-2.961-2.695-5.81-5.511-8.584-8.4-14.2-14.772-26.2-30.523-38-46.926-29.817-41.429-56.358-85.3-81.248-129.826-26.963-48.239-49.95-98.519-76.421-147.007-12.878-23.589-26.754-46.726-43.419-67.862-14.085-17.864-30.7-34.48-50.776-45.53-27.2-14.969-81.442-26.284-95.357 11.967-5.693 15.646-2.463 34.036 1.449 49.681 5.575 22.293 14.608 43.724 24.2 64.545 10.942 23.749 23.166 46.895 35.8 69.782 12.384 22.437 24.892 44.893 38.28 66.749 27.349 44.645 58.766 86.59 88.361 129.732 11.29 16.459 22.68 33.1 31.878 50.844q1.25 2.413 2.422 4.865.55 1.155 1.077 2.32c.241.532 1.38 3.281.669 1.5a69.529 69.529 0 0 1 2.892 8.4c.3 1.151.469 2.316.724 3.474.178.8-.063-1.84-.02.111.013.6.067 1.184.055 1.78 0 .188.046 1.323-.084 1.38.1-.043.531-2.09-.017-.272a5.818 5.818 0 0 0-.353 1.167c-.021.5.884-1.745.036-.251-.675 1.189-.048.194.268-.262-.23.333-.695.552-.892.886.408-.692 1.4-1.077.21-.239-1.131.8-.781 0 .136.029a11.118 11.118 0 0 0-2.749.732c-.681.342 1.894-.1.7-.092-.276 0-.553.064-.831.072-.485.013-.968.029-1.454.033a5.271 5.271 0 0 0-1.114-.084c.583-.164 1.81.365.365.019-.927-.221-1.848-.422-2.761-.7-1.042-.321-2.045-.734-3.071-1.1-1.3-.459 1.532.726-.271-.116-.6-.282-1.214-.551-1.815-.839a129.23 129.23 0 0 1-16.331-9.671 270.364 270.364 0 0 1-9.656-6.866c-4.02-2.985-5.743-4.326-9.681-7.474-37.915-30.3-72.352-65.182-105.187-100.829-38.924-42.259-75.7-86.739-108.419-134-30.306-43.785-55.907-90.716-79.235-138.527-21.529-44.127-41.031-89.094-59.122-134.674-11.579-29.173-22.62-58.573-32.882-88.236-1.432-4.139-2.86-8.281-4.227-12.442-2.709-8.244-15.794-4.714-13.061 3.6z"/>
      <path d="M583.609 1709.4c-7.664-52.172-5.517-105.4 9.686-156.048 13.415-44.693 36.284-85.7 63.05-123.7 42.682-60.6 96.665-112.843 170.787-130.732 45.951-11.09 94.12-8.059 139.823 2.716 42.755 10.079 86.2 24.606 120.592 52.832 56.023 45.98 85.977 116.049 102.38 185 17.192 72.269 21.141 147.9 15.805 221.864-2.162 29.97-5.922 59.917-12.5 89.257-8.041 35.86-21.363 70.456-35.154 104.434-15.672 38.612-32.782 76.615-49.342 114.848-12.636 29.174-26.25 58.669-34.74 89.393-3.232 11.7-9.766 39.437 10.569 39.377 8.418-.025 16.271-5.474 22.662-10.374 10.78-8.264 20.233-18.171 29.218-28.316 27.3-30.819 50.982-64.972 73.319-99.484a1508.394 1508.394 0 0 0 79.292-138.291c23.938-47.28 44.162-95.954 63.771-145.143 18.195-45.641 36.11-91.417 51.89-137.96 34.248-101.013 56.417-205.411 61.054-312.145 2.067-47.576 1.047-95.422-1.138-142.985-1.8-39.136-5-78.218-10.572-117.007-10.4-72.351-30.058-143.79-65.312-208.172-37.716-68.879-92.338-126.35-155.824-172.1-38.9-28.036-80.8-51.757-124.076-72.333-50.623-24.07-103.212-43.806-158.2-55.19a540.281 540.281 0 0 0-275.3 14.371c-72.1 23.226-138.7 60.715-199.564 105.447-55.529 40.812-108.818 85.545-153.238 138.426-55.919 66.57-101.713 141.4-141.967 218.275a1840.926 1840.926 0 0 0-77.652 168.31c-3.414 8.509-6.807 17.037-9.955 25.649l9.949-4.047c-17.1-12.231-33.438-25.374-47.448-41.128-16.929-19.036-30.26-40.976-42.832-63.033-4.316-7.573-16.023-.756-11.7 6.836 13.151 23.074 27.245 45.867 44.95 65.775 14.769 16.606 32.168 30.357 50.189 43.245 3.841 2.747 8.586-.317 9.949-4.047 12.008-32.85 26.031-65.05 40.479-96.882 32.691-72.021 69.557-142.4 112.391-208.938 23.76-36.915 49.422-72.695 78-106.053 24.818-28.974 52.038-55.053 81.236-79.544 50.541-42.395 103.531-81.9 161.891-112.984 74.159-39.5 155.968-64.386 240.21-67.459 106.963-3.9 209.625 27.637 304.21 75.7 76.727 38.984 148.7 89.206 203.7 156.066 46.4 56.408 77.722 123.107 96.177 193.529 19.467 74.285 25.665 151.367 27.912 227.9 1.5 51.179 1.642 102.4-2.6 153.465a1028.415 1028.415 0 0 1-26.6 161.107c-23.61 95.758-60.494 187.235-96.971 278.633a1404.523 1404.523 0 0 1-148.226 276.178c-20.4 29.55-41.934 59.519-68.069 84.348-6.493 6.169-14.853 13.407-22.267 16.181a7.339 7.339 0 0 1-2.937.649c-1.814.318.739.047-.721-.129.972.117.574 1.29.128-.393.215.812-.139-1.173-.173-1.67-.6-8.8 2.517-17.995 5.21-26.653 4.418-14.2 9.884-28.081 15.489-41.849 14.781-36.307 31.06-71.993 46.568-107.991 15.93-36.976 31.655-74.2 44.148-112.507 9.393-28.8 15.527-58.207 19.527-88.207a782.971 782.971 0 0 0-1.022-212.747c-10.153-71.536-31.2-145.323-75.011-203.923-20.493-27.411-45.895-51.081-76.02-67.58-20.112-11.015-42.111-18.609-63.982-25.263a414.05 414.05 0 0 0-78.629-16.156c-42.237-4.286-85.625-.313-125.5 14.729-33.576 12.666-63.836 32.4-90.026 56.842-27.6 25.761-50.584 56.44-71.269 87.9-25.209 38.337-45.743 80.029-57.027 124.653-12.34 48.8-13 99.21-5.706 148.846 1.262 8.593 14.316 4.94 13.061-3.6z"/>
      <path d="M1197.316 1575.026c.785 26.507-2.2 53.443-5.578 79.668-8.934 69.455-26.439 137.915-49.739 203.887-25.784 73-59.171 143.794-101.336 208.814-15.193 23.428-31.555 46.24-50.122 67.13a268.466 268.466 0 0 1-22.158 22.455c-6.067 5.391-10.553 9.124-17.983 13.3a67.717 67.717 0 0 1-3.7 1.913c-.39.188-.79.358-1.186.535.119-.053 1.522-.59.457-.2-.748.276-1.486.569-2.246.813-1.049.336-2.109.565-3.176.826-1.893.463.336.046-.183.044-.563 0-1.161.036-1.721.073-2.655.176.554.162-.5.019-.962-.131-2.5-1.045-.16.1-.777-.381-1.987-1.561.038.215-1.177-1.032-.615-.613-.089.106-.731-1-.37-1.941-.092.157a10.258 10.258 0 0 0-.518-1.751c-.647-1.839-.059 1.656-.03-.237.011-.733-.055-1.467-.035-2.2.023-.823.123-1.637.177-2.457.111-1.691-.174.916-.037.206.089-.463.138-.933.226-1.4a88.407 88.407 0 0 1 1.392-6.2c3.1-11.74 7.805-23.078 12.468-34.263 1.368-3.281 2.33-5.54 4.147-9.758q2.528-5.864 5.1-11.708 5.683-12.955 11.438-25.881c19.454-43.934 38.386-88.1 55.029-133.194 20.526-55.608 37.756-112.5 49.915-170.537 13.644-65.13 20.984-131.771 19.535-198.354-1.566-71.97-13.478-143.77-36.589-211.993-6.094-17.987-12.986-35.681-20.494-53.122-1.446-3.36-6.384-4.115-9.266-2.43-3.473 2.032-3.882 5.893-2.43 9.266a682.707 682.707 0 0 1 53.161 216.539c5.264 67.522 1.089 135.6-10.436 202.282-10.508 60.808-26.888 120.5-47.139 178.754-16.512 47.5-35.7 93.985-55.941 140.006-13.412 30.5-28.523 60.794-39.043 92.463-2.781 8.372-5.86 17.875-4.379 26.79 1.346 8.108 8.112 12.611 16.112 12.068 14.4-.978 27.491-12.087 37.756-21.208 17.967-15.965 33.342-34.839 47.733-54.009 43.281-57.656 77.452-122.35 105.445-188.629 30.623-72.506 53.81-148.4 67.544-225.943 6.867-38.766 12.062-78.39 12.217-117.834.006-1.7.011-3.412-.039-5.117-.258-8.7-13.8-8.733-13.545 0zm217.727-656.6q27.335-49.5 54.066-99.333c35.723-66.32 71.015-132.89 105.024-200.109 15.525-30.685 30.822-61.5 45.273-92.71 13.548-29.256 26.476-58.788 40.189-87.972 34.928-74.337 71.666-147.931 111.475-219.784 18.234-32.91 37.114-65.522 57.678-97.041 14.893-22.826 30.23-45.756 49.64-64.953 19.965-19.747 47.107-36.591 75-41.7a64.039 64.039 0 0 1 17.575-.761 38.912 38.912 0 0 1 13.36 4.3 26.868 26.868 0 0 1 9.386 9.193 42.614 42.614 0 0 1 5.773 17.029c2.623 18.241-1.873 37.894-7.076 55.466a388.97 388.97 0 0 1-20.134 53.093c-15.781 34.027-36.129 65.637-57.937 96.071-25.418 35.47-52.52 69.7-78.66 104.636-32.522 43.463-63.145 88.112-92.992 133.441Q1654.1 621.823 1565.8 756.539c-45.271 68.895-91.388 137.339-132.84 208.639-2.132 3.667-4.263 7.336-6.329 11.041-4.25 7.62 7.445 14.458 11.7 6.836 32.074-57.506 68.686-112.583 104.871-167.532q85.9-130.445 171.5-261.085c31.192-47.454 61.835-95.341 94.674-141.682 28.125-39.69 57.85-78.173 87.209-116.947 46.961-62.022 93.931-127.914 112.293-204.879 6.507-27.278 10.873-68.17-18.268-84.577-24.605-13.853-56.57-2.49-79.346 9.724-24.757 13.276-45.021 31.575-62.272 53.523-20.543 26.137-38.41 54.337-55.514 82.8-42.833 71.289-80.9 145.5-117.374 220.2q-24.8 50.783-48.248 102.208c-13.04 28.684-25.913 57.4-39.731 85.722-33.674 69.03-69.433 137.05-105.567 204.816q-37.269 69.894-75.4 139.327-1.9 3.459-3.808 6.916c-4.217 7.636 7.477 14.477 11.7 6.836zM168.8 1221.708l7.826 28.174c.948 3.412 4.845 5.859 8.331 4.731a6.893 6.893 0 0 0 4.73-8.331l-7.826-28.174c-.948-3.412-4.845-5.859-8.331-4.73a6.892 6.892 0 0 0-4.73 8.33zm40.152-17.138a154.467 154.467 0 0 0 14.588 46.269q3.015 6.084 6.579 11.871c1.854 3.017 6.146 4.442 9.267 2.429a6.884 6.884 0 0 0 2.429-9.266q-3.087-5.025-5.779-10.279-1.317-2.577-2.531-5.2-.559-1.212-1.1-2.435c-.21-.475-.415-.952-.621-1.429-.076-.176-.385-.9-.006-.01.4.938-.009-.029-.087-.218a148.653 148.653 0 0 1-7.179-22.216q-1.547-6.5-2.5-13.113a6.755 6.755 0 0 0-3.113-4.047 6.772 6.772 0 0 0-9.266 2.429 7.918 7.918 0 0 0-.682 5.219zm45.067-9.67a499.691 499.691 0 0 1 13.453 58.1 6.8 6.8 0 0 0 3.112 4.047 6.913 6.913 0 0 0 5.219.683c3.781-1.224 5.366-4.578 4.73-8.331a499.691 499.691 0 0 0-13.453-58.108c-1-3.4-4.805-5.871-8.331-4.73a6.883 6.883 0 0 0-4.73 8.331zm44.488-7.967q2.906 4.99 5.377 10.215.568 1.2 1.111 2.422c.182.4.36.812.538 1.219.117.27.224.55.351.816-.152-.317-.506-1.217-.167-.39a143.871 143.871 0 0 1 2.094 5.381 132.1 132.1 0 0 1 5.93 22.062q.291 1.64.541 3.286c.078.513.148 1.026.224 1.538.114.771-.1-.734-.093-.7.029.3.076.588.112.881.273 2.2.485 4.415.649 6.63.259 3.525 2.929 6.945 6.772 6.773 3.447-.155 7.051-2.989 6.773-6.773a141.649 141.649 0 0 0-12.3-48.167 132.356 132.356 0 0 0-6.219-12.026c-1.783-3.062-6.195-4.41-9.266-2.43a6.9 6.9 0 0 0-2.429 9.266zm40.393-7.617 11.9 23.787c1.589 3.174 6.329 4.322 9.266 2.429a6.938 6.938 0 0 0 2.429-9.266l-11.9-23.787c-1.589-3.175-6.33-4.323-9.267-2.429a6.939 6.939 0 0 0-2.429 9.266zm-45.528-276.625a99.727 99.727 0 0 0-21.361 44.616 7.257 7.257 0 0 0 .683 5.218 6.9 6.9 0 0 0 4.047 3.113c3.343.761 7.618-1.01 8.331-4.73a92.87 92.87 0 0 1 2.823-11.054q.876-2.716 1.922-5.374c.18-.459.368-.916.552-1.373.566-1.409-.64 1.447-.025.059.4-.9.8-1.8 1.219-2.7a92.417 92.417 0 0 1 5.49-10q1.468-2.323 3.075-4.555.432-.6.874-1.194c.262-.352 1.337-1.675.093-.144.622-.765 1.226-1.546 1.855-2.306a7.281 7.281 0 0 0 1.984-4.789 6.893 6.893 0 0 0-1.984-4.789c-2.494-2.29-7.165-2.914-9.578 0zm32.863 4.017A96.764 96.764 0 0 0 314 944.416a6.758 6.758 0 0 0 1.983 4.788 6.772 6.772 0 0 0 9.578 0 7.823 7.823 0 0 0 1.984-4.788c.042-.368.089-.734.13-1.1.1-.873-.223 1.526-.038.262.108-.731.218-1.462.341-2.191q.368-2.187.848-4.353a87.869 87.869 0 0 1 2.349-8.549q.695-2.106 1.5-4.175c.266-.687.581-1.363.826-2.058-.116.33-.523 1.213-.162.394l.448-1.014a89.131 89.131 0 0 1 4.149-8.085c1.774-3.069.815-7.552-2.429-9.266a6.894 6.894 0 0 0-9.266 2.429zm32.018 15.583-2.7 17.284a7.39 7.39 0 0 0 .682 5.218 6.771 6.771 0 0 0 9.266 2.43 6.555 6.555 0 0 0 3.113-4.047l2.7-17.285a7.4 7.4 0 0 0-.682-5.218 6.772 6.772 0 0 0-9.267-2.43 6.552 6.552 0 0 0-3.112 4.048zm35.7 3.356V946c0 3.543 3.115 6.936 6.773 6.773A6.891 6.891 0 0 0 407.5 946v-20.353c0-3.542-3.115-6.936-6.772-6.772a6.89 6.89 0 0 0-6.773 6.772zm100.398-217.153a113.712 113.712 0 0 0-37.189 30.94 7.408 7.408 0 0 0-1.983 4.789 6.9 6.9 0 0 0 1.983 4.789 6.818 6.818 0 0 0 4.789 1.988c1.662-.074 3.718-.6 4.789-1.983a109.022 109.022 0 0 1 16.122-16.755q1.046-.876 2.113-1.726c.338-.269 1.953-1.431.284-.232.341-.244.67-.508 1-.759q2.355-1.758 4.8-3.386a109.246 109.246 0 0 1 10.121-5.964 6.825 6.825 0 0 0 2.43-9.266 6.928 6.928 0 0 0-9.266-2.43zm40.727 21.169a75.878 75.878 0 0 0-38.472 29.776 6.822 6.822 0 0 0 2.43 9.267 6.931 6.931 0 0 0 9.266-2.43 72.65 72.65 0 0 1 1.573-2.281c.271-.374.55-.742.823-1.114q.462-.612-.458.585c.162-.208.325-.416.49-.622q1.6-2.012 3.357-3.9 1.887-2.028 3.936-3.9 1.023-.934 2.083-1.827c.3-.254.608-.507.915-.756.169-.137 1.532-1.187.556-.454s.4-.3.577-.426q.477-.352.961-.7 1.13-.8 2.29-1.561 2.236-1.459 4.584-2.741t4.786-2.372c.24-.107.482-.214.724-.318l-.889.372c.5-.175.977-.4 1.467-.593a72.284 72.284 0 0 1 2.6-.953c3.341-1.156 5.907-4.7 4.731-8.331-1.071-3.308-4.747-5.971-8.331-4.73zm15.422 46.645c1.071-.838-1.175.892.2-.152q.614-.466 1.231-.927 1.06-.788 2.136-1.555 2.239-1.6 4.542-3.107 4.7-3.075 9.633-5.761 4.836-2.63 9.87-4.867.6-.269 1.21-.531c.269-.117.539-.232.809-.347q-1.312.55-.6.256c.883-.36 1.765-.724 2.654-1.071q2.665-1.044 5.372-1.974c3.341-1.155 5.907-4.7 4.73-8.331-1.071-3.309-4.746-5.97-8.331-4.731a148.247 148.247 0 0 0-43.028 23.52 6.761 6.761 0 0 0-1.984 4.789 6.893 6.893 0 0 0 1.984 4.789 6.818 6.818 0 0 0 4.789 1.984 7.93 7.93 0 0 0 4.789-1.984zM587.222 796a118.527 118.527 0 0 0 23.531-10.074 6.774 6.774 0 0 0-6.837-11.7 111.9 111.9 0 0 1-11.256 5.538l1.618-.683a112.29 112.29 0 0 1-10.657 3.854c-3.384 1.033-5.878 4.783-4.73 8.331 1.1 3.413 4.7 5.838 8.331 4.73zm22.15 40.387q5.712-2.845 11.529-5.472 2.8-1.263 5.626-2.471c.383-.164 1.771-.776.122-.056.433-.189.872-.366 1.308-.548q1.529-.635 3.062-1.254 11.616-4.692 23.569-8.473c3.372-1.068 5.887-4.757 4.73-8.331-1.094-3.382-4.714-5.876-8.331-4.73a337.47 337.47 0 0 0-48.451 19.639c-3.178 1.583-4.321 6.334-2.43 9.266a6.941 6.941 0 0 0 9.266 2.43zm21.565 26.593a187.405 187.405 0 0 1 18.413-5.2q4.549-1.033 9.148-1.837 2.356-.411 4.724-.763.591-.087 1.184-.171c.232-.033 1.627-.208.522-.074s.291-.036.523-.065q.713-.09 1.425-.173a7.4 7.4 0 0 0 4.789-1.984 6.772 6.772 0 0 0 0-9.578 6.521 6.521 0 0 0-4.789-1.983 195.7 195.7 0 0 0-39.54 8.764c-3.35 1.131-5.9 4.713-4.73 8.331 1.077 3.329 4.737 5.943 8.331 4.73zm20.244 46.229 21.906-1.655a7.22 7.22 0 0 0 4.789-1.984 6.883 6.883 0 0 0 1.983-4.789c-.154-3.44-2.989-7.058-6.772-6.772l-21.906 1.655a7.219 7.219 0 0 0-4.789 1.983 6.884 6.884 0 0 0-1.984 4.789c.154 3.441 2.989 7.058 6.773 6.773zm79.807-301.832q14.238-4.146 28.789-7.086 7.327-1.475 14.714-2.634 1.787-.28 3.576-.543l1.671-.24c.519-.073 2.754-.356.827-.119 2.393-.294 4.782-.614 7.179-.883q8.386-.943 16.812-1.478c3.528-.227 6.943-2.953 6.772-6.773-.156-3.475-2.986-7.015-6.772-6.772a359.892 359.892 0 0 0-60.624 9.077q-8.325 1.99-16.545 4.39c-3.4.99-5.868 4.815-4.73 8.331a6.886 6.886 0 0 0 8.331 4.73zm37.642 33.248a121.187 121.187 0 0 1 18.329-5.2q2.309-.46 4.635-.83c.775-.123 1.552-.234 2.329-.347.925-.135-1.747.211-.167.026.39-.045.78-.1 1.169-.14 3.2-.368 6.409-.6 9.625-.714 3.537-.126 6.941-3.025 6.773-6.773-.16-3.561-2.98-6.907-6.773-6.772a127.107 127.107 0 0 0-39.521 7.689 7.289 7.289 0 0 0-4.048 3.112 6.917 6.917 0 0 0-.682 5.219c1.05 3.247 4.773 6.046 8.331 4.73zm29.803 31.42a108.166 108.166 0 0 1 15.291-3.412c.9-.135.007.021-.388.048.314-.021.63-.08.943-.118q.944-.114 1.889-.211 1.891-.193 3.789-.317c2.688-.175 5.381-.238 8.074-.206a6.773 6.773 0 0 0 0-13.545 110.707 110.707 0 0 0-33.2 4.7c-3.387 1.025-5.876 4.79-4.73 8.331 1.107 3.421 4.7 5.829 8.331 4.73zm.148 53.686a119.11 119.11 0 0 1 12.61-3.474q3.254-.7 6.543-1.226.795-.126 1.589-.241c.227-.033.458-.054.682-.1-.153.03-1.642.209-.434.06 1.063-.13 2.127-.256 3.193-.363a120.109 120.109 0 0 1 26.351.267l.684.084c1.552.19-1.117-.166-.207-.029.605.092 1.211.176 1.816.27q1.815.285 3.62.625 3.723.7 7.395 1.644c3.428.873 7.508-1.117 8.331-4.73a6.888 6.888 0 0 0-4.73-8.331 127.94 127.94 0 0 0-56.185-1.458 119.071 119.071 0 0 0-14.859 3.938c-3.353 1.122-5.9 4.719-4.73 8.331 1.08 3.337 4.734 5.934 8.331 4.73zm23.188 31.384h25.044c3.542 0 6.936-3.115 6.772-6.772a6.891 6.891 0 0 0-6.772-6.773h-25.044c-3.542 0-6.936 3.115-6.772 6.773a6.889 6.889 0 0 0 6.772 6.772zm6.261 28.174h21.913c3.543 0 6.936-3.115 6.773-6.772a6.891 6.891 0 0 0-6.773-6.773H828.03c-3.543 0-6.936 3.115-6.773 6.773a6.891 6.891 0 0 0 6.773 6.772zm226.701-144.167a283.2 283.2 0 0 1 28.2 9.17q3.516 1.353 6.994 2.8l.842.352c.7.291-.573-.242-.566-.239.554.251 1.12.477 1.679.718q1.78.769 3.551 1.562 6.77 3.034 13.373 6.421 7.514 3.855 14.786 8.157c3.053 1.8 7.563.794 9.266-2.43a6.9 6.9 0 0 0-2.429-9.266 291.223 291.223 0 0 0-55.925-25.448q-8.012-2.67-16.174-4.855c-3.418-.918-7.515 1.148-8.331 4.73a6.9 6.9 0 0 0 4.73 8.331zm23.509 45.253a75.9 75.9 0 0 1 13.51 3.451c1.044.374 2.074.781 3.105 1.188q1.017.421-.391-.169.408.175.813.355.81.358 1.612.737a76.666 76.666 0 0 1 6.262 3.328 6.774 6.774 0 0 0 6.836-11.7 80.941 80.941 0 0 0-28.147-10.255 7.368 7.368 0 0 0-5.218.682 6.9 6.9 0 0 0-3.113 4.048c-.74 3.253.99 7.73 4.731 8.331zm-18.64 49.431 40.478 8.824c3.453.753 7.488-1.031 8.331-4.73.778-3.418-1.029-7.524-4.73-8.331l-40.478-8.825c-3.453-.752-7.489 1.032-8.331 4.731-.779 3.418 1.028 7.524 4.73 8.331zm-9.31 47.821q10.874-.1 21.724.747 5.36.426 10.694 1.089c.4.05.808.1 1.212.153 1.689.212-1.548-.219.137.017.888.124 1.775.249 2.661.381q2.779.414 5.548.893a7.331 7.331 0 0 0 5.218-.683 6.9 6.9 0 0 0 3.113-4.048c.748-3.285-1-7.689-4.73-8.331a254.944 254.944 0 0 0-45.577-3.763c-3.542.034-6.938 3.091-6.773 6.773a6.885 6.885 0 0 0 6.773 6.772zm1.231 33.038a67.26 67.26 0 0 0 22.247 3.034c3.537-.117 6.94-3.031 6.773-6.772-.16-3.569-2.98-6.9-6.773-6.773a62.529 62.529 0 0 1-10.343-.516l1.8.242a62.6 62.6 0 0 1-10.1-2.276 6.833 6.833 0 0 0-8.331 4.73 6.919 6.919 0 0 0 4.73 8.331zm219.235 94.354a37.031 37.031 0 0 1 7.377 4.418l-1.371-1.059a37.737 37.737 0 0 1 6.64 6.659l-1.059-1.37a37.408 37.408 0 0 1 3.078 4.738 6.838 6.838 0 0 0 9.267 2.43 6.914 6.914 0 0 0 2.429-9.266 42.69 42.69 0 0 0-19.525-18.246 7.355 7.355 0 0 0-5.218-.682 6.775 6.775 0 0 0-4.731 8.331 6.584 6.584 0 0 0 3.113 4.047zm7.837-40.678q4.817 2.976 9.393 6.318c.761.558 1.512 1.129 2.267 1.7q.6.461-.508-.395.343.267.686.537.514.4 1.024.812 2.21 1.769 4.347 3.626a142.985 142.985 0 0 1 15.841 16.152c2.282 2.727 7.252 2.533 9.577 0 2.663-2.9 2.435-6.669 0-9.578a148.524 148.524 0 0 0-35.791-30.864 6.841 6.841 0 0 0-9.266 2.43 6.911 6.911 0 0 0 2.43 9.266zm26.376-24.588a88.022 88.022 0 0 1 14.208 8.552c.228.169.454.341.682.51 1.172.873-.863-.688-.189-.15.554.443 1.112.881 1.66 1.332q1.563 1.286 3.064 2.642 3.162 2.856 6.029 6.011a6.822 6.822 0 0 0 9.578 0 6.923 6.923 0 0 0 0-9.578 93.065 93.065 0 0 0-28.2-21.014 7.259 7.259 0 0 0-5.219-.683 6.9 6.9 0 0 0-4.047 3.112c-1.6 3.029-.979 7.627 2.43 9.266zm-1.347-33.288 17.2 12.541a6.819 6.819 0 0 0 5.219.683 6.907 6.907 0 0 0 4.047-3.112 6.834 6.834 0 0 0 .683-5.219 7.785 7.785 0 0 0-3.113-4.047l-17.2-12.541a6.819 6.819 0 0 0-5.219-.683 6.776 6.776 0 0 0-4.73 8.331 7.785 7.785 0 0 0 3.113 4.047zm-140.676 589.054a56.785 56.785 0 0 1 2.054 2.407c.165.205.324.416.491.62-1.189-1.447-.48-.616-.222-.268q.471.636.922 1.286a54.465 54.465 0 0 1 3.394 5.571q.741 1.4 1.4 2.838c.109.24.215.481.324.722.378.838-.1-.306-.217-.527a13.854 13.854 0 0 1 .585 1.471 55.084 55.084 0 0 1 1.994 6.418 6.839 6.839 0 0 0 8.331 4.73 6.91 6.91 0 0 0 4.73-8.331 62.018 62.018 0 0 0-14.21-26.515 6.818 6.818 0 0 0-9.577 0 6.928 6.928 0 0 0 0 9.578zm12.983-42.637q1.113 1.353 2.2 2.728l.54.689q.666.856-.255-.331c.377.2.8 1.049 1.058 1.4q2.1 2.8 4.078 5.7 3.891 5.7 7.287 11.712t6.261 12.291q.728 1.593 1.42 3.2.174.4.345.805-.6-1.418-.175-.406c.22.541.444 1.08.662 1.622q1.307 3.252 2.469 6.559c1.177 3.332 4.68 5.912 8.331 4.73 3.29-1.065 5.994-4.755 4.73-8.331a168.338 168.338 0 0 0-20.88-40.823 186.021 186.021 0 0 0-8.491-11.123 6.8 6.8 0 0 0-4.789-1.984 6.893 6.893 0 0 0-4.789 1.984c-2.68 2.92-2.41 6.647 0 9.578zm29.958-19.304a38.989 38.989 0 0 1 5.6 5.356q.315.369.62.746c.343.422.594 1.148-.22-.3.308.549.775 1.053 1.132 1.576q1.093 1.605 2.027 3.312.466.851.891 1.725c.254.523 1.036 2.515.273.507.438 1.152.889 2.289 1.253 3.468a38.333 38.333 0 0 1 .96 3.759c.129.635.23 1.272.336 1.911.142.85-.175-1.659-.065-.453.036.387.079.773.113 1.16.3 3.52 2.9 6.946 6.772 6.772 3.409-.152 7.1-2.992 6.773-6.772-1.074-12.474-6.939-24.542-16.89-32.344a7.387 7.387 0 0 0-4.789-1.983 6.894 6.894 0 0 0-4.789 1.983c-2.236 2.436-2.978 7.244 0 9.578zm35.843-16.846c.672.683 1.3 1.4 1.914 2.131.868 1.021-.948-1.338-.185-.237.272.393.554.778.816 1.177a30.7 30.7 0 0 1 2.531 4.731l-.683-1.618a31.135 31.135 0 0 1 2.094 7.574l-.242-1.8a30.259 30.259 0 0 1 .213 5.716 6.813 6.813 0 0 0 6.772 6.772 6.927 6.927 0 0 0 6.773-6.772 36.493 36.493 0 0 0-10.425-27.252 6.773 6.773 0 0 0-9.578 9.578zm-18.857 226.162q.435 1.017-.148-.352.174.425.344.85.3.744.578 1.495.6 1.61 1.139 3.242 1 3.05 1.749 6.17t1.25 6.291q.072.452.138.906.159 1.125-.055-.439c.173.152.131 1.082.163 1.365a85.86 85.86 0 0 1 .319 3.651c.238 3.528 2.946 6.944 6.773 6.773 3.466-.156 7.027-2.987 6.772-6.773a90.9 90.9 0 0 0-7.326-30.016 6.766 6.766 0 0 0-4.048-3.112 6.918 6.918 0 0 0-5.219.683 6.832 6.832 0 0 0-3.112 4.047 7.938 7.938 0 0 0 .683 5.219zm24.2-28.507c.479 1.042.939 2.092 1.4 3.143q.3.7-.236-.562.176.423.35.848.347.849.681 1.7 1.171 2.988 2.188 6.035a126.451 126.451 0 0 1 3.492 12.59q.722 3.246 1.273 6.527c.177 1.055.334 2.114.492 3.172.222 1.491-.164-1.365 0 .018.073.607.15 1.214.219 1.821a127.381 127.381 0 0 1 .782 13.271c.026 3.542 3.1 6.937 6.772 6.772a6.886 6.886 0 0 0 6.773-6.772 135.143 135.143 0 0 0-12.49-55.4 6.806 6.806 0 0 0-4.047-3.112 6.918 6.918 0 0 0-5.219.683c-3.331 2.147-4.016 5.811-2.43 9.266zm33.811-4.415q1.161 2.19 2.213 4.433c.381.816.746 1.64 1.107 2.465.5 1.151-.385-.956-.07-.165.139.349.284.7.423 1.044a94.59 94.59 0 0 1 5.39 19.268c.137.81.211 1.644.38 2.448l-.121-.908c.04.3.077.6.114.894q.068.558.129 1.118c.188 1.717.325 3.438.421 5.163.2 3.531 2.974 6.942 6.773 6.772 3.5-.157 6.985-2.984 6.772-6.772a103.144 103.144 0 0 0-11.835-42.6 6.829 6.829 0 0 0-9.266-2.43 6.923 6.923 0 0 0-2.43 9.266zm26.079-6.318 2.815 12.592a6.774 6.774 0 0 0 12.379 1.617 7.336 7.336 0 0 0 .682-5.218l-2.815-12.592a6.774 6.774 0 0 0-12.379-1.618 7.339 7.339 0 0 0-.682 5.219z"/>
      <path d="M1552.184 688.968q-.675 1.9-1.408 3.784c-.273.7-.555 1.388-.839 2.08-.358.874.151-.086.16-.378a3.639 3.639 0 0 1-.446 1.029q-1.671 3.8-3.61 7.471a117.379 117.379 0 0 1-8.773 14.073 6.825 6.825 0 0 0-.683 5.218 6.914 6.914 0 0 0 3.113 4.048c3.512 1.855 7.039.642 9.266-2.43a123.413 123.413 0 0 0 16.281-31.294c1.185-3.344-1.34-7.559-4.73-8.331a6.943 6.943 0 0 0-8.331 4.73zm25.873-1.594-29.105 50.453c-1.771 3.07-.817 7.551 2.429 9.266a6.894 6.894 0 0 0 9.266-2.43l29.106-50.452c1.771-3.071.816-7.551-2.43-9.266a6.892 6.892 0 0 0-9.266 2.429zm77.179-206.384-19.24 45.2a7.441 7.441 0 0 0-.683 5.218 6.911 6.911 0 0 0 3.113 4.048 6.836 6.836 0 0 0 5.218.683c1.555-.5 3.377-1.537 4.048-3.113l19.239-45.2a7.435 7.435 0 0 0 .683-5.218 6.908 6.908 0 0 0-3.112-4.048 6.839 6.839 0 0 0-5.219-.682c-1.554.5-3.376 1.536-4.047 3.112zm16.401 21.566c-5.916 13.935-11.341 28.061-16.15 42.417a6.822 6.822 0 0 0 4.73 8.331 6.932 6.932 0 0 0 8.331-4.73q3.428-10.231 7.245-20.326 1.889-4.989 3.873-9.94.993-2.476 2.009-4.942.508-1.233 1.022-2.463c.186-.446.391-.891.563-1.342l-.306.724.378-.893a7.44 7.44 0 0 0 .683-5.218 6.774 6.774 0 0 0-8.331-4.73c-1.553.5-3.378 1.536-4.047 3.112zm15.719 17.583-11.376 28a6.788 6.788 0 0 0 .683 5.218 6.771 6.771 0 0 0 9.266 2.43 7.921 7.921 0 0 0 3.112-4.048l11.376-28a6.791 6.791 0 0 0-.683-5.219 6.773 6.773 0 0 0-9.266-2.43 7.921 7.921 0 0 0-3.112 4.048zm49.944-221.17-25.758 45.869c-1.735 3.09-.842 7.538 2.429 9.266a6.887 6.887 0 0 0 9.266-2.429l25.758-45.869c1.735-3.09.842-7.538-2.429-9.266a6.887 6.887 0 0 0-9.266 2.429zm33.564-2.723a389.256 389.256 0 0 0-28.206 51.606 7.347 7.347 0 0 0-.682 5.219 6.9 6.9 0 0 0 3.112 4.047c2.964 1.566 7.708 1.017 9.266-2.429a389.131 389.131 0 0 1 28.206-51.606 6.826 6.826 0 0 0-2.43-9.266 6.924 6.924 0 0 0-9.266 2.429zm20.236 21.839a196.883 196.883 0 0 0-17.323 31.247 7.384 7.384 0 0 0-.682 5.219 6.9 6.9 0 0 0 3.112 4.047c2.939 1.553 7.74 1.032 9.266-2.429a196.893 196.893 0 0 1 17.323-31.248c2-2.937.654-7.637-2.43-9.266a6.94 6.94 0 0 0-9.266 2.43zm10.77 26.478-12.524 17.216a6.823 6.823 0 0 0-.683 5.219 6.908 6.908 0 0 0 3.113 4.047 6.836 6.836 0 0 0 5.218.683 7.778 7.778 0 0 0 4.048-3.113l12.524-17.215a6.823 6.823 0 0 0 .683-5.219 6.909 6.909 0 0 0-3.113-4.047 6.832 6.832 0 0 0-5.218-.683 7.776 7.776 0 0 0-4.048 3.112zm57.522-243.899a160.779 160.779 0 0 0-26 39.7c-2 4.387-3.838 8.855-5.474 13.39-1.205 3.337 1.354 7.562 4.73 8.331a6.948 6.948 0 0 0 8.331-4.73q.951-2.636 1.991-5.237c.16-.4.323-.8.486-1.2.109-.265.229-.528.33-.8.012-.03-.563 1.317-.263.625.371-.857.739-1.714 1.121-2.567q2.291-5.112 4.948-10.051a154.479 154.479 0 0 1 12.14-19.069q.45-.6.906-1.2c.131-.172.263-.342.393-.514.539-.711-.823 1.047-.268.348.67-.844 1.334-1.692 2.015-2.527q2.042-2.507 4.189-4.923c2.347-2.652 2.807-7 0-9.578-2.569-2.358-7.07-2.833-9.578 0zm25.908 18.823a341.139 341.139 0 0 0-20.982 37.2c-1.541 3.183-.976 7.467 2.43 9.266 3.035 1.6 7.618.975 9.266-2.43a341.052 341.052 0 0 1 20.982-37.2 6.826 6.826 0 0 0-2.43-9.266 6.924 6.924 0 0 0-9.266 2.429zm18.115 19.959-22.126 42.154c-1.646 3.134-.9 7.5 2.429 9.266 3.124 1.65 7.508.92 9.267-2.43l22.126-42.149c1.646-3.134.9-7.5-2.43-9.266-3.123-1.65-7.507-.919-9.266 2.43zm25.66 7.901a239.318 239.318 0 0 1-7.91 25.13q-1.161 3.084-2.409 6.134c-.2.491-.4.98-.606 1.47-.142.343-.52 1.178.154-.36-.091.208-.177.418-.266.627q-.669 1.567-1.36 3.125-2.673 6.024-5.677 11.893-3.416 6.677-7.25 13.126a6.774 6.774 0 0 0 11.7 6.837 247.147 247.147 0 0 0 22.461-49.758q2.349-7.242 4.229-14.623c.876-3.428-1.119-7.509-4.731-8.331a6.889 6.889 0 0 0-8.331 4.73z"/>
      <g fill="#eab8c0">
        <path d="m666.742 1348.168 34.472-31.263a6.819 6.819 0 0 0 0-9.577 6.925 6.925 0 0 0-9.578 0l-34.472 31.262a6.82 6.82 0 0 0 0 9.578 6.925 6.925 0 0 0 9.578 0zm80.058-59.35 28.22-9.248c3.361-1.1 5.895-4.735 4.731-8.331-1.086-3.355-4.726-5.912-8.331-4.73l-28.221 9.248c-3.361 1.1-5.894 4.734-4.73 8.331 1.085 3.355 4.726 5.912 8.331 4.73zm85.766-23.782 26.522 3.745a7.456 7.456 0 0 0 5.218-.683 6.771 6.771 0 0 0 2.43-9.266c-.885-1.372-2.352-2.873-4.048-3.112l-26.522-3.745a7.456 7.456 0 0 0-5.218.683 6.773 6.773 0 0 0-2.43 9.266c.885 1.372 2.352 2.873 4.048 3.112zm-52.695-9.388q1.636-.8 3.3-1.534c.277-.121.562-.232.836-.361-1.579.745-.521.224-.147.072q.844-.341 1.7-.664 3.51-1.334 7.129-2.358 3.5-.992 7.084-1.685 1.9-.367 3.814-.65c.212-.031 1.279-.18.227-.036s.015 0 .228-.024a99.003 99.003 0 0 1 2.037-.22 7.3 7.3 0 0 0 4.789-1.984 6.882 6.882 0 0 0 1.984-4.789c-.151-3.371-3-7.144-6.773-6.772a96.427 96.427 0 0 0-33.043 9.309c-3.193 1.556-4.309 6.352-2.43 9.266a6.946 6.946 0 0 0 9.266 2.43zm156.159 11.702c2.533 0 5.022.378 7.54.453-.33-.01-1.406-.206-.479-.064.293.045.587.088.879.136q.988.159 1.97.352 1.854.361 3.684.84a60.469 60.469 0 0 1 6.969 2.279c.344.135.684.292 1.03.418-.332-.121-1.205-.527-.392-.156.539.246 1.08.488 1.615.745 1.2.577 2.383 1.2 3.547 1.85 3.091 1.733 7.537.844 9.266-2.43a6.887 6.887 0 0 0-2.43-9.266 68.1 68.1 0 0 0-33.2-8.7c-3.543 0-6.936 3.115-6.773 6.772a6.892 6.892 0 0 0 6.773 6.773zm-45.65-20.45 31.276 6.4c3.461.708 7.482-1 8.331-4.73.77-3.38-1.018-7.572-4.73-8.331l-31.276-6.4c-3.461-.709-7.482 1-8.331 4.73-.77 3.379 1.019 7.571 4.73 8.331zm108.267 6.488a99.348 99.348 0 0 1 12.644-.175q3.16.16 6.3.522.45.051.9.107.9.115 0 0 .447.063.894.131 1.565.239 3.12.526a99.174 99.174 0 0 1 12.266 3.083q3.012.966 5.959 2.123c.421.165.838.338 1.258.505 1.284.509-1.352-.591.257.107q1.556.673 3.086 1.4a7.276 7.276 0 0 0 5.218.682 6.905 6.905 0 0 0 4.048-3.112c1.591-3.011.989-7.649-2.43-9.266a106.492 106.492 0 0 0-53.515-10.179c-3.524.271-6.945 2.921-6.773 6.773.154 3.437 2.99 7.063 6.773 6.772zm34.198 37.212 14.209 5.97c1.5.63 3.887.1 5.219-.683a6.772 6.772 0 0 0 2.429-9.266l-1.059-1.371a6.772 6.772 0 0 0-2.988-1.742l-14.209-5.969c-1.5-.63-3.887-.1-5.219.683a6.773 6.773 0 0 0-2.43 9.266l1.059 1.371a6.768 6.768 0 0 0 2.989 1.741zm-403.883 96.516a179.654 179.654 0 0 0-24.057 33.014c-1.743 3.086-.836 7.541 2.43 9.267a6.89 6.89 0 0 0 9.266-2.43 171.841 171.841 0 0 1 10.453-16.3 196.332 196.332 0 0 1 2.829-3.792c.51-.668-.863 1.1-.092.124.279-.353.557-.708.837-1.061q.7-.88 1.415-1.753 3.139-3.838 6.5-7.487c2.4-2.61 2.775-7.031 0-9.578-2.608-2.394-7.019-2.788-9.577 0zm-35.045 65.556-7.181 20.573c-1.169 3.349 1.329 7.556 4.73 8.331a6.94 6.94 0 0 0 8.331-4.73l7.182-20.573c1.168-3.349-1.329-7.556-4.731-8.331a6.941 6.941 0 0 0-8.331 4.73zm492.117-135.364c1.549.4 3.082.854 4.595 1.377q1.038.359 2.064.757c.373.144.742.3 1.114.445.782.312-1.424-.634-.331-.135a65.09 65.09 0 0 1 8.27 4.442c1.291.83 2.49 1.793 3.769 2.633l-.736-.572q.315.246.627.5.468.373.929.759.844.7 1.662 1.439a59.314 59.314 0 0 1 6.456 6.813 6.787 6.787 0 0 0 4.789 1.983 6.9 6.9 0 0 0 4.789-1.983 6.815 6.815 0 0 0 1.984-4.789 7.775 7.775 0 0 0-1.984-4.789 65.892 65.892 0 0 0-34.4-21.937c-3.425-.885-7.51 1.125-8.331 4.73a6.891 6.891 0 0 0 4.731 8.331zm-174.879-92.765a69.007 69.007 0 0 1 2.215-.409c.432-.072.911-.1 1.336-.208-.644.16-1.283.16-.237.035q2.347-.281 4.713-.39a65.508 65.508 0 0 1 9.228.228q.56.054 1.12.117c.26.029 1.546.29.441.046s.187.031.439.07q.557.087 1.111.182 2.331.4 4.63.972a65.5 65.5 0 0 1 8.983 2.944 6.787 6.787 0 0 0 5.219-.682 6.772 6.772 0 0 0 2.429-9.266 7.935 7.935 0 0 0-4.047-3.113 72.041 72.041 0 0 0-41.181-3.587c-3.481.695-5.8 5.024-4.73 8.331a6.942 6.942 0 0 0 8.331 4.73zm-103.126-24.309a104.807 104.807 0 0 1 7.436-1.763q1.875-.37 3.763-.671c.622-.1 1.276-.141 1.89-.282-.389.089-1.286.161-.38.053.395-.047.79-.1 1.186-.141a103.292 103.292 0 0 1 15.5-.575 6.825 6.825 0 0 0 6.772-6.772 6.913 6.913 0 0 0-6.772-6.773 109.677 109.677 0 0 0-33 3.863c-3.415.939-5.857 4.852-4.731 8.331a6.894 6.894 0 0 0 8.331 4.73zm-111.25 55.849-6.43 7.685a6.965 6.965 0 0 0 0 9.577 6.813 6.813 0 0 0 4.789 1.984l1.8-.242a6.761 6.761 0 0 0 2.989-1.742l6.43-7.684a6.963 6.963 0 0 0 0-9.578 6.815 6.815 0 0 0-4.789-1.983l-1.8.242a6.779 6.779 0 0 0-2.989 1.741z"/>
      </g>
    </svg>
  </g>
  <g transform="matrix(0, -0.336025, 0.336897, 0, 4210.752016, 99.146432)">
    <svg width="824.344" height="1178.401" viewBox="0 0 824.344 1178.401">
      <path d="M14.977 170.681c-.141-.88-.273-1.76-.4-2.641-.134-.907-.155-1.249-.007-.015-.056-.469-.12-.936-.176-1.4q-.333-2.77-.545-5.553a101.208 101.208 0 0 1-.264-10.421q.072-2.538.292-5.071c.071-.805.161-1.607.249-2.409.127-1.145.143-.869-.026.144.081-.486.142-.977.221-1.464a69.368 69.368 0 0 1 2.273-9.677 76.991 76.991 0 0 1 1.674-4.709c.387-1 .383-.892-.041.067.151-.343.295-.689.452-1.029.394-.857.792-1.711 1.215-2.554a68.7 68.7 0 0 1 5.429-8.986 87.337 87.337 0 0 1 1.563-2.115c-1.169 1.545.553-.664 1.009-1.208q1.921-2.3 4.009-4.448a99.377 99.377 0 0 1 9.2-8.347c.2-.162 1.6-1.27.851-.682-.72.561.5-.379.7-.526q1.422-1.063 2.867-2.095 3.027-2.149 6.168-4.133c4.409-2.8 8.959-5.365 13.6-7.762a259.461 259.461 0 0 1 33.9-14.451c33.638-12 68.681-20.011 103.681-26.865 46.012-9.011 92.479-16 139.092-21.043 40.638-4.393 81.481-7.222 122.362-7.665 33.155-.36 66.4.8 99.348 4.672 12.848 1.509 26.174 3.572 39.458 6.316a320.941 320.941 0 0 1 34.136 8.888 227.688 227.688 0 0 1 14.765 5.337c.5.2 1.006.412 1.51.615a3.907 3.907 0 0 1 .609.252q1.692.727 3.373 1.481 3.128 1.413 6.2 2.952c3.878 1.951 7.676 4.065 11.346 6.385q2.512 1.59 4.937 3.312c.751.534 1.488 1.087 2.229 1.634.96.709-1.166-.951.114.087.372.3.751.6 1.123.9a75.583 75.583 0 0 1 7.828 7.321c1.114 1.21 2.157 2.473 3.193 3.749-1.281-1.578.079.122.528.755q.7.99 1.361 2.011 1.238 1.92 2.3 3.949a65.18 65.18 0 0 1 1.365 2.816c.248.54.489 1.083.728 1.628.038.088.418.994.119.275-.34-.818.262.661.322.815a75.249 75.249 0 0 1 4.115 14.515 12.309 12.309 0 0 0 .2 1.23c-.126-.9.083.7.108.959.134 1.321.243 2.642.3 3.969a59.967 59.967 0 0 1-.113 7.081c-.04.521-.09 1.041-.139 1.562-.058.618-.251 1.938-.044.533a63.048 63.048 0 0 1-.631 3.61 60.391 60.391 0 0 1-1.859 6.881c-.369 1.1-.786 2.186-1.2 3.274-.42 1.109.389-.792-.263.631-.266.581-.524 1.165-.8 1.741a70.316 70.316 0 0 1-3.775 6.874c-1.2 1.932-3.312 4.935-4.172 6.037.355-.455-.816 1-.981 1.206q-.585.711-1.185 1.41-1.427 1.663-2.93 3.258c-9.065 9.63-18.622 16.412-30.175 23.07a252.684 252.684 0 0 1-44.915 19.827c-30.531 10.395-62.138 16.015-93.72 22.064-23.163 4.436-46.312 8.937-69.507 13.2-27.213 5.007-54.481 9.722-81.836 13.893-28.833 4.4-56.962 8.087-86.235 10.9-28.463 2.737-57.046 4.55-85.648 4.652-13.359.048-26.724-.285-40.056-1.162q-9.579-.63-19.127-1.663a416.831 416.831 0 0 1-8.508-1.03c-1.819-.247-5.675-.82-8.267-1.242a258.569 258.569 0 0 1-33.109-7.489c-5.054-1.525-10.053-3.241-14.958-5.193-.519-.206-1.037-.417-1.554-.627q-.515-.21-1.027-.425c.069.029 1.056.451.344.143a166.038 166.038 0 0 1-3.507-1.555q-3.3-1.512-6.51-3.192a117.452 117.452 0 0 1-12.187-7.315q-1.344-.926-2.657-1.893l-1.2-.9c-.972-.729.035.024.193.15-.258-.205-.52-.405-.775-.614-1.7-1.4-3.387-2.809-5-4.306a87.064 87.064 0 0 1-8.945-9.669c1.082 1.358-.7-.946-1.078-1.481q-.966-1.353-1.873-2.747-1.755-2.7-3.278-5.532c-.986-1.839-1.875-3.721-2.727-5.626-.488-1.092.407 1.1-.16-.4-.2-.533-.42-1.059-.621-1.593q-.564-1.5-1.066-3.017a86.129 86.129 0 0 1-3.181-13.1c-.594-3.612-5.072-5.626-8.331-4.73-3.835 1.053-5.326 4.708-4.73 8.33a86.02 86.02 0 0 0 26.411 49.148c15.166 14.04 34.367 22.947 53.959 28.949 23.42 7.176 48.018 10.438 72.4 12.1 27.986 1.9 56.109 1.466 84.1-.121 29.876-1.694 59.665-4.755 89.337-8.594 29.37-3.8 58.64-8.336 87.826-13.354 25.961-4.464 51.853-9.309 77.723-14.268 24.162-4.631 48.483-8.776 72.528-13.968 35.927-7.758 72.718-18.661 104.1-38.335 20.465-12.83 39.842-30.725 46.694-54.65 5.487-19.159 1.743-41.513-9.2-58.158-8.915-13.554-22.725-23.25-37.016-30.468-20.108-10.156-42.058-16.458-64.046-21C577.056 5.414 546.74 2.381 516.505.955 478.537-.835 440.46.017 402.54 2.469c-45.877 2.967-91.588 8.343-137.021 15.322C222.11 24.459 178.7 32.25 136.247 43.618c-27.738 7.428-55.667 16.333-81.024 30.031-16.375 8.845-31.948 20.223-42.511 35.785C4.269 121.873.282 136.65.015 151.6a128.942 128.942 0 0 0 1.9 22.684C2.5 177.9 7 179.9 10.247 179.012c3.847-1.058 5.311-4.706 4.73-8.331z"/>
      <path d="M70.133 159.235c-.381-2.179.02 1.184-.082-.5-.033-.538-.094-1.075-.118-1.614a34.192 34.192 0 0 1 .074-3.478c.113-1.957-.2.713-.012-.054.147-.6.22-1.221.363-1.824.265-1.118.646-2.183 1.008-3.269.541-1.625-.718 1.385.051-.125.266-.523.508-1.056.786-1.573a31.965 31.965 0 0 1 1.989-3.213c.326-.464 1.643-1.991.162-.266.379-.441.733-.9 1.113-1.343a44.931 44.931 0 0 1 3.021-3.151q1.4-1.326 2.889-2.547c.381-.314 2.22-1.676.522-.437.671-.49 1.332-.992 2.012-1.471a89.4 89.4 0 0 1 8.373-5.19c3.224-1.776 6.536-3.389 9.9-4.887.816-.364 1.636-.718 2.457-1.071-1.512.649 1.259-.514 1.688-.687q3.06-1.233 6.158-2.366c18.989-6.963 38.785-11.691 58.568-15.766 25.612-5.275 51.476-9.292 77.374-12.867 61.9-8.544 124.227-15.256 186.6-19.151 27.807-1.736 55.683-2.839 83.548-2.514 12.034.141 24.07.556 36.076 1.421 10.7.772 20.4 1.786 30.1 3.4a178.508 178.508 0 0 1 25.758 6.027q2.5.812 4.968 1.733c.789.3 1.571.609 2.354.919.311.123 1.866.817.2.078.515.229 1.032.451 1.545.685a66 66 0 0 1 8.513 4.6q.963.623 1.9 1.287c.277.2.545.407.825.6 1.2.827-1.191-1.021-.1-.079 1.072.928 2.161 1.821 3.166 2.825q.657.656 1.279 1.346c.232.258 1.654 1.943.869.984s.527.746.725 1.04c.389.581.759 1.176 1.1 1.785.25.445.463.905.7 1.353.763 1.414-.411-1.54-.035-.054.132.522.337 1.025.464 1.551.04.17.068.346.114.514.435 1.584-.441-.408-.044-.522.025-.007.025 2.277.028 2.529.015 1.515.469-1.717.028-.3-.165.528-.252 1.081-.423 1.61-.067.206-.156.408-.214.615-.362 1.289.253-.7.28-.638.072.183-.526 1.07-.605 1.216-.506.932-1.131 1.766-1.719 2.644 1.334-1.991.213-.3-.2.17q-.583.665-1.2 1.292c-.883.9-1.816 1.744-2.781 2.551-.661.554-1.681 1.284-.35.314-.621.453-1.23.918-1.859 1.36a71.183 71.183 0 0 1-3.761 2.459c-2.854 1.746-5.811 3.32-8.818 4.785q-2.256 1.1-4.548 2.117c-.795.355-1.6.7-2.394 1.045-1.648.719 1.335-.53-.352.147-.59.237-1.176.484-1.765.721a248.824 248.824 0 0 1-11.618 4.332c-9.049 3.135-18.241 5.853-27.486 8.344-44.523 12-90.281 19.509-135.857 26.2-44.48 6.527-89.574 11.975-134.725 17.788-45.512 5.86-91.452 11.613-137.419 11.384-9.878-.05-19.764-.416-29.6-1.344q-3.1-.294-6.2-.666c-.606-.074-1.211-.152-1.817-.229-1.938-.245.883.128-.293-.041a213.94 213.94 0 0 1-3.815-.574c-3.9-.629-7.784-1.383-11.625-2.309A110.042 110.042 0 0 1 97 185.673q-1.269-.449-2.524-.935c-.374-.146-.744-.3-1.119-.444-1.545-.587 1.359.628-.133-.051-1.535-.7-3.068-1.39-4.564-2.172q-2.044-1.069-4-2.293-.992-.622-1.955-1.288c-.483-.334-2.6-2.008-.971-.669a57.613 57.613 0 0 1-6.257-6.1c-.274-.3-.722-1.025.34.457-.225-.314-.47-.613-.686-.934-.359-.532-.726-1.056-1.068-1.6-.754-1.2-1.374-2.458-2.014-3.723-.8-1.575.382 1.192-.217-.531-.215-.619-.445-1.23-.641-1.856a37.012 37.012 0 0 1-1.051-4.3c-.669-3.6-5.019-5.64-8.331-4.73-3.776 1.038-5.4 4.722-4.73 8.331 6.014 32.365 45.066 40.365 72.421 43.192 20.876 2.16 41.986 1.844 62.918.779 24.084-1.225 48.1-3.611 72.05-6.385 23.895-2.769 47.735-5.974 71.582-9.12 22.619-2.983 45.272-5.7 67.884-8.731 48.311-6.486 96.664-13.792 144.2-24.694 19.515-4.475 39.022-9.51 57.815-16.478 13.325-4.94 27.839-10.732 38.187-20.853 8.176-8 11.2-19.074 5.154-29.313-7.24-12.257-21.172-18.906-34.159-23.239-19.015-6.342-39.418-8.673-59.317-10.158-25.889-1.931-51.918-1.858-77.853-1.045-63.654 2-127.167 8.528-190.361 16.168-29.563 3.575-59.1 7.5-88.465 12.482-23.019 3.9-46.017 8.388-68.506 14.717-16.6 4.673-33.534 10.266-48.4 19.181-10.485 6.288-20.529 14.885-24.383 26.886a34.483 34.483 0 0 0-.768 16.612c.63 3.6 5.047 5.633 8.331 4.73 3.801-1.046 5.356-4.715 4.724-8.331zm-7.479 77.654c-11.446 17.437-20.578 36.662-28.446 55.921C20.713 325.845 11.735 361.786 15 397.664q3.923 43.164 7.979 86.316 6.7 72.177 13.457 144.348Q44.172 711 52 793.671q7.1 74.795 14.353 149.573c3.114 31.925 6.161 63.863 9.667 95.749.655 5.954.932 12.236 2.322 18.077 1.362 5.721 4.4 11.261 7.443 16.242 12.8 20.955 32.142 37.68 52.585 50.87 37.155 23.973 80.67 37.373 123.916 45.021 72.662 12.85 147.488 10.785 220.551 2.669 74.4-8.263 150.117-22.105 218.439-53.891 37.544-17.466 73.571-41.476 98.007-75.5 13.158-18.321 22.348-39.739 24.615-62.284a66.47 66.47 0 0 0 .179-13.482c-.157-1.512-.187-4.387-.124-.936-.01-.558-.129-1.132-.183-1.687-.255-2.631-.518-5.26-.769-7.891-2.621-27.454-5.127-54.92-7.671-82.382q-6.394-69.027-12.835-138.049-7.407-79.2-14.983-158.39-6.871-71.59-14.084-143.147c-3.182-31.2-6.251-62.438-10.256-93.545-1.56-12.123-3.6-23.443-7.51-35.155-11.638-34.855-31.59-66.754-53.528-96-10.836-14.444-22.193-28.714-34.659-41.8-6.024-6.325-15.592 3.263-9.578 9.578a441.923 441.923 0 0 1 35.511 43.06c21.3 28.953 41.147 60.726 51.3 95.474a126.911 126.911 0 0 1 3.748 16.382c.279 1.824.53 3.652.784 5.48.24 1.723-.2-1.536 0 0 .067.516.137 1.032.2 1.549q.241 1.848.474 3.7c1.66 13.158 3.114 26.342 4.545 39.526 4.449 40.981 8.513 82.005 12.538 123.03q7.564 77.1 14.806 154.224 7.086 75.01 14.04 150.032 5.284 56.894 10.552 113.787 1.493 16.048 3.006 32.094c.26 2.731.513 5.464.8 8.193.063.6.12 1.2.192 1.8.085.71.184 1.418.285 2.125.154 1.076-.089-2.284-.163-1.221-.295 4.25.311 8.578-.085 12.887-.073.794-.17 1.585-.25 2.378-.216 2.149.257-1.356-.179 1.323-.332 2.037-.681 4.067-1.111 6.086a113.577 113.577 0 0 1-3.9 13.833q-.624 1.779-1.3 3.539c-.259.672-.53 1.339-.795 2.009-.108.272-.223.542-.334.813-.515 1.263.608-1.374-.1.227-1.231 2.788-2.52 5.545-3.923 8.251a144.143 144.143 0 0 1-10.45 17.068 155.367 155.367 0 0 1-14.623 17.535 206.084 206.084 0 0 1-20.709 18.8c-42.339 33.662-96.819 52.994-149.178 66.106-41.675 10.436-84.237 17.088-126.934 21.6-40.432 4.273-81.145 6.513-121.807 5.507-55.306-1.369-111.576-8.476-163.423-28.649a258.208 258.208 0 0 1-48.282-24.727 170.407 170.407 0 0 1-16.712-12.375 167.461 167.461 0 0 1-13.644-12.738q-2.855-2.99-5.539-6.135-1.212-1.425-2.386-2.882c-.317-.395-.629-.793-.945-1.189-1.078-1.349.825 1.151-.513-.674a118.306 118.306 0 0 1-6.8-10.142 79.536 79.536 0 0 1-2.485-4.565c-.307-.613-.6-1.232-.893-1.851-.666-1.4-.688-1.679-.229-.46a35.472 35.472 0 0 1-1.769-5.508c-.152-.757-.226-1.528-.348-2.289.529 3.313-.154-1.286-.271-2.254-.5-4.151-.954-8.307-1.4-12.463-1.452-13.433-2.811-26.876-4.16-40.319q-6.447-64.236-12.522-128.509-7.7-80.437-15.257-160.89-7.41-78.735-14.745-157.478Q37 489.3 31.536 430.18q-1.509-16.329-3.008-32.658c-3.209-35.388 5.969-70.487 19.5-102.955 7.295-17.506 15.892-34.954 26.321-50.841 4.8-7.309-6.927-14.1-11.7-6.837z"/>
      <path d="M113.179 1087.585c-.1-.33-.157-.671-.236-1.006-.272-1.155.352-.941.031.43a8.408 8.408 0 0 0-.158-1.924 38.889 38.889 0 0 1 .14-4.9c.021-.281.285-2.061.031-.4.06-.394.115-.793.194-1.182.262-1.3.52-2.584.856-3.862 3.053-11.6 10.143-22.76 18.5-31.28a87.971 87.971 0 0 1 7.127-6.351c.315-.258 1.232-.951-.067.042q.575-.44 1.154-.873.992-.739 2-1.457 2.436-1.738 4.951-3.363a214.144 214.144 0 0 1 23.658-13.072c20.867-10.052 43.069-17.935 65.734-25.02 29.588-9.251 59.7-16.8 89.993-23.36 70.848-15.333 142.791-26.423 215.343-28.11 61.438-1.428 123.778 1.482 184.428 11.516 17.436 2.885 35.4 6.008 51.894 12.565-2.117-.842.089.046.57.268q2.088.962 4.09 2.1a38.405 38.405 0 0 1 7.466 5.424 32.036 32.036 0 0 1 5.09 6.006 42.084 42.084 0 0 1 3.228 6.18 45.968 45.968 0 0 1 2 7.117c.073.375.5 3.32.339 1.934q.2 1.773.292 3.555a55.53 55.53 0 0 1-.027 5.856q-.066 1.15-.178 2.3c-.04.416-.108.834-.136 1.25-.1 1.4.294-1.507.04-.3-.286 1.361-.436 2.744-.8 4.09-2.3 8.42 10.763 12.013 13.061 3.6 4.465-16.349.591-35.364-10.466-48.172-12.761-14.781-34-19.179-52.233-23-25.992-5.447-52.473-8.737-78.894-11.235q-50.418-4.766-101.145-4.878a944.069 944.069 0 0 0-108.979 5.553c-38.223 4.316-76.319 10.781-114.045 18.243-58.549 11.582-117.795 25.791-172.636 49.837-16.637 7.3-33.267 15.676-47.256 27.424a89.945 89.945 0 0 0-20.213 25.249c-5.19 9.334-9.4 20.529-8.607 31.411a24.438 24.438 0 0 0 .806 5.4c2.572 8.3 15.651 4.758 13.061-3.6z"/>
      <path d="M119.836 702.213s105.238-5.914 269.116-82.348 288.542-171.546 288.542-171.546 34.591 98.448 54.355 166.26 19.872 86.587 19.872 86.587-98.262 93.87-226.259 154.87C367.946 931.105 199.9 960.5 199.9 960.5s-22.4-77.024-35.083-132.431c-12.855-56.118-44.981-125.856-44.981-125.856z" fill="#b1b1b1"/>
      <path d="M119.836 708.986c16.442-.932 32.941-4 49.066-7.163 44.418-8.7 87.977-21.784 130.45-37.336 62.468-22.873 122.708-51.549 181.109-83.319q71.007-38.626 138.4-83.492 21.249-14.128 42.057-28.906c6.409-4.566 13.116-8.977 19.191-13.993.259-.214.538-.406.806-.61l-9.949-4.047q15.754 44.846 30.5 90.044c15.185 46.324 30.758 93.089 40.414 140.942a294.161 294.161 0 0 1 1.867 10.078q.317 1.908.6 3.824c.057.395.3 2.255.111.762-.187-1.463.02.169.065.552a45.444 45.444 0 0 1 .425 4.844l1.984-4.789c-15.009 14.33-31.111 27.619-47.294 40.583a991.947 991.947 0 0 1-119.948 82.66c-52.222 30.434-107.894 54.431-164.728 74.818a1504.775 1504.775 0 0 1-145.291 43.8q-23.793 5.91-47.777 11.016c-7.578 1.6-15.255 2.844-22.81 4.539-.325.073-.659.119-.988.177l8.331 4.73q-13.227-45.51-25.041-91.43c-5.816-22.606-10.509-45.542-17.255-67.895-6.633-21.976-14.591-43.551-23.189-64.829-4.851-12.007-9.842-23.985-15.258-35.751-1.529-3.322-6.329-4.148-9.266-2.43-3.411 2-3.965 5.931-2.429 9.267 1.169 2.541 2.3 5.1 3.426 7.662a795.484 795.484 0 0 1 8.251 19.418c8.517 20.724 16.421 41.728 23.186 63.093 6.981 22.049 11.752 44.639 17.424 67.039 5.477 21.629 11.278 43.176 17.246 64.674 3.224 11.611 6.48 23.214 9.844 34.785 1.093 3.759 4.673 5.371 8.331 4.73 11.677-2.045 23.286-4.551 34.86-7.107q44.819-9.9 88.967-22.574c40.747-11.635 81.049-24.892 120.609-40.088 43.4-16.669 86.1-35.474 126.717-58.146a957.968 957.968 0 0 0 101.61-65.851c22.494-16.6 44.421-34.008 65.49-52.384 4.884-4.259 9.728-8.568 14.478-12.977 2.423-2.249 4.243-4.622 3.989-8.144a162.912 162.912 0 0 0-2.78-18.734c-2.771-14.494-6.372-28.831-10.195-43.078-10.119-37.7-22.136-74.894-34.389-111.948q-12.519-37.861-25.643-75.521-.69-1.981-1.385-3.962c-1.282-3.651-6.21-6.9-9.949-4.048-16.19 12.348-33.013 23.919-49.867 35.332q-63.067 42.711-129.576 80.053c-57.29 32.188-116.362 61.637-177.618 85.529-45.357 17.692-91.965 32.625-139.59 42.882-13.317 2.867-26.722 5.369-40.211 7.273l-1.7.237c-1.784.25 1.683-.216-.3.04-1.133.146-2.265.293-3.4.431q-2.566.313-5.136.587c-2.029.213-4.061.379-6.093.556-.249.022-.5.036-.748.05a6.923 6.923 0 0 0-6.772 6.772c-.001 3.507 3.101 6.981 6.771 6.773z"/>
    </svg>
  </g>
  <g transform="matrix(-0.410905, -0.269875, 0.269306, -0.410038, 3979.338438, -685.521067)">
    <svg width="144.425" height="152.884" viewBox="0 0 144.425 152.884">
      <path d="M.927 53.73q17.694 28.754 36.906 56.534 5.489 7.932 11.1 15.78a7.3 7.3 0 0 0 4.047 3.112 6.922 6.922 0 0 0 5.219-.682c2.852-1.84 4.632-6.184 2.429-9.266Q41 91.737 22.856 63.247q-5.18-8.137-10.234-16.354c-1.855-3.015-6.143-4.442-9.266-2.429A6.884 6.884 0 0 0 .927 53.73zM48.6 40.2q15.5 20.72 30.391 41.889t29.129 42.774q8.083 12.258 15.957 24.652c1.9 2.988 6.113 4.463 9.266 2.43 2.99-1.927 4.463-6.068 2.43-9.266q-13.88-21.838-28.4-43.261T77.694 57.023q-8.6-11.9-17.4-23.656a7.4 7.4 0 0 0-4.047-3.113 6.923 6.923 0 0 0-5.219.683c-2.8 1.8-4.7 6.232-2.429 9.266zm48.863-29.988 34.3 50.181c2 2.919 6.042 4.508 9.266 2.429 2.906-1.872 4.568-6.138 2.43-9.266l-34.3-50.181c-2-2.919-6.042-4.508-9.266-2.429-2.905 1.873-4.568 6.138-2.43 9.266z"/>
    </svg>
  </g>
</svg>