<?xml version="1.0" encoding="UTF-8" standalone="no" ?>
<!DOCTYPE svg PUBLIC "-//W3C//DTD SVG 1.1//EN" "http://www.w3.org/Graphics/SVG/1.1/DTD/svg11.dtd">
<svg xmlns="http://www.w3.org/2000/svg" xmlns:xlink="http://www.w3.org/1999/xlink" version="1.1" width="1080" height="1080" viewBox="0 0 1080 1080" xml:space="preserve">
<desc>Created with Fabric.js 5.2.4</desc>
<defs>
</defs>
<rect x="0" y="0" width="100%" height="100%" fill="transparent"></rect>
<g transform="matrix(1 0 0 1 540 540)" id="a0d4929c-d1d0-4d27-b65d-d15bd80bc142"  >
<rect style="stroke: none; stroke-width: 1; stroke-dasharray: none; stroke-linecap: butt; stroke-dashoffset: 0; stroke-linejoin: miter; stroke-miterlimit: 4; fill: rgb(255,255,255); fill-rule: nonzero; opacity: 1; visibility: hidden;" vector-effect="non-scaling-stroke"  x="-540" y="-540" rx="0" ry="0" width="1080" height="1080" />
</g>
<g transform="matrix(1 0 0 1 540 540)" id="cfde9812-1e3a-436d-b68f-84a14eee17b0"  >
</g>
<g transform="matrix(NaN NaN NaN NaN 0 0)"  >
<g style=""   >
</g>
</g>
<g transform="matrix(49.09 0 0 49.09 540 540)"  >
<path style="stroke: none; stroke-width: 1; stroke-dasharray: none; stroke-linecap: butt; stroke-dashoffset: 0; stroke-linejoin: miter; stroke-miterlimit: 4; fill: rgb(28,35,49); fill-rule: nonzero; opacity: 1;"  transform=" translate(-11, -11)" d="M 21.8208 6.10158 C 21.7578 6.01202 21.6741 5.93893 21.5769 5.88844 C 21.4797 5.83796 21.3718 5.81157 21.2623 5.8115 L 6.67147 5.8115 L 5.56701 2.00275 C 5.13388 0.502971 4.10467 0.341064 3.68255 0.341064 L 0.737641 0.341064 C 0.360182 0.341064 0.0549316 0.646658 0.0549316 1.02375 C 0.0549316 1.40085 0.360525 1.70642 0.737619 1.70642 L 3.68218 1.70642 C 3.77534 1.70642 4.05962 1.70642 4.25352 2.37639 L 8.05298 16.3399 C 8.13548 16.6345 8.40395 16.8379 8.71021 16.8379 L 17.9908 16.8379 C 18.2789 16.8379 18.536 16.6575 18.6333 16.3862 L 21.9044 6.72515 C 21.9797 6.5158 21.9484 6.28274 21.8209 6.10158 L 21.8208 6.10158 Z M 17.5103 15.4729 L 9.22839 15.4729 L 7.05521 7.17722 L 20.2916 7.17722 L 17.5103 15.4729 Z M 16.1563 18.2216 C 15.2069 18.2216 14.4376 18.9909 14.4376 19.9403 C 14.4376 20.8898 15.2069 21.6591 16.1563 21.6591 C 17.1058 21.6591 17.8751 20.8898 17.8751 19.9403 C 17.8751 18.9909 17.1058 18.2216 16.1563 18.2216 Z M 9.96883 18.2216 C 9.01939 18.2216 8.25008 18.9909 8.25008 19.9403 C 8.25008 20.8898 9.01939 21.6591 9.96883 21.6591 C 10.9183 21.6591 11.6876 20.8898 11.6876 19.9403 C 11.6876 18.9909 10.9183 18.2216 9.96883 18.2216 Z" stroke-linecap="round" />
</g>
</svg>