<?xml version="1.0" encoding="UTF-8" standalone="no" ?>
<!DOCTYPE svg PUBLIC "-//W3C//DTD SVG 1.1//EN" "http://www.w3.org/Graphics/SVG/1.1/DTD/svg11.dtd">
<svg xmlns="http://www.w3.org/2000/svg" xmlns:xlink="http://www.w3.org/1999/xlink" version="1.1" width="1080" height="1080" viewBox="0 0 1080 1080" xml:space="preserve">
<desc>Created with Fabric.js 5.2.4</desc>
<defs>
</defs>
<rect x="0" y="0" width="100%" height="100%" fill="transparent"></rect>
<g transform="matrix(1 0 0 1 540 540)" id="a0d4929c-d1d0-4d27-b65d-d15bd80bc142"  >
<rect style="stroke: none; stroke-width: 1; stroke-dasharray: none; stroke-linecap: butt; stroke-dashoffset: 0; stroke-linejoin: miter; stroke-miterlimit: 4; fill: rgb(255,255,255); fill-rule: nonzero; opacity: 1; visibility: hidden;" vector-effect="non-scaling-stroke"  x="-540" y="-540" rx="0" ry="0" width="1080" height="1080" />
</g>
<g transform="matrix(1 0 0 1 540 540)" id="cfde9812-1e3a-436d-b68f-84a14eee17b0"  >
</g>
<g transform="matrix(0 0 0 0 0 0)"  >
<g style=""   >
</g>
</g>
<g transform="matrix(49.09 0 0 49.09 540.07 538.84)"  >
<path style="stroke: none; stroke-width: 1; stroke-dasharray: none; stroke-linecap: butt; stroke-dashoffset: 0; stroke-linejoin: miter; stroke-miterlimit: 4; fill: rgb(28,35,49); fill-rule: nonzero; opacity: 1;" vector-effect="non-scaling-stroke"  transform=" translate(-11, -10.98)" d="M 11.0022 18.1972 C 6.23049 18.1972 1.38147 14.1775 1.38147 10.9806 C 1.38147 7.78377 6.23049 3.76404 11.0022 3.76404 C 15.7739 3.76404 20.625 7.78377 20.625 10.9806 C 20.625 14.1775 15.7739 18.1972 11.0022 18.1972 Z" stroke-linecap="round" />
</g>
<g transform="matrix(49.09 0 0 49.09 539.92 539.18)"  >
<path style="stroke: none; stroke-width: 1; stroke-dasharray: none; stroke-linecap: butt; stroke-dashoffset: 0; stroke-linejoin: miter; stroke-miterlimit: 4; fill: rgb(255,255,255); fill-rule: nonzero; opacity: 1;" vector-effect="non-scaling-stroke"  transform=" translate(-11, -10.98)" d="M 11.0022 16.9941 C 15.1551 16.9941 19.4219 13.4578 19.4219 10.9806 C 19.4219 8.50349 15.1551 4.96716 11.0022 4.96716 C 6.84924 4.96716 2.58459 8.50349 2.58459 10.9806 C 2.58459 13.4578 6.85139 16.9941 11.0022 16.9941 Z" stroke-linecap="round" />
</g>
<g transform="matrix(49.09 0 0 49.09 540.01 539.03)"  >
<path style="stroke: none; stroke-width: 1; stroke-dasharray: none; stroke-linecap: butt; stroke-dashoffset: 0; stroke-linejoin: miter; stroke-miterlimit: 4; fill: rgb(0,0,0); fill-rule: nonzero; opacity: 1;" vector-effect="non-scaling-stroke"  transform=" translate(-11, -10.98)" d="M 11.0021 15.791 C 8.34451 15.791 6.19177 13.6361 6.19177 10.9806 C 6.19177 8.32517 8.34665 6.17029 11.0021 6.17029 C 13.6576 6.17029 15.8125 8.32517 15.8125 10.9806 C 15.8125 13.6361 13.6597 15.791 11.0021 15.791 Z" stroke-linecap="round" />
</g>
<g transform="matrix(49.09 0 0 49.09 539.93 538.95)"  >
<path style="stroke: none; stroke-width: 1; stroke-dasharray: none; stroke-linecap: butt; stroke-dashoffset: 0; stroke-linejoin: miter; stroke-miterlimit: 4; fill: rgb(255,255,255); fill-rule: nonzero; opacity: 1;" vector-effect="non-scaling-stroke"  transform=" translate(-11, -10.98)" d="M 11.0021 15.1894 C 13.3267 15.1894 15.2109 13.3052 15.2109 10.9806 C 15.2109 8.65603 13.3267 6.77185 11.0021 6.77185 C 8.67751 6.77185 6.79333 8.65603 6.79333 10.9806 C 6.79333 13.3052 8.67751 15.1894 11.0021 15.1894 Z" stroke-linecap="round" />
</g>
<g transform="matrix(49.09 0 0 49.09 466.55 465.08)"  >
<path style="stroke: none; stroke-width: 1; stroke-dasharray: none; stroke-linecap: butt; stroke-dashoffset: 0; stroke-linejoin: miter; stroke-miterlimit: 4; fill: rgb(28,35,49); fill-rule: nonzero; opacity: 1;" vector-effect="non-scaling-stroke"  transform=" translate(-9.5, -9.48)" d="M 8.29724 10.9807 C 7.99646 10.9807 7.99646 10.8066 7.99646 10.6799 C 7.99646 9.17596 9.19958 7.97284 10.7035 7.97284 C 10.798 7.97284 11.0043 8.08671 11.0043 8.27362 C 11.0043 8.46053 10.7035 8.5744 10.7035 8.5744 C 9.50037 8.5744 8.59802 9.47675 8.59802 10.6799 C 8.59802 10.6799 8.59802 10.9807 8.29724 10.9807 Z" stroke-linecap="round" />
</g>
</svg>