<svg width="17" height="17" viewBox="0 0 17 17" fill="none" xmlns="http://www.w3.org/2000/svg">
<g clip-path="url(#clip0_87_523)">
<path d="M4.95833 7.7915C4.56713 7.7915 4.25 8.10862 4.25 8.49984C4.25 8.89105 4.56713 9.20817 4.95833 9.20817H12.0417C12.4329 9.20817 12.75 8.89105 12.75 8.49984C12.75 8.10862 12.4329 7.7915 12.0417 7.7915H4.95833Z" fill="#1C2331"/>
<path fill-rule="evenodd" clip-rule="evenodd" d="M8.49992 0.708496C4.1967 0.708496 0.708252 4.19695 0.708252 8.50016C0.708252 12.8034 4.1967 16.2918 8.49992 16.2918C12.8031 16.2918 16.2916 12.8034 16.2916 8.50016C16.2916 4.19695 12.8031 0.708496 8.49992 0.708496ZM2.12492 8.50016C2.12492 4.97935 4.9791 2.12516 8.49992 2.12516C12.0208 2.12516 14.8749 4.97935 14.8749 8.50016C14.8749 12.021 12.0208 14.8752 8.49992 14.8752C4.9791 14.8752 2.12492 12.021 2.12492 8.50016Z" fill="#1C2331"/>
</g>
<defs>
<clipPath id="clip0_87_523">
<rect width="17" height="17" fill="white"/>
</clipPath>
</defs>
</svg>
