<svg width="17" height="17" viewBox="0 0 17 17" fill="none" xmlns="http://www.w3.org/2000/svg">
<g clip-path="url(#clip0_87_505)">
<path d="M8.5 4.25C8.89121 4.25 9.20833 4.56713 9.20833 4.95833V7.79167H12.0417C12.4329 7.79167 12.75 8.10879 12.75 8.5C12.75 8.89121 12.4329 9.20833 12.0417 9.20833H9.20833V12.0417C9.20833 12.4329 8.89121 12.75 8.5 12.75C8.10879 12.75 7.79167 12.4329 7.79167 12.0417V9.20833H4.95833C4.56713 9.20833 4.25 8.89121 4.25 8.5C4.25 8.10879 4.56713 7.79167 4.95833 7.79167H7.79167V4.95833C7.79167 4.56713 8.10879 4.25 8.5 4.25Z" fill="#1C2331"/>
<path fill-rule="evenodd" clip-rule="evenodd" d="M0.708252 8.50016C0.708252 4.19695 4.1967 0.708496 8.49992 0.708496C12.8031 0.708496 16.2916 4.19695 16.2916 8.50016C16.2916 12.8034 12.8031 16.2918 8.49992 16.2918C4.1967 16.2918 0.708252 12.8034 0.708252 8.50016ZM8.49992 2.12516C4.9791 2.12516 2.12492 4.97935 2.12492 8.50016C2.12492 12.021 4.9791 14.8752 8.49992 14.8752C12.0208 14.8752 14.8749 12.021 14.8749 8.50016C14.8749 4.97935 12.0208 2.12516 8.49992 2.12516Z" fill="#1C2331"/>
</g>
<defs>
<clipPath id="clip0_87_505">
<rect width="17" height="17" fill="white"/>
</clipPath>
</defs>
</svg>
