<svg width="20" height="20" viewBox="0 0 20 20" fill="none" xmlns="http://www.w3.org/2000/svg">
<path fill-rule="evenodd" clip-rule="evenodd" d="M16.6666 4.79191C16.6666 5.32595 16.5087 5.84807 16.2127 6.29262C15.9168 6.73717 15.496 7.08431 15.0034 7.29039C14.5107 7.49648 13.9681 7.5523 13.4438 7.45086C12.9195 7.34941 12.4368 7.09522 12.0566 6.72024L7.75824 9.08857C7.96985 9.67913 7.96956 10.3249 7.75741 10.9152L12.0541 13.2819C12.5132 12.8287 13.1191 12.5542 13.7626 12.508C14.4062 12.4617 15.045 12.6467 15.5643 13.0297C16.0835 13.4127 16.449 13.9684 16.5949 14.5969C16.7408 15.2253 16.6576 15.8852 16.3602 16.4578C16.0628 17.0303 15.5707 17.4779 14.9727 17.7199C14.3746 17.9619 13.7098 17.9825 13.0979 17.7779C12.486 17.5733 11.9673 17.157 11.635 16.6039C11.3028 16.0509 11.179 15.3974 11.2857 14.7611L6.72074 12.2469C6.3131 12.5214 5.83846 12.6798 5.34768 12.7051C4.8569 12.7304 4.36848 12.6217 3.93474 12.3907C3.50101 12.1596 3.13832 11.8149 2.88553 11.3935C2.63275 10.9721 2.49939 10.4898 2.49976 9.99835C2.50012 9.50692 2.63419 9.02485 2.88761 8.60379C3.14102 8.18273 3.50422 7.83856 3.93829 7.60815C4.37237 7.37774 4.86095 7.26978 5.3517 7.29584C5.84244 7.3219 6.31684 7.48099 6.72408 7.75607L11.2857 5.24107C11.2252 4.87222 11.2416 4.49482 11.334 4.13262C11.4264 3.77043 11.5927 3.43128 11.8226 3.13653C12.0525 2.84177 12.3409 2.59779 12.6697 2.41995C12.9984 2.2421 13.3605 2.13423 13.733 2.10314C14.1055 2.07204 14.4804 2.11839 14.8341 2.23927C15.1878 2.36015 15.5127 2.55293 15.7882 2.8055C16.0638 3.05806 16.2841 3.36493 16.4352 3.7068C16.5864 4.04866 16.6652 4.41811 16.6666 4.79191Z" fill="#1C2331"/>
</svg>
