<?xml version="1.0" encoding="UTF-8" standalone="no" ?>
<!DOCTYPE svg PUBLIC "-//W3C//DTD SVG 1.1//EN" "http://www.w3.org/Graphics/SVG/1.1/DTD/svg11.dtd">
<svg xmlns="http://www.w3.org/2000/svg" xmlns:xlink="http://www.w3.org/1999/xlink" version="1.1" width="1080" height="1080" viewBox="0 0 1080 1080" xml:space="preserve">
<desc>Created with Fabric.js 5.2.4</desc>
<defs>
</defs>
<rect x="0" y="0" width="100%" height="100%" fill="transparent"></rect>
<g transform="matrix(1 0 0 1 540 540)" id="a0d4929c-d1d0-4d27-b65d-d15bd80bc142"  >
<rect style="stroke: none; stroke-width: 1; stroke-dasharray: none; stroke-linecap: butt; stroke-dashoffset: 0; stroke-linejoin: miter; stroke-miterlimit: 4; fill: rgb(255,255,255); fill-rule: nonzero; opacity: 1; visibility: hidden;" vector-effect="non-scaling-stroke"  x="-540" y="-540" rx="0" ry="0" width="1080" height="1080" />
</g>
<g transform="matrix(1 0 0 1 540 540)" id="cfde9812-1e3a-436d-b68f-84a14eee17b0"  >
</g>
<g transform="matrix(NaN NaN NaN NaN 0 0)"  >
<g style=""   >
</g>
</g>
<g transform="matrix(49.09 0 0 49.09 540 540)" clip-path="url(#CLIPPATH_8)"  >
<clipPath id="CLIPPATH_8" >
	<rect transform="matrix(1 0 0 1 0 0)" id="clip0_87_613" x="-11" y="-11" rx="0" ry="0" width="22" height="22" />
</clipPath>
<path style="stroke: none; stroke-width: 1; stroke-dasharray: none; stroke-linecap: butt; stroke-dashoffset: 0; stroke-linejoin: miter; stroke-miterlimit: 4; fill: rgb(28,35,49); fill-rule: nonzero; opacity: 1;"  transform=" translate(-11, -11)" d="M 22 10.989 C 22 4.9225 17.072 0 11 0 C 4.928 0 0 4.9225 0 10.989 C 0 14.3302 1.518 17.3415 3.894 19.3627 C 3.916 19.3848 3.938 19.3848 3.938 19.4067 C 4.136 19.5608 4.334 19.7148 4.554 19.8687 C 4.664 19.9347 4.752 20.0214 4.862 20.1094 C 6.67984 21.3419 8.82573 22.0005 11.022 22 C 13.2183 22.0005 15.3642 21.3419 17.182 20.1094 C 17.292 20.0434 17.38 19.9568 17.49 19.8894 C 17.688 19.7367 17.908 19.5828 18.106 19.4288 C 18.128 19.4067 18.15 19.4067 18.15 19.3848 C 20.482 17.3401 22 14.3302 22 10.989 Z M 11 20.6154 C 8.932 20.6154 7.04 19.9554 5.478 18.8568 C 5.5 18.6807 5.544 18.5061 5.588 18.3301 C 5.71909 17.8531 5.91135 17.3951 6.16 16.9675 C 6.402 16.5495 6.688 16.1755 7.04 15.8455 C 7.37 15.5155 7.766 15.2089 8.162 14.9669 C 8.58 14.7249 9.02 14.5489 9.504 14.4169 C 9.99177 14.2854 10.4948 14.2193 11 14.2203 C 12.4996 14.2096 13.9442 14.7849 15.026 15.8235 C 15.532 16.3295 15.928 16.9235 16.214 17.6041 C 16.368 18.0001 16.478 18.4181 16.544 18.8568 C 14.9204 19.9982 12.9847 20.6122 11 20.6154 Z M 7.634 10.4404 C 7.44016 9.99655 7.34268 9.51665 7.348 9.03237 C 7.348 8.54975 7.436 8.06575 7.634 7.62575 C 7.832 7.18575 8.096 6.79112 8.426 6.46112 C 8.756 6.13112 9.152 5.8685 9.592 5.6705 C 10.032 5.4725 10.516 5.3845 11 5.3845 C 11.506 5.3845 11.968 5.4725 12.408 5.6705 C 12.848 5.8685 13.244 6.1325 13.574 6.46112 C 13.904 6.79112 14.168 7.18713 14.366 7.62575 C 14.564 8.06575 14.652 8.54975 14.652 9.03237 C 14.652 9.53837 14.564 10.0004 14.366 10.439 C 14.1749 10.8725 13.9065 11.2676 13.574 11.605 C 13.2365 11.937 12.8414 12.205 12.408 12.3956 C 11.4989 12.7692 10.4791 12.7692 9.57 12.3956 C 9.13662 12.205 8.74152 11.937 8.404 11.605 C 8.071 11.2725 7.80903 10.8772 7.634 10.4404 Z M 17.842 17.7361 C 17.842 17.6921 17.82 17.6701 17.82 17.6261 C 17.6036 16.9378 17.2847 16.2861 16.874 15.6929 C 16.4629 15.0953 15.9577 14.5682 15.378 14.1322 C 14.9353 13.7992 14.4554 13.5187 13.948 13.2963 C 14.1788 13.144 14.3927 12.9674 14.586 12.7696 C 14.914 12.4458 15.202 12.0839 15.444 11.6916 C 15.9312 10.8911 16.1829 9.96942 16.17 9.03237 C 16.1768 8.33871 16.0421 7.65094 15.774 7.01113 C 15.5093 6.39463 15.1284 5.83489 14.652 5.3625 C 14.1763 4.89504 13.6165 4.52181 13.002 4.2625 C 12.3611 3.99492 11.6725 3.86065 10.978 3.86787 C 10.2834 3.86108 9.59478 3.99582 8.954 4.26388 C 8.33422 4.52263 7.77303 4.90378 7.304 5.3845 C 6.83656 5.85968 6.46332 6.41908 6.204 7.03312 C 5.93594 7.67294 5.8012 8.36071 5.808 9.05437 C 5.808 9.53837 5.874 10.0004 6.006 10.439 C 6.138 10.901 6.314 11.319 6.556 11.7136 C 6.776 12.1096 7.084 12.4616 7.414 12.7916 C 7.612 12.9896 7.832 13.1642 8.074 13.3182 C 7.56502 13.5466 7.08499 13.8346 6.644 14.1763 C 6.072 14.6163 5.566 15.1429 5.148 15.7149 C 4.73311 16.3056 4.41386 16.958 4.202 17.6481 C 4.18 17.6921 4.18 17.7361 4.18 17.7581 C 2.442 15.9995 1.364 13.6263 1.364 10.989 C 1.364 5.6925 5.698 1.36263 11 1.36263 C 16.302 1.36263 20.636 5.6925 20.636 10.989 C 20.6331 13.5189 19.6286 15.9448 17.842 17.7361 Z" stroke-linecap="round" />
</g>
</svg>